<svg width="128" height="3893" viewBox="0 0 128 3893" fill="none" xmlns="http://www.w3.org/2000/svg">
<path d="M127.228 3833.7V0H0.886757V3833.7C0.886757 3908.67 127.227 3916.2 127.228 3833.7Z" fill="#170D00"/>
<path d="M116.197 3363.93V3642.28L104.903 3661.72V3799.23L84.3689 3867.04C84.3689 3867.04 63.8344 3877 46.3801 3867.04L24.8189 3797.81V3660.77L11.9849 3639.91V3363.93H116.197Z" fill="#D8AB39"/>
<path d="M87.447 3692.07L98.2275 3703.92V3780.27C98.2275 3780.27 87.9603 3794.49 87.447 3794.02C86.9336 3793.54 87.447 3692.07 87.447 3692.07Z" fill="#776C68"/>
<path d="M59.2136 3692.07H66.9141V3794.02H59.2136V3692.07Z" fill="#776C68"/>
<path d="M38.2641 3692.17L29.4394 3704.03V3780.37C29.4394 3780.37 37.8431 3794.6 38.2641 3794.12C38.685 3793.65 38.2641 3692.17 38.2641 3692.17Z" fill="#776C68"/>
<path d="M104.903 3799.23C104.903 3799.23 67.9413 3815.35 24.8189 3799.23L46.3801 3867.04C46.3801 3867.04 65.3745 3878.42 84.3689 3867.04L104.903 3799.23Z" fill="#D00005"/>
<rect width="104.281" height="384.368" transform="matrix(-1 0 0 1 116.197 3140.72)" fill="#767676"/>
<path d="M33.4735 3809.43C36.281 3812.02 42.9992 3813.29 46.0073 3813.59L61.0479 3866.85C57.037 3866.48 52.0235 3864.23 50.0181 3863.14L33.4735 3809.43Z" fill="#DB3D41"/>
<rect width="104.281" height="384.368" transform="matrix(-1 0 0 1 116.196 3140.72)" fill="#767676"/>
<ellipse cx="8.52299" cy="7.8726" rx="8.52299" ry="7.8726" transform="matrix(-1 0 0 1 38.0615 3476.65)" fill="#868686"/>
<ellipse cx="4.51217" cy="4.16785" rx="4.51217" ry="4.16785" transform="matrix(-1 0 0 1 98.1943 3452.02)" fill="#868686"/>
<ellipse cx="8.02164" cy="7.4095" rx="8.02164" ry="7.4095" transform="matrix(-1 0 0 1 106.192 3336.57)" fill="#868686"/>
<ellipse cx="20.0541" cy="18.5238" rx="20.0541" ry="18.5238" transform="matrix(-1 0 0 1 59.5381 3363.81)" fill="#868686"/>
<ellipse cx="10.5284" cy="9.72497" rx="10.5284" ry="9.72497" transform="matrix(-1 0 0 1 60.5752 3284.28)" fill="#868686"/>
<ellipse cx="17.046" cy="15.7452" rx="17.046" ry="15.7452" transform="matrix(-1 0 0 1 102.046 3174.06)" fill="#868686"/>
<ellipse cx="6.01623" cy="5.55713" rx="6.01623" ry="5.55713" transform="matrix(-1 0 0 1 30.6562 3224.97)" fill="#868686"/>
<rect width="104.281" height="384.368" transform="matrix(-1 0 0 1 116.266 2646.36)" fill="#767676"/>
<ellipse cx="8.52299" cy="7.8726" rx="8.52299" ry="7.8726" transform="matrix(-1 0 0 1 92.2012 2926.07)" fill="#868686"/>
<ellipse cx="4.51217" cy="4.16785" rx="4.51217" ry="4.16785" transform="matrix(-1 0 0 1 50.0869 2957.56)" fill="#868686"/>
<ellipse cx="8.02164" cy="7.4095" rx="8.02164" ry="7.4095" transform="matrix(-1 0 0 1 44.0713 2877.91)" fill="#868686"/>
<ellipse cx="20.0541" cy="18.5238" rx="20.0541" ry="18.5238" transform="matrix(-1 0 0 1 101.226 2869.57)" fill="#868686"/>
<ellipse cx="10.5284" cy="9.72497" rx="10.5284" ry="9.72497" transform="matrix(-1 0 0 1 106.24 2789.92)" fill="#868686"/>
<ellipse cx="17.046" cy="15.7452" rx="17.046" ry="15.7452" transform="matrix(-1 0 0 1 105.158 2671.54)" fill="#868686"/>
<ellipse cx="6.01623" cy="5.55713" rx="6.01623" ry="5.55713" transform="matrix(-1 0 0 1 38.9512 2730.71)" fill="#868686"/>
<rect width="104.281" height="384.368" transform="matrix(-1 0 0 1 116.197 2788.78)" fill="#767676"/>
<ellipse cx="8.52299" cy="7.8726" rx="8.52299" ry="7.8726" transform="matrix(-1 0 0 1 41.9131 3049.12)" fill="#868686"/>
<ellipse cx="4.51217" cy="4.16785" rx="4.51217" ry="4.16785" transform="matrix(-1 0 0 1 50.0186 3099.97)" fill="#868686"/>
<ellipse cx="8.02164" cy="7.4095" rx="8.02164" ry="7.4095" transform="matrix(-1 0 0 1 98.1953 3020.36)" fill="#868686"/>
<ellipse cx="20.0541" cy="18.5238" rx="20.0541" ry="18.5238" transform="matrix(-1 0 0 1 83.5342 2965.87)" fill="#868686"/>
<ellipse cx="10.5284" cy="9.72497" rx="10.5284" ry="9.72497" transform="matrix(-1 0 0 1 45.6152 2932.29)" fill="#868686"/>
<ellipse cx="17.046" cy="15.7452" rx="17.046" ry="15.7452" transform="matrix(-1 0 0 1 102.195 2781.35)" fill="#868686"/>
<ellipse cx="6.01623" cy="5.55713" rx="6.01623" ry="5.55713" transform="matrix(-1 0 0 1 35.9893 2869.55)" fill="#868686"/>
<rect width="104.281" height="384.368" transform="matrix(-1 0 0 1 116.28 2263.36)" fill="#767676"/>
<ellipse cx="8.52299" cy="7.8726" rx="8.52299" ry="7.8726" transform="matrix(-1 0 0 1 38.1455 2599.29)" fill="#868686"/>
<ellipse cx="4.51217" cy="4.16785" rx="4.51217" ry="4.16785" transform="matrix(-1 0 0 1 98.2783 2574.66)" fill="#868686"/>
<ellipse cx="8.02164" cy="7.4095" rx="8.02164" ry="7.4095" transform="matrix(-1 0 0 1 106.276 2459.21)" fill="#868686"/>
<ellipse cx="20.0541" cy="18.5238" rx="20.0541" ry="18.5238" transform="matrix(-1 0 0 1 59.6221 2486.45)" fill="#868686"/>
<ellipse cx="10.5284" cy="9.72497" rx="10.5284" ry="9.72497" transform="matrix(-1 0 0 1 60.6592 2406.92)" fill="#868686"/>
<ellipse cx="17.046" cy="15.7452" rx="17.046" ry="15.7452" transform="matrix(-1 0 0 1 102.13 2296.7)" fill="#868686"/>
<ellipse cx="6.01623" cy="5.55713" rx="6.01623" ry="5.55713" transform="matrix(-1 0 0 1 30.7402 2347.61)" fill="#868686"/>
<rect width="104.281" height="384.368" transform="matrix(-1 0 0 1 116.281 1386.36)" fill="#767676"/>
<ellipse cx="8.52299" cy="7.8726" rx="8.52299" ry="7.8726" transform="matrix(-1 0 0 1 38.1465 1722.29)" fill="#868686"/>
<ellipse cx="4.51217" cy="4.16785" rx="4.51217" ry="4.16785" transform="matrix(-1 0 0 1 98.2793 1697.66)" fill="#868686"/>
<ellipse cx="8.02164" cy="7.4095" rx="8.02164" ry="7.4095" transform="matrix(-1 0 0 1 106.277 1582.21)" fill="#868686"/>
<ellipse cx="20.0541" cy="18.5238" rx="20.0541" ry="18.5238" transform="matrix(-1 0 0 1 59.623 1609.45)" fill="#868686"/>
<ellipse cx="10.5284" cy="9.72497" rx="10.5284" ry="9.72497" transform="matrix(-1 0 0 1 60.6602 1529.92)" fill="#868686"/>
<ellipse cx="17.046" cy="15.7452" rx="17.046" ry="15.7452" transform="matrix(-1 0 0 1 102.131 1419.7)" fill="#868686"/>
<ellipse cx="6.01623" cy="5.55713" rx="6.01623" ry="5.55713" transform="matrix(-1 0 0 1 30.7412 1470.61)" fill="#868686"/>
<rect width="104.281" height="384.368" transform="matrix(-1 0 0 1 116.351 892)" fill="#767676"/>
<ellipse cx="8.52299" cy="7.8726" rx="8.52299" ry="7.8726" transform="matrix(-1 0 0 1 92.2861 1171.71)" fill="#868686"/>
<ellipse cx="4.51217" cy="4.16785" rx="4.51217" ry="4.16785" transform="matrix(-1 0 0 1 50.1719 1203.2)" fill="#868686"/>
<ellipse cx="8.02164" cy="7.4095" rx="8.02164" ry="7.4095" transform="matrix(-1 0 0 1 44.1562 1123.55)" fill="#868686"/>
<ellipse cx="20.0541" cy="18.5238" rx="20.0541" ry="18.5238" transform="matrix(-1 0 0 1 101.311 1115.21)" fill="#868686"/>
<ellipse cx="10.5284" cy="9.72497" rx="10.5284" ry="9.72497" transform="matrix(-1 0 0 1 106.325 1035.56)" fill="#868686"/>
<ellipse cx="17.046" cy="15.7452" rx="17.046" ry="15.7452" transform="matrix(-1 0 0 1 105.243 917.181)" fill="#868686"/>
<ellipse cx="6.01623" cy="5.55713" rx="6.01623" ry="5.55713" transform="matrix(-1 0 0 1 39.0361 976.35)" fill="#868686"/>
<rect width="104.281" height="384.368" transform="matrix(-1 0 0 1 116.282 1034.42)" fill="#767676"/>
<ellipse cx="8.52299" cy="7.8726" rx="8.52299" ry="7.8726" transform="matrix(-1 0 0 1 41.998 1294.76)" fill="#868686"/>
<ellipse cx="4.51217" cy="4.16785" rx="4.51217" ry="4.16785" transform="matrix(-1 0 0 1 50.1035 1345.62)" fill="#868686"/>
<ellipse cx="8.02164" cy="7.4095" rx="8.02164" ry="7.4095" transform="matrix(-1 0 0 1 98.2803 1266)" fill="#868686"/>
<ellipse cx="20.0541" cy="18.5238" rx="20.0541" ry="18.5238" transform="matrix(-1 0 0 1 83.6191 1211.51)" fill="#868686"/>
<ellipse cx="10.5284" cy="9.72497" rx="10.5284" ry="9.72497" transform="matrix(-1 0 0 1 45.7002 1177.94)" fill="#868686"/>
<ellipse cx="17.046" cy="15.7452" rx="17.046" ry="15.7452" transform="matrix(-1 0 0 1 102.28 1026.99)" fill="#868686"/>
<ellipse cx="6.01623" cy="5.55713" rx="6.01623" ry="5.55713" transform="matrix(-1 0 0 1 36.0742 1115.19)" fill="#868686"/>
<rect width="104.281" height="384.368" transform="matrix(-1 0 0 1 116.35 1769)" fill="#767676"/>
<ellipse cx="8.52299" cy="7.8726" rx="8.52299" ry="7.8726" transform="matrix(-1 0 0 1 92.2852 2048.71)" fill="#868686"/>
<ellipse cx="4.51217" cy="4.16785" rx="4.51217" ry="4.16785" transform="matrix(-1 0 0 1 50.1709 2080.2)" fill="#868686"/>
<ellipse cx="8.02164" cy="7.4095" rx="8.02164" ry="7.4095" transform="matrix(-1 0 0 1 44.1553 2000.55)" fill="#868686"/>
<ellipse cx="20.0541" cy="18.5238" rx="20.0541" ry="18.5238" transform="matrix(-1 0 0 1 101.31 1992.21)" fill="#868686"/>
<ellipse cx="10.5284" cy="9.72497" rx="10.5284" ry="9.72497" transform="matrix(-1 0 0 1 106.324 1912.56)" fill="#868686"/>
<ellipse cx="17.046" cy="15.7452" rx="17.046" ry="15.7452" transform="matrix(-1 0 0 1 105.242 1794.18)" fill="#868686"/>
<ellipse cx="6.01623" cy="5.55713" rx="6.01623" ry="5.55713" transform="matrix(-1 0 0 1 39.0352 1853.35)" fill="#868686"/>
<rect width="104.281" height="384.368" transform="matrix(-1 0 0 1 116.281 1911.42)" fill="#767676"/>
<ellipse cx="8.52299" cy="7.8726" rx="8.52299" ry="7.8726" transform="matrix(-1 0 0 1 41.9971 2171.76)" fill="#868686"/>
<ellipse cx="4.51217" cy="4.16785" rx="4.51217" ry="4.16785" transform="matrix(-1 0 0 1 50.1025 2222.62)" fill="#868686"/>
<ellipse cx="8.02164" cy="7.4095" rx="8.02164" ry="7.4095" transform="matrix(-1 0 0 1 98.2793 2143)" fill="#868686"/>
<ellipse cx="20.0541" cy="18.5238" rx="20.0541" ry="18.5238" transform="matrix(-1 0 0 1 83.6182 2088.51)" fill="#868686"/>
<ellipse cx="10.5284" cy="9.72497" rx="10.5284" ry="9.72497" transform="matrix(-1 0 0 1 45.6992 2054.94)" fill="#868686"/>
<ellipse cx="17.046" cy="15.7452" rx="17.046" ry="15.7452" transform="matrix(-1 0 0 1 102.279 1903.99)" fill="#868686"/>
<ellipse cx="6.01623" cy="5.55713" rx="6.01623" ry="5.55713" transform="matrix(-1 0 0 1 36.0732 1992.19)" fill="#868686"/>
<rect width="104.281" height="384.368" transform="matrix(-1 0 0 1 116.281 963.36)" fill="#767676"/>
<ellipse cx="8.52299" cy="7.8726" rx="8.52299" ry="7.8726" transform="matrix(-1 0 0 1 38.1465 1299.29)" fill="#868686"/>
<ellipse cx="4.51217" cy="4.16785" rx="4.51217" ry="4.16785" transform="matrix(-1 0 0 1 98.2793 1274.66)" fill="#868686"/>
<ellipse cx="8.02164" cy="7.4095" rx="8.02164" ry="7.4095" transform="matrix(-1 0 0 1 106.277 1159.21)" fill="#868686"/>
<ellipse cx="20.0541" cy="18.5238" rx="20.0541" ry="18.5238" transform="matrix(-1 0 0 1 59.623 1186.45)" fill="#868686"/>
<ellipse cx="10.5284" cy="9.72497" rx="10.5284" ry="9.72497" transform="matrix(-1 0 0 1 60.6602 1106.92)" fill="#868686"/>
<ellipse cx="17.046" cy="15.7452" rx="17.046" ry="15.7452" transform="matrix(-1 0 0 1 102.131 996.702)" fill="#868686"/>
<ellipse cx="6.01623" cy="5.55713" rx="6.01623" ry="5.55713" transform="matrix(-1 0 0 1 30.7412 1047.61)" fill="#868686"/>
<rect width="104.281" height="384.368" transform="matrix(-1 0 0 1 116.351 469)" fill="#767676"/>
<ellipse cx="8.52299" cy="7.8726" rx="8.52299" ry="7.8726" transform="matrix(-1 0 0 1 92.2861 748.708)" fill="#868686"/>
<ellipse cx="4.51217" cy="4.16785" rx="4.51217" ry="4.16785" transform="matrix(-1 0 0 1 50.1719 780.199)" fill="#868686"/>
<ellipse cx="8.02164" cy="7.4095" rx="8.02164" ry="7.4095" transform="matrix(-1 0 0 1 44.1562 700.547)" fill="#868686"/>
<ellipse cx="20.0541" cy="18.5238" rx="20.0541" ry="18.5238" transform="matrix(-1 0 0 1 101.311 692.211)" fill="#868686"/>
<ellipse cx="10.5284" cy="9.72497" rx="10.5284" ry="9.72497" transform="matrix(-1 0 0 1 106.325 612.559)" fill="#868686"/>
<ellipse cx="17.046" cy="15.7452" rx="17.046" ry="15.7452" transform="matrix(-1 0 0 1 105.243 494.181)" fill="#868686"/>
<ellipse cx="6.01623" cy="5.55713" rx="6.01623" ry="5.55713" transform="matrix(-1 0 0 1 39.0361 553.35)" fill="#868686"/>
<rect width="104.281" height="384.368" transform="matrix(-1 0 0 1 116.282 611.417)" fill="#767676"/>
<ellipse cx="8.52299" cy="7.8726" rx="8.52299" ry="7.8726" transform="matrix(-1 0 0 1 41.998 871.76)" fill="#868686"/>
<ellipse cx="4.51217" cy="4.16785" rx="4.51217" ry="4.16785" transform="matrix(-1 0 0 1 50.1035 922.617)" fill="#868686"/>
<ellipse cx="8.02164" cy="7.4095" rx="8.02164" ry="7.4095" transform="matrix(-1 0 0 1 98.2803 843.001)" fill="#868686"/>
<ellipse cx="20.0541" cy="18.5238" rx="20.0541" ry="18.5238" transform="matrix(-1 0 0 1 83.6191 788.511)" fill="#868686"/>
<ellipse cx="10.5284" cy="9.72497" rx="10.5284" ry="9.72497" transform="matrix(-1 0 0 1 45.7002 754.936)" fill="#868686"/>
<ellipse cx="17.046" cy="15.7452" rx="17.046" ry="15.7452" transform="matrix(-1 0 0 1 102.28 603.987)" fill="#868686"/>
<ellipse cx="6.01623" cy="5.55713" rx="6.01623" ry="5.55713" transform="matrix(-1 0 0 1 36.0742 692.19)" fill="#868686"/>
<rect width="104.281" height="384.368" transform="matrix(-1 0 0 1 116.35 1769)" fill="#767676"/>
<ellipse cx="8.52299" cy="7.8726" rx="8.52299" ry="7.8726" transform="matrix(-1 0 0 1 92.2852 2048.71)" fill="#868686"/>
<ellipse cx="4.51217" cy="4.16785" rx="4.51217" ry="4.16785" transform="matrix(-1 0 0 1 50.1709 2080.2)" fill="#868686"/>
<ellipse cx="8.02164" cy="7.4095" rx="8.02164" ry="7.4095" transform="matrix(-1 0 0 1 44.1553 2000.55)" fill="#868686"/>
<ellipse cx="20.0541" cy="18.5238" rx="20.0541" ry="18.5238" transform="matrix(-1 0 0 1 101.31 1992.21)" fill="#868686"/>
<ellipse cx="10.5284" cy="9.72497" rx="10.5284" ry="9.72497" transform="matrix(-1 0 0 1 106.324 1912.56)" fill="#868686"/>
<ellipse cx="17.046" cy="15.7452" rx="17.046" ry="15.7452" transform="matrix(-1 0 0 1 105.242 1794.18)" fill="#868686"/>
<ellipse cx="6.01623" cy="5.55713" rx="6.01623" ry="5.55713" transform="matrix(-1 0 0 1 39.0352 1853.35)" fill="#868686"/>
<rect width="104.281" height="384.368" transform="matrix(-1 0 0 1 116.281 1911.42)" fill="#767676"/>
<ellipse cx="8.52299" cy="7.8726" rx="8.52299" ry="7.8726" transform="matrix(-1 0 0 1 41.9971 2171.76)" fill="#868686"/>
<ellipse cx="4.51217" cy="4.16785" rx="4.51217" ry="4.16785" transform="matrix(-1 0 0 1 50.1025 2222.62)" fill="#868686"/>
<ellipse cx="8.02164" cy="7.4095" rx="8.02164" ry="7.4095" transform="matrix(-1 0 0 1 98.2793 2143)" fill="#868686"/>
<ellipse cx="20.0541" cy="18.5238" rx="20.0541" ry="18.5238" transform="matrix(-1 0 0 1 83.6182 2088.51)" fill="#868686"/>
<ellipse cx="10.5284" cy="9.72497" rx="10.5284" ry="9.72497" transform="matrix(-1 0 0 1 45.6992 2054.94)" fill="#868686"/>
<ellipse cx="17.046" cy="15.7452" rx="17.046" ry="15.7452" transform="matrix(-1 0 0 1 102.279 1903.99)" fill="#868686"/>
<ellipse cx="6.01623" cy="5.55713" rx="6.01623" ry="5.55713" transform="matrix(-1 0 0 1 36.0732 1992.19)" fill="#868686"/>
<rect width="104.281" height="384.368" transform="matrix(-1 0 0 1 116.281 963.36)" fill="#767676"/>
<ellipse cx="8.52299" cy="7.8726" rx="8.52299" ry="7.8726" transform="matrix(-1 0 0 1 38.1465 1299.29)" fill="#868686"/>
<ellipse cx="4.51217" cy="4.16785" rx="4.51217" ry="4.16785" transform="matrix(-1 0 0 1 98.2793 1274.66)" fill="#868686"/>
<ellipse cx="8.02164" cy="7.4095" rx="8.02164" ry="7.4095" transform="matrix(-1 0 0 1 106.277 1159.21)" fill="#868686"/>
<ellipse cx="20.0541" cy="18.5238" rx="20.0541" ry="18.5238" transform="matrix(-1 0 0 1 59.623 1186.45)" fill="#868686"/>
<ellipse cx="10.5284" cy="9.72497" rx="10.5284" ry="9.72497" transform="matrix(-1 0 0 1 60.6602 1106.92)" fill="#868686"/>
<ellipse cx="17.046" cy="15.7452" rx="17.046" ry="15.7452" transform="matrix(-1 0 0 1 102.131 996.702)" fill="#868686"/>
<ellipse cx="6.01623" cy="5.55713" rx="6.01623" ry="5.55713" transform="matrix(-1 0 0 1 30.7412 1047.61)" fill="#868686"/>
<rect width="104.281" height="384.368" transform="matrix(-1 0 0 1 116.351 469)" fill="#767676"/>
<ellipse cx="8.52299" cy="7.8726" rx="8.52299" ry="7.8726" transform="matrix(-1 0 0 1 92.2861 748.708)" fill="#868686"/>
<ellipse cx="4.51217" cy="4.16785" rx="4.51217" ry="4.16785" transform="matrix(-1 0 0 1 50.1719 780.199)" fill="#868686"/>
<ellipse cx="8.02164" cy="7.4095" rx="8.02164" ry="7.4095" transform="matrix(-1 0 0 1 44.1562 700.547)" fill="#868686"/>
<ellipse cx="20.0541" cy="18.5238" rx="20.0541" ry="18.5238" transform="matrix(-1 0 0 1 101.311 692.211)" fill="#868686"/>
<ellipse cx="10.5284" cy="9.72497" rx="10.5284" ry="9.72497" transform="matrix(-1 0 0 1 106.325 612.559)" fill="#868686"/>
<ellipse cx="17.046" cy="15.7452" rx="17.046" ry="15.7452" transform="matrix(-1 0 0 1 105.243 494.181)" fill="#868686"/>
<ellipse cx="6.01623" cy="5.55713" rx="6.01623" ry="5.55713" transform="matrix(-1 0 0 1 39.0361 553.35)" fill="#868686"/>
<rect width="104.281" height="384.368" transform="matrix(-1 0 0 1 116.282 611.417)" fill="#767676"/>
<ellipse cx="8.52299" cy="7.8726" rx="8.52299" ry="7.8726" transform="matrix(-1 0 0 1 41.998 871.76)" fill="#868686"/>
<ellipse cx="4.51217" cy="4.16785" rx="4.51217" ry="4.16785" transform="matrix(-1 0 0 1 50.1035 922.617)" fill="#868686"/>
<ellipse cx="8.02164" cy="7.4095" rx="8.02164" ry="7.4095" transform="matrix(-1 0 0 1 98.2803 843.001)" fill="#868686"/>
<ellipse cx="20.0541" cy="18.5238" rx="20.0541" ry="18.5238" transform="matrix(-1 0 0 1 83.6191 788.511)" fill="#868686"/>
<ellipse cx="10.5284" cy="9.72497" rx="10.5284" ry="9.72497" transform="matrix(-1 0 0 1 45.7002 754.936)" fill="#868686"/>
<ellipse cx="17.046" cy="15.7452" rx="17.046" ry="15.7452" transform="matrix(-1 0 0 1 102.28 603.987)" fill="#868686"/>
<ellipse cx="6.01623" cy="5.55713" rx="6.01623" ry="5.55713" transform="matrix(-1 0 0 1 36.0742 692.19)" fill="#868686"/>
<rect width="104.281" height="384.368" transform="matrix(-1 0 0 1 116.35 0)" fill="#767676"/>
<ellipse cx="8.52299" cy="7.8726" rx="8.52299" ry="7.8726" transform="matrix(-1 0 0 1 92.2852 279.708)" fill="#868686"/>
<ellipse cx="4.51217" cy="4.16785" rx="4.51217" ry="4.16785" transform="matrix(-1 0 0 1 50.1709 311.199)" fill="#868686"/>
<ellipse cx="8.02164" cy="7.4095" rx="8.02164" ry="7.4095" transform="matrix(-1 0 0 1 44.1553 231.547)" fill="#868686"/>
<ellipse cx="20.0541" cy="18.5238" rx="20.0541" ry="18.5238" transform="matrix(-1 0 0 1 101.31 223.211)" fill="#868686"/>
<ellipse cx="10.5284" cy="9.72497" rx="10.5284" ry="9.72497" transform="matrix(-1 0 0 1 106.324 143.559)" fill="#868686"/>
<ellipse cx="17.046" cy="15.7452" rx="17.046" ry="15.7452" transform="matrix(-1 0 0 1 105.242 25.1807)" fill="#868686"/>
<ellipse cx="6.01623" cy="5.55713" rx="6.01623" ry="5.55713" transform="matrix(-1 0 0 1 39.0352 84.3496)" fill="#868686"/>
<rect width="104.281" height="384.368" transform="matrix(-1 0 0 1 116.281 142.417)" fill="#767676"/>
<ellipse cx="8.52299" cy="7.8726" rx="8.52299" ry="7.8726" transform="matrix(-1 0 0 1 41.9971 402.76)" fill="#868686"/>
<ellipse cx="4.51217" cy="4.16785" rx="4.51217" ry="4.16785" transform="matrix(-1 0 0 1 50.1025 453.617)" fill="#868686"/>
<ellipse cx="8.02164" cy="7.4095" rx="8.02164" ry="7.4095" transform="matrix(-1 0 0 1 98.2793 374.001)" fill="#868686"/>
<ellipse cx="20.0541" cy="18.5238" rx="20.0541" ry="18.5238" transform="matrix(-1 0 0 1 83.6182 319.511)" fill="#868686"/>
<ellipse cx="10.5284" cy="9.72497" rx="10.5284" ry="9.72497" transform="matrix(-1 0 0 1 45.6992 285.936)" fill="#868686"/>
<ellipse cx="17.046" cy="15.7452" rx="17.046" ry="15.7452" transform="matrix(-1 0 0 1 102.279 134.987)" fill="#868686"/>
<ellipse cx="6.01623" cy="5.55713" rx="6.01623" ry="5.55713" transform="matrix(-1 0 0 1 36.0732 223.19)" fill="#868686"/>
</svg>
