<svg width="853" height="9059" viewBox="0 0 853 9059" fill="none" xmlns="http://www.w3.org/2000/svg">
<path d="M0 8628.86V0H853V8628.86C853 9173.64 0.00034252 9228.38 0 8628.86Z" fill="#170D00"/>
<path d="M74.4688 5214.85V7237.7L150.721 7378.99V8378.36L289.361 8871.15C289.361 8871.15 428.001 8943.52 545.845 8871.15L691.417 8368.02V7372.1L778.067 7220.47V5214.85H74.4688Z" fill="#D8AB39"/>
<path d="M268.571 7599.54L195.785 7685.7V8240.52C195.785 8240.52 265.105 8343.9 268.571 8340.45C272.037 8337.01 268.571 7599.54 268.571 7599.54Z" fill="#776C68"/>
<path d="M459.199 7599.54H407.209V8340.45H459.199V7599.54Z" fill="#776C68"/>
<path d="M600.645 7600.3L660.226 7686.45V8241.27C660.226 8241.27 603.487 8344.65 600.645 8341.21C597.803 8337.76 600.645 7600.3 600.645 7600.3Z" fill="#776C68"/>
<path d="M150.722 8378.35C150.722 8378.35 400.274 8495.52 691.418 8378.35L545.846 8871.14C545.846 8871.14 417.604 8953.85 289.362 8871.14L150.722 8378.35Z" fill="#D00005"/>
<rect x="74.4688" y="3592.7" width="704.064" height="2793.34" fill="#767676"/>
<path d="M632.98 8452.44C614.025 8471.28 568.667 8480.48 548.357 8482.72L446.81 8869.75C473.889 8867.06 507.738 8850.68 521.278 8842.83L632.98 8452.44Z" fill="#DB3D41"/>
<rect x="74.4688" y="3592.7" width="704.064" height="2793.34" fill="#767676"/>
<ellipse cx="659.544" cy="6091.21" rx="57.5436" ry="57.213" fill="#868686"/>
<ellipse cx="226.464" cy="5885.29" rx="30.4643" ry="30.2892" fill="#868686"/>
<ellipse cx="196.159" cy="5069.85" rx="54.1587" ry="53.8475" fill="#868686"/>
<ellipse cx="592.397" cy="5348.62" rx="135.397" ry="134.619" fill="#868686"/>
<ellipse cx="521.083" cy="4706.67" rx="71.0833" ry="70.6749" fill="#868686"/>
<ellipse cx="285.087" cy="3949.43" rx="115.087" ry="114.426" fill="#868686"/>
<ellipse cx="692.619" cy="4245.39" rx="40.619" ry="40.3856" fill="#868686"/>
<rect x="74" width="704.064" height="2793.34" fill="#767676"/>
<ellipse cx="294.02" cy="2089.96" rx="57.5436" ry="57.213" fill="#868686"/>
<ellipse cx="551.273" cy="2291.89" rx="30.4643" ry="30.2892" fill="#868686"/>
<ellipse cx="615.588" cy="1736.58" rx="54.1587" ry="53.8475" fill="#868686"/>
<ellipse cx="310.948" cy="1756.78" rx="135.397" ry="134.619" fill="#868686"/>
<ellipse cx="212.781" cy="1113.97" rx="71.0833" ry="70.6749" fill="#868686"/>
<ellipse cx="264.087" cy="297.426" rx="115.087" ry="114.426" fill="#868686"/>
<ellipse cx="636.619" cy="653.386" rx="40.619" ry="40.3856" fill="#868686"/>
<rect x="74.4688" y="1035" width="704.064" height="2793.34" fill="#767676"/>
<ellipse cx="633.544" cy="2984.21" rx="57.5436" ry="57.213" fill="#868686"/>
<ellipse cx="551.742" cy="3326.89" rx="30.4643" ry="30.2892" fill="#868686"/>
<ellipse cx="250.159" cy="2771.85" rx="54.1587" ry="53.8475" fill="#868686"/>
<ellipse cx="430.397" cy="2456.62" rx="135.397" ry="134.619" fill="#868686"/>
<ellipse cx="622.083" cy="2148.67" rx="71.0833" ry="70.6749" fill="#868686"/>
<ellipse cx="284.087" cy="1095.43" rx="115.087" ry="114.426" fill="#868686"/>
<ellipse cx="656.619" cy="1662.39" rx="40.619" ry="40.3856" fill="#868686"/>
</svg>
