<svg width="127" height="3893" viewBox="0 0 127 3893" fill="none" xmlns="http://www.w3.org/2000/svg">
<path d="M126.341 3833.7V0H3.8147e-05V3833.7C3.8147e-05 3908.67 126.341 3916.2 126.341 3833.7Z" fill="#170D00"/>
<path d="M115.018 3364.36V3641.95L103.754 3661.34V3798.49L83.275 3866.11C83.275 3866.11 62.796 3876.04 45.3888 3866.11L23.8857 3797.07V3660.4L11.0863 3639.59V3364.36H115.018Z" fill="#D8AB39"/>
<path d="M86.3461 3691.61L97.0977 3703.43V3779.57C97.0977 3779.57 86.8581 3793.76 86.3461 3793.28C85.8342 3792.81 86.3461 3691.61 86.3461 3691.61Z" fill="#776C68"/>
<path d="M58.1885 3691.61H65.8682V3793.28H58.1885V3691.61Z" fill="#776C68"/>
<path d="M37.2949 3691.71L28.494 3703.54V3779.67C28.494 3779.67 36.875 3793.86 37.2949 3793.39C37.7147 3792.91 37.2949 3691.71 37.2949 3691.71Z" fill="#776C68"/>
<path d="M103.754 3798.49C103.754 3798.49 66.8916 3814.56 23.8855 3798.49L45.3886 3866.11C45.3886 3866.11 64.3317 3877.46 83.2748 3866.11L103.754 3798.49Z" fill="#D00005"/>
<rect width="104" height="383.331" transform="matrix(-1 0 0 1 115.018 3141.75)" fill="#767676"/>
<path d="M32.5186 3808.65C35.3186 3811.24 42.0186 3812.5 45.0186 3812.81L60.0186 3865.92C56.0186 3865.55 51.0186 3863.3 49.0186 3862.23L32.5186 3808.65Z" fill="#DB3D41"/>
<rect width="104" height="383.331" transform="matrix(-1 0 0 1 115.018 3141.75)" fill="#767676"/>
<ellipse cx="8.5" cy="7.85136" rx="8.5" ry="7.85136" transform="matrix(-1 0 0 1 91.0176 3420.7)" fill="#868686"/>
<ellipse cx="4.5" cy="4.1566" rx="4.5" ry="4.1566" transform="matrix(-1 0 0 1 49.0176 3452.11)" fill="#868686"/>
<ellipse cx="8" cy="7.38952" rx="8" ry="7.38952" transform="matrix(-1 0 0 1 43.0176 3372.67)" fill="#868686"/>
<ellipse cx="20" cy="18.4738" rx="20" ry="18.4738" transform="matrix(-1 0 0 1 100.018 3364.36)" fill="#868686"/>
<ellipse cx="10.5" cy="9.69874" rx="10.5" ry="9.69874" transform="matrix(-1 0 0 1 105.018 3284.92)" fill="#868686"/>
<ellipse cx="17" cy="15.7027" rx="17" ry="15.7027" transform="matrix(-1 0 0 1 57.0176 3175)" fill="#868686"/>
<ellipse cx="6" cy="5.54214" rx="6" ry="5.54214" transform="matrix(-1 0 0 1 97.0186 3225.8)" fill="#868686"/>
<rect width="104" height="383.331" transform="matrix(-1 0 0 1 115.071 2627)" fill="#767676"/>
<ellipse cx="8.5" cy="7.85136" rx="8.5" ry="7.85136" transform="matrix(-1 0 0 1 91.0713 2905.95)" fill="#868686"/>
<ellipse cx="4.5" cy="4.1566" rx="4.5" ry="4.1566" transform="matrix(-1 0 0 1 49.0713 2937.36)" fill="#868686"/>
<ellipse cx="8" cy="7.38952" rx="8" ry="7.38952" transform="matrix(-1 0 0 1 43.0713 2857.92)" fill="#868686"/>
<ellipse cx="20" cy="18.4738" rx="20" ry="18.4738" transform="matrix(-1 0 0 1 100.071 2849.61)" fill="#868686"/>
<ellipse cx="10.5" cy="9.69874" rx="10.5" ry="9.69874" transform="matrix(-1 0 0 1 105.071 2770.17)" fill="#868686"/>
<ellipse cx="17" cy="15.7027" rx="17" ry="15.7027" transform="matrix(-1 0 0 1 57.0713 2660.25)" fill="#868686"/>
<ellipse cx="6" cy="5.54214" rx="6" ry="5.54214" transform="matrix(-1 0 0 1 97.0723 2711.06)" fill="#868686"/>
<rect width="104" height="383.331" transform="matrix(-1 0 0 1 115 2769.03)" fill="#767676"/>
<ellipse cx="8.5" cy="7.85136" rx="8.5" ry="7.85136" transform="matrix(-1 0 0 1 91 3047.99)" fill="#868686"/>
<ellipse cx="4.5" cy="4.1566" rx="4.5" ry="4.1566" transform="matrix(-1 0 0 1 49 3079.39)" fill="#868686"/>
<ellipse cx="8" cy="7.38952" rx="8" ry="7.38952" transform="matrix(-1 0 0 1 43 2999.96)" fill="#868686"/>
<ellipse cx="20" cy="18.4738" rx="20" ry="18.4738" transform="matrix(-1 0 0 1 100 2991.64)" fill="#868686"/>
<ellipse cx="10.5" cy="9.69874" rx="10.5" ry="9.69874" transform="matrix(-1 0 0 1 105 2912.2)" fill="#868686"/>
<ellipse cx="17" cy="15.7027" rx="17" ry="15.7027" transform="matrix(-1 0 0 1 57 2802.29)" fill="#868686"/>
<ellipse cx="6" cy="5.54214" rx="6" ry="5.54214" transform="matrix(-1 0 0 1 97.001 2853.09)" fill="#868686"/>
<rect width="104" height="383.331" transform="matrix(-1 0 0 1 115.008 2276.03)" fill="#767676"/>
<ellipse cx="8.5" cy="7.85136" rx="8.5" ry="7.85136" transform="matrix(-1 0 0 1 91.0078 2554.98)" fill="#868686"/>
<ellipse cx="4.5" cy="4.1566" rx="4.5" ry="4.1566" transform="matrix(-1 0 0 1 49.0078 2586.39)" fill="#868686"/>
<ellipse cx="8" cy="7.38952" rx="8" ry="7.38952" transform="matrix(-1 0 0 1 43.0078 2506.95)" fill="#868686"/>
<ellipse cx="20" cy="18.4738" rx="20" ry="18.4738" transform="matrix(-1 0 0 1 100.008 2498.64)" fill="#868686"/>
<ellipse cx="10.5" cy="9.69874" rx="10.5" ry="9.69874" transform="matrix(-1 0 0 1 105.008 2419.2)" fill="#868686"/>
<ellipse cx="17" cy="15.7027" rx="17" ry="15.7027" transform="matrix(-1 0 0 1 57.0078 2309.28)" fill="#868686"/>
<ellipse cx="6" cy="5.54214" rx="6" ry="5.54214" transform="matrix(-1 0 0 1 97.0088 2360.08)" fill="#868686"/>
<rect width="104" height="383.331" transform="matrix(-1 0 0 1 115.078 1783)" fill="#767676"/>
<ellipse cx="8.5" cy="7.85136" rx="8.5" ry="7.85136" transform="matrix(-1 0 0 1 91.0781 2061.95)" fill="#868686"/>
<ellipse cx="4.5" cy="4.1566" rx="4.5" ry="4.1566" transform="matrix(-1 0 0 1 49.0781 2093.36)" fill="#868686"/>
<ellipse cx="8" cy="7.38952" rx="8" ry="7.38952" transform="matrix(-1 0 0 1 43.0781 2013.92)" fill="#868686"/>
<ellipse cx="20" cy="18.4738" rx="20" ry="18.4738" transform="matrix(-1 0 0 1 100.078 2005.61)" fill="#868686"/>
<ellipse cx="10.5" cy="9.69874" rx="10.5" ry="9.69874" transform="matrix(-1 0 0 1 105.078 1926.17)" fill="#868686"/>
<ellipse cx="17" cy="15.7027" rx="17" ry="15.7027" transform="matrix(-1 0 0 1 57.0781 1816.25)" fill="#868686"/>
<ellipse cx="6" cy="5.54214" rx="6" ry="5.54214" transform="matrix(-1 0 0 1 97.0791 1867.06)" fill="#868686"/>
<rect width="104" height="383.331" transform="matrix(-1 0 0 1 115.007 1925.03)" fill="#767676"/>
<ellipse cx="8.5" cy="7.85136" rx="8.5" ry="7.85136" transform="matrix(-1 0 0 1 91.0068 2203.99)" fill="#868686"/>
<ellipse cx="4.5" cy="4.1566" rx="4.5" ry="4.1566" transform="matrix(-1 0 0 1 49.0068 2235.39)" fill="#868686"/>
<ellipse cx="8" cy="7.38952" rx="8" ry="7.38952" transform="matrix(-1 0 0 1 43.0068 2155.96)" fill="#868686"/>
<ellipse cx="20" cy="18.4738" rx="20" ry="18.4738" transform="matrix(-1 0 0 1 100.007 2147.64)" fill="#868686"/>
<ellipse cx="10.5" cy="9.69874" rx="10.5" ry="9.69874" transform="matrix(-1 0 0 1 105.007 2068.2)" fill="#868686"/>
<ellipse cx="17" cy="15.7027" rx="17" ry="15.7027" transform="matrix(-1 0 0 1 57.0068 1958.29)" fill="#868686"/>
<ellipse cx="6" cy="5.54214" rx="6" ry="5.54214" transform="matrix(-1 0 0 1 97.0078 2009.09)" fill="#868686"/>
<rect width="104" height="383.331" transform="matrix(-1 0 0 1 115.008 1414.03)" fill="#767676"/>
<ellipse cx="8.5" cy="7.85136" rx="8.5" ry="7.85136" transform="matrix(-1 0 0 1 91.0078 1692.98)" fill="#868686"/>
<ellipse cx="4.5" cy="4.1566" rx="4.5" ry="4.1566" transform="matrix(-1 0 0 1 49.0078 1724.39)" fill="#868686"/>
<ellipse cx="8" cy="7.38952" rx="8" ry="7.38952" transform="matrix(-1 0 0 1 43.0078 1644.95)" fill="#868686"/>
<ellipse cx="20" cy="18.4738" rx="20" ry="18.4738" transform="matrix(-1 0 0 1 100.008 1636.64)" fill="#868686"/>
<ellipse cx="10.5" cy="9.69874" rx="10.5" ry="9.69874" transform="matrix(-1 0 0 1 105.008 1557.2)" fill="#868686"/>
<ellipse cx="17" cy="15.7027" rx="17" ry="15.7027" transform="matrix(-1 0 0 1 57.0078 1447.28)" fill="#868686"/>
<ellipse cx="6" cy="5.54214" rx="6" ry="5.54214" transform="matrix(-1 0 0 1 97.0088 1498.08)" fill="#868686"/>
<rect width="104" height="383.331" transform="matrix(-1 0 0 1 115.078 921)" fill="#767676"/>
<ellipse cx="8.5" cy="7.85136" rx="8.5" ry="7.85136" transform="matrix(-1 0 0 1 91.0781 1199.95)" fill="#868686"/>
<ellipse cx="4.5" cy="4.1566" rx="4.5" ry="4.1566" transform="matrix(-1 0 0 1 49.0781 1231.36)" fill="#868686"/>
<ellipse cx="8" cy="7.38952" rx="8" ry="7.38952" transform="matrix(-1 0 0 1 43.0781 1151.92)" fill="#868686"/>
<ellipse cx="20" cy="18.4738" rx="20" ry="18.4738" transform="matrix(-1 0 0 1 100.078 1143.61)" fill="#868686"/>
<ellipse cx="10.5" cy="9.69874" rx="10.5" ry="9.69874" transform="matrix(-1 0 0 1 105.078 1064.17)" fill="#868686"/>
<ellipse cx="17" cy="15.7027" rx="17" ry="15.7027" transform="matrix(-1 0 0 1 57.0781 954.252)" fill="#868686"/>
<ellipse cx="6" cy="5.54214" rx="6" ry="5.54214" transform="matrix(-1 0 0 1 97.0791 1005.06)" fill="#868686"/>
<rect width="104" height="383.331" transform="matrix(-1 0 0 1 115.007 1063.03)" fill="#767676"/>
<ellipse cx="8.5" cy="7.85136" rx="8.5" ry="7.85136" transform="matrix(-1 0 0 1 91.0068 1341.99)" fill="#868686"/>
<ellipse cx="4.5" cy="4.1566" rx="4.5" ry="4.1566" transform="matrix(-1 0 0 1 49.0068 1373.39)" fill="#868686"/>
<ellipse cx="8" cy="7.38952" rx="8" ry="7.38952" transform="matrix(-1 0 0 1 43.0068 1293.96)" fill="#868686"/>
<ellipse cx="20" cy="18.4738" rx="20" ry="18.4738" transform="matrix(-1 0 0 1 100.007 1285.64)" fill="#868686"/>
<ellipse cx="10.5" cy="9.69874" rx="10.5" ry="9.69874" transform="matrix(-1 0 0 1 105.007 1206.2)" fill="#868686"/>
<ellipse cx="17" cy="15.7027" rx="17" ry="15.7027" transform="matrix(-1 0 0 1 57.0068 1096.29)" fill="#868686"/>
<ellipse cx="6" cy="5.54214" rx="6" ry="5.54214" transform="matrix(-1 0 0 1 97.0078 1147.09)" fill="#868686"/>
<rect width="104" height="383.331" transform="matrix(-1 0 0 1 115.001 547.027)" fill="#767676"/>
<ellipse cx="8.5" cy="7.85136" rx="8.5" ry="7.85136" transform="matrix(-1 0 0 1 91.001 825.981)" fill="#868686"/>
<ellipse cx="4.5" cy="4.1566" rx="4.5" ry="4.1566" transform="matrix(-1 0 0 1 49.001 857.387)" fill="#868686"/>
<ellipse cx="8" cy="7.38952" rx="8" ry="7.38952" transform="matrix(-1 0 0 1 43.001 777.95)" fill="#868686"/>
<ellipse cx="20" cy="18.4738" rx="20" ry="18.4738" transform="matrix(-1 0 0 1 100.001 769.637)" fill="#868686"/>
<ellipse cx="10.5" cy="9.69874" rx="10.5" ry="9.69874" transform="matrix(-1 0 0 1 105.001 690.199)" fill="#868686"/>
<ellipse cx="17" cy="15.7027" rx="17" ry="15.7027" transform="matrix(-1 0 0 1 57.001 580.28)" fill="#868686"/>
<ellipse cx="6" cy="5.54214" rx="6" ry="5.54214" transform="matrix(-1 0 0 1 97.002 631.083)" fill="#868686"/>
<rect width="104" height="383.331" transform="matrix(-1 0 0 1 115.071 54)" fill="#767676"/>
<ellipse cx="8.5" cy="7.85136" rx="8.5" ry="7.85136" transform="matrix(-1 0 0 1 91.0713 332.954)" fill="#868686"/>
<ellipse cx="4.5" cy="4.1566" rx="4.5" ry="4.1566" transform="matrix(-1 0 0 1 49.0713 364.359)" fill="#868686"/>
<ellipse cx="8" cy="7.38952" rx="8" ry="7.38952" transform="matrix(-1 0 0 1 43.0713 284.922)" fill="#868686"/>
<ellipse cx="20" cy="18.4738" rx="20" ry="18.4738" transform="matrix(-1 0 0 1 100.071 276.609)" fill="#868686"/>
<ellipse cx="10.5" cy="9.69874" rx="10.5" ry="9.69874" transform="matrix(-1 0 0 1 105.071 197.172)" fill="#868686"/>
<ellipse cx="17" cy="15.7027" rx="17" ry="15.7027" transform="matrix(-1 0 0 1 57.0713 87.2524)" fill="#868686"/>
<ellipse cx="6" cy="5.54214" rx="6" ry="5.54214" transform="matrix(-1 0 0 1 97.0723 138.056)" fill="#868686"/>
<rect width="104" height="383.331" transform="matrix(-1 0 0 1 115 196.033)" fill="#767676"/>
<ellipse cx="8.5" cy="7.85136" rx="8.5" ry="7.85136" transform="matrix(-1 0 0 1 91 474.987)" fill="#868686"/>
<ellipse cx="4.5" cy="4.1566" rx="4.5" ry="4.1566" transform="matrix(-1 0 0 1 49 506.393)" fill="#868686"/>
<ellipse cx="8" cy="7.38952" rx="8" ry="7.38952" transform="matrix(-1 0 0 1 43 426.955)" fill="#868686"/>
<ellipse cx="20" cy="18.4738" rx="20" ry="18.4738" transform="matrix(-1 0 0 1 100 418.643)" fill="#868686"/>
<ellipse cx="10.5" cy="9.69874" rx="10.5" ry="9.69874" transform="matrix(-1 0 0 1 105 339.205)" fill="#868686"/>
<ellipse cx="17" cy="15.7027" rx="17" ry="15.7027" transform="matrix(-1 0 0 1 57 229.286)" fill="#868686"/>
<ellipse cx="6" cy="5.54214" rx="6" ry="5.54214" transform="matrix(-1 0 0 1 97.001 280.089)" fill="#868686"/>
<rect width="104" height="383.331" transform="matrix(-1 0 0 1 115.071 0)" fill="#767676"/>
<ellipse cx="8.5" cy="7.85136" rx="8.5" ry="7.85136" transform="matrix(-1 0 0 1 91.0713 278.954)" fill="#868686"/>
<ellipse cx="4.5" cy="4.1566" rx="4.5" ry="4.1566" transform="matrix(-1 0 0 1 49.0713 310.359)" fill="#868686"/>
<ellipse cx="8" cy="7.38952" rx="8" ry="7.38952" transform="matrix(-1 0 0 1 43.0713 230.922)" fill="#868686"/>
<ellipse cx="20" cy="18.4738" rx="20" ry="18.4738" transform="matrix(-1 0 0 1 100.071 222.609)" fill="#868686"/>
<ellipse cx="10.5" cy="9.69874" rx="10.5" ry="9.69874" transform="matrix(-1 0 0 1 105.071 143.172)" fill="#868686"/>
<ellipse cx="17" cy="15.7027" rx="17" ry="15.7027" transform="matrix(-1 0 0 1 57.0713 33.2524)" fill="#868686"/>
<ellipse cx="6" cy="5.54214" rx="6" ry="5.54214" transform="matrix(-1 0 0 1 97.0723 84.0557)" fill="#868686"/>
<rect width="104" height="383.331" transform="matrix(-1 0 0 1 115 142.033)" fill="#767676"/>
<ellipse cx="8.5" cy="7.85136" rx="8.5" ry="7.85136" transform="matrix(-1 0 0 1 91 420.987)" fill="#868686"/>
<ellipse cx="4.5" cy="4.1566" rx="4.5" ry="4.1566" transform="matrix(-1 0 0 1 49 452.393)" fill="#868686"/>
<ellipse cx="8" cy="7.38952" rx="8" ry="7.38952" transform="matrix(-1 0 0 1 43 372.955)" fill="#868686"/>
<ellipse cx="20" cy="18.4738" rx="20" ry="18.4738" transform="matrix(-1 0 0 1 100 364.643)" fill="#868686"/>
<ellipse cx="10.5" cy="9.69874" rx="10.5" ry="9.69874" transform="matrix(-1 0 0 1 105 285.205)" fill="#868686"/>
<ellipse cx="17" cy="15.7027" rx="17" ry="15.7027" transform="matrix(-1 0 0 1 57 175.286)" fill="#868686"/>
<ellipse cx="6" cy="5.54214" rx="6" ry="5.54214" transform="matrix(-1 0 0 1 97.001 226.089)" fill="#868686"/>
</svg>
