<svg width="853" height="9059" viewBox="0 0 853 9059" fill="none" xmlns="http://www.w3.org/2000/svg">
<path d="M0 8628.86V0H853V8628.86C853 9173.64 0.00034252 9228.38 0 8628.86Z" fill="#170D00"/>
<path d="M74.4688 5283.85V7306.7L150.721 7447.99V8447.36L289.361 8940.15C289.361 8940.15 428.001 9012.52 545.845 8940.15L691.417 8437.02V7441.1L778.067 7289.47V5283.85H74.4688Z" fill="#D8AB39"/>
<path d="M268.571 7668.54L195.785 7754.7V8309.52C195.785 8309.52 265.105 8412.9 268.571 8409.45C272.037 8406.01 268.571 7668.54 268.571 7668.54Z" fill="#776C68"/>
<path d="M459.199 7668.54H407.209V8409.45H459.199V7668.54Z" fill="#776C68"/>
<path d="M600.645 7669.3L660.226 7755.45V8310.27C660.226 8310.27 603.487 8413.65 600.645 8410.21C597.803 8406.76 600.645 7669.3 600.645 7669.3Z" fill="#776C68"/>
<path d="M150.722 8447.35C150.722 8447.35 400.274 8564.52 691.418 8447.35L545.846 8940.14C545.846 8940.14 417.604 9022.85 289.362 8940.14L150.722 8447.35Z" fill="#D00005"/>
<rect x="74.4688" y="3661.7" width="704.064" height="2793.34" fill="#767676"/>
<path d="M632.98 8530.44C614.025 8549.28 568.667 8558.48 548.357 8560.72L446.81 8947.75C473.889 8945.06 507.738 8928.68 521.278 8920.83L632.98 8530.44Z" fill="#DB3D41"/>
<rect x="74.4688" y="3671.7" width="704.064" height="2793.34" fill="#767676"/>
<ellipse cx="687.544" cy="5705.21" rx="57.5436" ry="57.213" fill="#868686"/>
<ellipse cx="183.464" cy="5963.29" rx="30.4643" ry="30.2892" fill="#868686"/>
<ellipse cx="257.159" cy="5407.85" rx="54.1587" ry="53.8475" fill="#868686"/>
<ellipse cx="459.397" cy="5219.62" rx="135.397" ry="134.619" fill="#868686"/>
<ellipse cx="616.083" cy="4785.67" rx="71.0833" ry="70.6749" fill="#868686"/>
<ellipse cx="257.087" cy="4028.43" rx="115.087" ry="114.426" fill="#868686"/>
<ellipse cx="629.619" cy="4325.39" rx="40.619" ry="40.3856" fill="#868686"/>
<rect x="74" width="704.064" height="2793.34" fill="#767676"/>
<ellipse cx="294.02" cy="2168.96" rx="57.5436" ry="57.213" fill="#868686"/>
<ellipse cx="551.273" cy="2370.89" rx="30.4643" ry="30.2892" fill="#868686"/>
<ellipse cx="615.588" cy="1815.58" rx="54.1587" ry="53.8475" fill="#868686"/>
<ellipse cx="310.948" cy="1835.78" rx="135.397" ry="134.619" fill="#868686"/>
<ellipse cx="212.781" cy="1192.97" rx="71.0833" ry="70.6749" fill="#868686"/>
<ellipse cx="409.087" cy="435.426" rx="115.087" ry="114.426" fill="#868686"/>
<ellipse cx="236.475" cy="731.901" rx="40.619" ry="40.3856" fill="#868686"/>
<rect x="74.4688" y="1114" width="704.064" height="2793.34" fill="#767676"/>
<ellipse cx="283.544" cy="3729.21" rx="57.5436" ry="57.213" fill="#868686"/>
<ellipse cx="551.742" cy="3405.89" rx="30.4643" ry="30.2892" fill="#868686"/>
<ellipse cx="237.159" cy="2789.85" rx="54.1587" ry="53.8475" fill="#868686"/>
<ellipse cx="599.397" cy="2871.62" rx="135.397" ry="134.619" fill="#868686"/>
<ellipse cx="213.249" cy="2227.97" rx="71.0833" ry="70.6749" fill="#868686"/>
<ellipse cx="409.087" cy="1470.43" rx="115.087" ry="114.426" fill="#868686"/>
<ellipse cx="236.943" cy="1766.9" rx="40.619" ry="40.3856" fill="#868686"/>
</svg>
