<svg width="128" height="3893" viewBox="0 0 128 3893" fill="none" xmlns="http://www.w3.org/2000/svg">
<path d="M127.33 3833.7V0H0.989296V3833.7C0.989296 3908.67 127.33 3916.2 127.33 3833.7Z" fill="#170D00"/>
<path d="M116 3364.64V3642.23L104.737 3661.62V3798.77L84.2574 3866.39C84.2574 3866.39 63.7784 3876.32 46.3712 3866.39L24.8682 3797.35V3660.68L12.0687 3639.87V3364.64H116Z" fill="#D8AB39"/>
<path d="M87.3266 3691.89L98.0781 3703.71V3779.85C98.0781 3779.85 87.8386 3794.04 87.3266 3793.56C86.8146 3793.09 87.3266 3691.89 87.3266 3691.89Z" fill="#776C68"/>
<path d="M59.169 3691.89H66.8486V3793.56H59.169V3691.89Z" fill="#776C68"/>
<path d="M38.2763 3691.99L29.4754 3703.82V3779.95C29.4754 3779.95 37.8565 3794.14 38.2763 3793.67C38.6961 3793.19 38.2763 3691.99 38.2763 3691.99Z" fill="#776C68"/>
<path d="M104.736 3798.76C104.736 3798.76 67.874 3814.84 24.868 3798.76L46.371 3866.39C46.371 3866.39 65.3141 3877.74 84.2573 3866.39L104.736 3798.76Z" fill="#D00005"/>
<rect width="104" height="383.331" transform="matrix(-1 0 0 1 116 3142.03)" fill="#767676"/>
<path d="M33.498 3808.93C36.298 3811.52 42.998 3812.78 45.998 3813.09L60.998 3866.2C56.998 3865.83 51.998 3863.58 49.998 3862.51L33.498 3808.93Z" fill="#DB3D41"/>
<rect width="104" height="383.331" transform="matrix(-1 0 0 1 116 3142.03)" fill="#767676"/>
<ellipse cx="8.5" cy="7.85136" rx="8.5" ry="7.85136" transform="matrix(-1 0 0 1 33.9395 3413.24)" fill="#868686"/>
<ellipse cx="4.5" cy="4.1566" rx="4.5" ry="4.1566" transform="matrix(-1 0 0 1 104.4 3452.35)" fill="#868686"/>
<ellipse cx="8" cy="7.38952" rx="8" ry="7.38952" transform="matrix(-1 0 0 1 97.0137 3372.89)" fill="#868686"/>
<ellipse cx="20" cy="18.4738" rx="20" ry="18.4738" transform="matrix(-1 0 0 1 79.1396 3335.98)" fill="#868686"/>
<ellipse cx="10.5" cy="9.69874" rx="10.5" ry="9.69874" transform="matrix(-1 0 0 1 46.4961 3285.2)" fill="#868686"/>
<ellipse cx="17" cy="15.7027" rx="17" ry="15.7027" transform="matrix(-1 0 0 1 106.023 3175.28)" fill="#868686"/>
<ellipse cx="6" cy="5.54214" rx="6" ry="5.54214" transform="matrix(-1 0 0 1 39.9961 3226.19)" fill="#868686"/>
<rect width="104" height="383.331" transform="matrix(-1 0 0 1 116.079 2633)" fill="#767676"/>
<ellipse cx="8.5" cy="7.85136" rx="8.5" ry="7.85136" transform="matrix(-1 0 0 1 92.0791 2911.95)" fill="#868686"/>
<ellipse cx="4.5" cy="4.1566" rx="4.5" ry="4.1566" transform="matrix(-1 0 0 1 50.0791 2943.36)" fill="#868686"/>
<ellipse cx="8" cy="7.38952" rx="8" ry="7.38952" transform="matrix(-1 0 0 1 44.0791 2863.92)" fill="#868686"/>
<ellipse cx="20" cy="18.4738" rx="20" ry="18.4738" transform="matrix(-1 0 0 1 101.079 2855.61)" fill="#868686"/>
<ellipse cx="10.5" cy="9.69874" rx="10.5" ry="9.69874" transform="matrix(-1 0 0 1 106.079 2776.17)" fill="#868686"/>
<ellipse cx="17" cy="15.7027" rx="17" ry="15.7027" transform="matrix(-1 0 0 1 83.582 2666.21)" fill="#868686"/>
<ellipse cx="6" cy="5.54214" rx="6" ry="5.54214" transform="matrix(-1 0 0 1 98.0801 2717.06)" fill="#868686"/>
<rect width="104" height="383.331" transform="matrix(-1 0 0 1 116.011 2775.03)" fill="#767676"/>
<ellipse cx="8.5" cy="7.85136" rx="8.5" ry="7.85136" transform="matrix(-1 0 0 1 93.6279 3126.07)" fill="#868686"/>
<ellipse cx="4.5" cy="4.1566" rx="4.5" ry="4.1566" transform="matrix(-1 0 0 1 50.0107 3085.39)" fill="#868686"/>
<ellipse cx="8" cy="7.38952" rx="8" ry="7.38952" transform="matrix(-1 0 0 1 99.9795 2997.62)" fill="#868686"/>
<ellipse cx="20" cy="18.4738" rx="20" ry="18.4738" transform="matrix(-1 0 0 1 58.4707 2997.76)" fill="#868686"/>
<ellipse cx="10.5" cy="9.69874" rx="10.5" ry="9.69874" transform="matrix(-1 0 0 1 106.01 2918.21)" fill="#868686"/>
<ellipse cx="17" cy="15.7027" rx="17" ry="15.7027" transform="matrix(-1 0 0 1 83.582 2808.24)" fill="#868686"/>
<ellipse cx="6" cy="5.54214" rx="6" ry="5.54214" transform="matrix(-1 0 0 1 98.0107 2859.09)" fill="#868686"/>
<rect width="104" height="383.331" transform="matrix(-1 0 0 1 116.003 2266.03)" fill="#767676"/>
<ellipse cx="8.5" cy="7.85136" rx="8.5" ry="7.85136" transform="matrix(-1 0 0 1 33.9424 2537.24)" fill="#868686"/>
<ellipse cx="4.5" cy="4.1566" rx="4.5" ry="4.1566" transform="matrix(-1 0 0 1 104.403 2576.35)" fill="#868686"/>
<ellipse cx="8" cy="7.38952" rx="8" ry="7.38952" transform="matrix(-1 0 0 1 97.0166 2496.89)" fill="#868686"/>
<ellipse cx="20" cy="18.4738" rx="20" ry="18.4738" transform="matrix(-1 0 0 1 79.1426 2459.98)" fill="#868686"/>
<ellipse cx="10.5" cy="9.69874" rx="10.5" ry="9.69874" transform="matrix(-1 0 0 1 46.499 2409.2)" fill="#868686"/>
<ellipse cx="17" cy="15.7027" rx="17" ry="15.7027" transform="matrix(-1 0 0 1 106.026 2299.28)" fill="#868686"/>
<ellipse cx="6" cy="5.54214" rx="6" ry="5.54214" transform="matrix(-1 0 0 1 39.999 2350.19)" fill="#868686"/>
<rect width="104" height="383.331" transform="matrix(-1 0 0 1 116.071 1773)" fill="#767676"/>
<ellipse cx="8.5" cy="7.85136" rx="8.5" ry="7.85136" transform="matrix(-1 0 0 1 92.0713 2051.95)" fill="#868686"/>
<ellipse cx="4.5" cy="4.1566" rx="4.5" ry="4.1566" transform="matrix(-1 0 0 1 50.0713 2083.36)" fill="#868686"/>
<ellipse cx="8" cy="7.38952" rx="8" ry="7.38952" transform="matrix(-1 0 0 1 44.0713 2003.92)" fill="#868686"/>
<ellipse cx="20" cy="18.4738" rx="20" ry="18.4738" transform="matrix(-1 0 0 1 101.071 1995.61)" fill="#868686"/>
<ellipse cx="10.5" cy="9.69874" rx="10.5" ry="9.69874" transform="matrix(-1 0 0 1 106.071 1916.17)" fill="#868686"/>
<ellipse cx="17" cy="15.7027" rx="17" ry="15.7027" transform="matrix(-1 0 0 1 83.5742 1806.21)" fill="#868686"/>
<ellipse cx="6" cy="5.54214" rx="6" ry="5.54214" transform="matrix(-1 0 0 1 98.0723 1857.06)" fill="#868686"/>
<rect width="104" height="383.331" transform="matrix(-1 0 0 1 116.003 1915.03)" fill="#767676"/>
<ellipse cx="8.5" cy="7.85136" rx="8.5" ry="7.85136" transform="matrix(-1 0 0 1 93.6201 2266.07)" fill="#868686"/>
<ellipse cx="4.5" cy="4.1566" rx="4.5" ry="4.1566" transform="matrix(-1 0 0 1 50.0029 2225.39)" fill="#868686"/>
<ellipse cx="8" cy="7.38952" rx="8" ry="7.38952" transform="matrix(-1 0 0 1 99.9717 2137.62)" fill="#868686"/>
<ellipse cx="20" cy="18.4738" rx="20" ry="18.4738" transform="matrix(-1 0 0 1 58.4629 2137.76)" fill="#868686"/>
<ellipse cx="10.5" cy="9.69874" rx="10.5" ry="9.69874" transform="matrix(-1 0 0 1 106.002 2058.21)" fill="#868686"/>
<ellipse cx="17" cy="15.7027" rx="17" ry="15.7027" transform="matrix(-1 0 0 1 83.5742 1948.24)" fill="#868686"/>
<ellipse cx="6" cy="5.54214" rx="6" ry="5.54214" transform="matrix(-1 0 0 1 98.0029 1999.09)" fill="#868686"/>
<rect width="104" height="383.331" transform="matrix(-1 0 0 1 116.009 1390.03)" fill="#767676"/>
<ellipse cx="8.5" cy="7.85136" rx="8.5" ry="7.85136" transform="matrix(-1 0 0 1 33.9482 1661.24)" fill="#868686"/>
<ellipse cx="4.5" cy="4.1566" rx="4.5" ry="4.1566" transform="matrix(-1 0 0 1 104.409 1700.35)" fill="#868686"/>
<ellipse cx="8" cy="7.38952" rx="8" ry="7.38952" transform="matrix(-1 0 0 1 97.0225 1620.89)" fill="#868686"/>
<ellipse cx="20" cy="18.4738" rx="20" ry="18.4738" transform="matrix(-1 0 0 1 79.1484 1583.98)" fill="#868686"/>
<ellipse cx="10.5" cy="9.69874" rx="10.5" ry="9.69874" transform="matrix(-1 0 0 1 46.5049 1533.2)" fill="#868686"/>
<ellipse cx="17" cy="15.7027" rx="17" ry="15.7027" transform="matrix(-1 0 0 1 106.032 1423.28)" fill="#868686"/>
<ellipse cx="6" cy="5.54214" rx="6" ry="5.54214" transform="matrix(-1 0 0 1 40.0049 1474.19)" fill="#868686"/>
<rect width="104" height="383.331" transform="matrix(-1 0 0 1 116.077 897)" fill="#767676"/>
<ellipse cx="8.5" cy="7.85136" rx="8.5" ry="7.85136" transform="matrix(-1 0 0 1 92.0771 1175.95)" fill="#868686"/>
<ellipse cx="4.5" cy="4.1566" rx="4.5" ry="4.1566" transform="matrix(-1 0 0 1 50.0771 1207.36)" fill="#868686"/>
<ellipse cx="8" cy="7.38952" rx="8" ry="7.38952" transform="matrix(-1 0 0 1 44.0771 1127.92)" fill="#868686"/>
<ellipse cx="20" cy="18.4738" rx="20" ry="18.4738" transform="matrix(-1 0 0 1 101.077 1119.61)" fill="#868686"/>
<ellipse cx="10.5" cy="9.69874" rx="10.5" ry="9.69874" transform="matrix(-1 0 0 1 106.077 1040.17)" fill="#868686"/>
<ellipse cx="17" cy="15.7027" rx="17" ry="15.7027" transform="matrix(-1 0 0 1 83.5801 930.21)" fill="#868686"/>
<ellipse cx="6" cy="5.54214" rx="6" ry="5.54214" transform="matrix(-1 0 0 1 98.0781 981.056)" fill="#868686"/>
<rect width="104" height="383.331" transform="matrix(-1 0 0 1 116.009 1039.03)" fill="#767676"/>
<ellipse cx="8.5" cy="7.85136" rx="8.5" ry="7.85136" transform="matrix(-1 0 0 1 93.626 1390.07)" fill="#868686"/>
<ellipse cx="4.5" cy="4.1566" rx="4.5" ry="4.1566" transform="matrix(-1 0 0 1 50.0088 1349.39)" fill="#868686"/>
<ellipse cx="8" cy="7.38952" rx="8" ry="7.38952" transform="matrix(-1 0 0 1 99.9775 1261.62)" fill="#868686"/>
<ellipse cx="20" cy="18.4738" rx="20" ry="18.4738" transform="matrix(-1 0 0 1 58.4688 1261.76)" fill="#868686"/>
<ellipse cx="10.5" cy="9.69874" rx="10.5" ry="9.69874" transform="matrix(-1 0 0 1 106.008 1182.21)" fill="#868686"/>
<ellipse cx="17" cy="15.7027" rx="17" ry="15.7027" transform="matrix(-1 0 0 1 83.5801 1072.24)" fill="#868686"/>
<ellipse cx="6" cy="5.54214" rx="6" ry="5.54214" transform="matrix(-1 0 0 1 98.0088 1123.09)" fill="#868686"/>
<rect width="104" height="383.331" transform="matrix(-1 0 0 1 116.012 482.027)" fill="#767676"/>
<ellipse cx="8.5" cy="7.85136" rx="8.5" ry="7.85136" transform="matrix(-1 0 0 1 33.9512 753.236)" fill="#868686"/>
<ellipse cx="4.5" cy="4.1566" rx="4.5" ry="4.1566" transform="matrix(-1 0 0 1 104.412 792.347)" fill="#868686"/>
<ellipse cx="8" cy="7.38952" rx="8" ry="7.38952" transform="matrix(-1 0 0 1 97.0254 712.891)" fill="#868686"/>
<ellipse cx="20" cy="18.4738" rx="20" ry="18.4738" transform="matrix(-1 0 0 1 79.1514 675.976)" fill="#868686"/>
<ellipse cx="10.5" cy="9.69874" rx="10.5" ry="9.69874" transform="matrix(-1 0 0 1 46.5078 625.2)" fill="#868686"/>
<ellipse cx="17" cy="15.7027" rx="17" ry="15.7027" transform="matrix(-1 0 0 1 106.035 515.279)" fill="#868686"/>
<ellipse cx="6" cy="5.54214" rx="6" ry="5.54214" transform="matrix(-1 0 0 1 40.0078 566.191)" fill="#868686"/>
<rect width="104" height="383.331" transform="matrix(-1 0 0 1 116.011 621)" fill="#767676"/>
<ellipse cx="8.5" cy="7.85136" rx="8.5" ry="7.85136" transform="matrix(-1 0 0 1 33.9502 892.209)" fill="#868686"/>
<ellipse cx="4.5" cy="4.1566" rx="4.5" ry="4.1566" transform="matrix(-1 0 0 1 104.411 931.32)" fill="#868686"/>
<ellipse cx="8" cy="7.38952" rx="8" ry="7.38952" transform="matrix(-1 0 0 1 97.0244 851.863)" fill="#868686"/>
<ellipse cx="20" cy="18.4738" rx="20" ry="18.4738" transform="matrix(-1 0 0 1 79.1504 814.948)" fill="#868686"/>
<ellipse cx="10.5" cy="9.69874" rx="10.5" ry="9.69874" transform="matrix(-1 0 0 1 46.5068 764.173)" fill="#868686"/>
<ellipse cx="17" cy="15.7027" rx="17" ry="15.7027" transform="matrix(-1 0 0 1 106.034 654.252)" fill="#868686"/>
<ellipse cx="6" cy="5.54214" rx="6" ry="5.54214" transform="matrix(-1 0 0 1 40.0068 705.164)" fill="#868686"/>
<rect width="104" height="383.331" transform="matrix(-1 0 0 1 116.08 0)" fill="#767676"/>
<ellipse cx="8.5" cy="7.85136" rx="8.5" ry="7.85136" transform="matrix(-1 0 0 1 92.0801 278.954)" fill="#868686"/>
<ellipse cx="4.5" cy="4.1566" rx="4.5" ry="4.1566" transform="matrix(-1 0 0 1 50.0801 310.36)" fill="#868686"/>
<ellipse cx="8" cy="7.38952" rx="8" ry="7.38952" transform="matrix(-1 0 0 1 44.0801 230.922)" fill="#868686"/>
<ellipse cx="20" cy="18.4738" rx="20" ry="18.4738" transform="matrix(-1 0 0 1 101.08 222.609)" fill="#868686"/>
<ellipse cx="10.5" cy="9.69874" rx="10.5" ry="9.69874" transform="matrix(-1 0 0 1 106.08 143.172)" fill="#868686"/>
<ellipse cx="17" cy="15.7027" rx="17" ry="15.7027" transform="matrix(-1 0 0 1 83.583 33.21)" fill="#868686"/>
<ellipse cx="6" cy="5.54214" rx="6" ry="5.54214" transform="matrix(-1 0 0 1 98.0811 84.0557)" fill="#868686"/>
<rect width="104" height="383.331" transform="matrix(-1 0 0 1 116.012 142.033)" fill="#767676"/>
<ellipse cx="8.5" cy="7.85136" rx="8.5" ry="7.85136" transform="matrix(-1 0 0 1 93.6289 493.068)" fill="#868686"/>
<ellipse cx="4.5" cy="4.1566" rx="4.5" ry="4.1566" transform="matrix(-1 0 0 1 50.0117 452.393)" fill="#868686"/>
<ellipse cx="8" cy="7.38952" rx="8" ry="7.38952" transform="matrix(-1 0 0 1 99.9805 364.621)" fill="#868686"/>
<ellipse cx="20" cy="18.4738" rx="20" ry="18.4738" transform="matrix(-1 0 0 1 58.4717 364.758)" fill="#868686"/>
<ellipse cx="10.5" cy="9.69874" rx="10.5" ry="9.69874" transform="matrix(-1 0 0 1 106.011 285.205)" fill="#868686"/>
<ellipse cx="17" cy="15.7027" rx="17" ry="15.7027" transform="matrix(-1 0 0 1 83.583 175.243)" fill="#868686"/>
<ellipse cx="6" cy="5.54214" rx="6" ry="5.54214" transform="matrix(-1 0 0 1 98.0117 226.089)" fill="#868686"/>
</svg>
