<svg width="126" height="3893" viewBox="0 0 126 3893" fill="none" xmlns="http://www.w3.org/2000/svg">
<path d="M0 3852.73V0H126V3852.73C126 3903.87 0 3908.92 0 3852.73Z" fill="black"/>
<path d="M107 2800.69H20V3696.97H107V2800.69Z" fill="black"/>
<path d="M16 3699.48L20.1304 3695H106.87L111 3699.48V3744.88L106.87 3750H20.1304L16 3744.88V3699.48Z" fill="#333333"/>
<path d="M27 0H22V3693.95H27V0Z" fill="#2E3032"/>
<path d="M107 0H102V3693.95H107V0Z" fill="#2E3032"/>
<path d="M14 3759H113V3836.41L109.143 3855.17L102.226 3863H26.7929L17.8571 3852.94L14 3835.82V3759Z" fill="#717173"/>
<path d="M100 3759H27V3863H100V3759Z" fill="#535255"/>
<path d="M87 3759H41V3863H87V3759Z" fill="#3A3A3C"/>
<path d="M96 3759H78V3863H96V3759Z" fill="#9E9E9E"/>
<path d="M107 3750H20V3760H107V3750Z" fill="#535255"/>
<path d="M47.9329 3606.54L49.4779 3605H55.5529L56.6029 3606.05V3604.85H57.2779V3608.6H56.6029V3606.98L55.2229 3605.6H51.3829V3616.4H53.2579L54.3829 3615.27V3611.45H53.1829V3610.85H58.8079V3611.45H57.7579V3617H55.8529L54.7279 3615.86L53.5879 3617H49.4779L47.9329 3615.45V3606.54ZM61.4023 3617L60.0073 3615.6V3609.39L61.4023 3608H67.1623L68.5573 3609.39V3611.85L67.1623 3613.25H63.4573V3616.4H66.9073L68.1673 3615.14L68.6323 3615.6L67.2373 3617H61.4023ZM63.4573 3608.6V3612.65H65.1073V3608.6H63.4573ZM78.5197 3609.54V3615.45L76.9747 3617H71.4547L69.9097 3615.45V3609.54L71.4547 3608H76.9747L78.5197 3609.54ZM73.5097 3608.6V3616.4H74.9197V3608.6H73.5097ZM46.8413 3635.6H45.8363L42.4913 3647H38.9063L35.5613 3635.6H34.5563V3635H40.7663V3635.6H39.1463L42.1313 3645.77L45.1163 3635.6H43.4963V3635H46.8413V3635.6ZM50.0193 3636.8L47.7393 3634.5L50.0343 3632.22L52.3143 3634.52L50.0193 3636.8ZM53.1393 3646.4V3647H49.8843L48.4893 3645.6V3638.6H47.2893V3638H50.5443L51.9393 3639.39V3646.4H53.1393ZM55.0096 3647.15H54.3346V3643.92H55.0096V3645.05L56.3596 3646.4H59.5246L54.4846 3641.06V3639.24L55.7296 3638H60.1546L61.1746 3639.02V3637.85H61.8496V3641.07H61.1746V3639.95L59.8246 3638.6H56.9596L61.9996 3643.94V3645.75L60.7546 3647H56.0296L55.0096 3645.98V3647.15ZM66.0739 3636.8L63.7939 3634.5L66.0889 3632.22L68.3689 3634.52L66.0739 3636.8ZM69.1939 3646.4V3647H65.9389L64.5439 3645.6V3638.6H63.3439V3638H66.5989L67.9939 3639.39V3646.4H69.1939ZM78.8493 3639.54V3645.45L77.3043 3647H71.7843L70.2393 3645.45V3639.54L71.7843 3638H77.3043L78.8493 3639.54ZM73.8393 3638.6V3646.4H75.2493V3638.6H73.8393ZM91.2967 3646.4V3647H87.8917L86.6467 3645.75V3638.6H85.5967L84.5467 3639.65V3646.4H85.2967V3647H79.8967V3646.4H81.0967V3638.6H79.8967V3638H83.1517L84.2167 3639.05L85.2667 3638H88.7017L90.0967 3639.39V3646.4H91.2967Z" fill="white"/>
</svg>
