<svg width="32768" height="1401" viewBox="0 0 32768 1401" fill="none" xmlns="http://www.w3.org/2000/svg">
<g opacity="0.44">
<path d="M10246 1386.72L11553.7 342.329L11150.6 1399.47L10246 1386.72Z" fill="#B06707"/>
<path d="M13114.7 1392.18L11553.7 342.329L11148 1396.97L13114.7 1392.18Z" fill="#C27508"/>
</g>
<g opacity="0.44">
<path d="M0 1386.72L1307.7 342.329L904.635 1399.47L0 1386.72Z" fill="#B06707"/>
<path d="M2868.68 1392.18L1307.7 342.329L902.034 1396.97L2868.68 1392.18Z" fill="#C27508"/>
</g>
<g opacity="0.4">
<path d="M14018.3 1383.37L14947.7 4.78114L14661.2 1400.2L14018.3 1383.37Z" fill="#B06707"/>
<path d="M14599 1382.03L15519.3 282.914L16618.3 1382.03L15235.7 1395.45L14599 1382.03Z" fill="#B06707"/>
<path d="M16057 1390.59L14947.7 4.78114L14659.4 1396.91L16057 1390.59Z" fill="#C27508"/>
</g>
<g opacity="0.4">
<path d="M5129.2 1383.37L6058.56 4.78114L5772.11 1400.2L5129.2 1383.37Z" fill="#B06707"/>
<path d="M5709.91 1382.03L6630.25 282.914L7729.19 1382.03L6346.58 1395.45L5709.91 1382.03Z" fill="#B06707"/>
<path d="M7167.92 1390.59L6058.56 4.78114L5770.26 1396.91L7167.92 1390.59Z" fill="#C27508"/>
</g>
<g opacity="0.44">
<path d="M22128.1 1377.15L23435.8 332.767L23032.7 1389.9L22128.1 1377.15Z" fill="#B06707"/>
<path d="M24996.7 1382.62L23435.8 332.767L23030.1 1387.41L24996.7 1382.62Z" fill="#C27508"/>
</g>
<g opacity="0.44">
<path d="M29899.3 1386.72L31207 342.329L30804 1399.47L29899.3 1386.72Z" fill="#B06707"/>
<path d="M32768 1392.18L31207 342.329L30801.4 1396.97L32768 1392.18Z" fill="#C27508"/>
</g>
<g opacity="0.4">
<path d="M18307 1378.59L19236.3 0L18949.9 1395.42L18307 1378.59Z" fill="#B06707"/>
<path d="M18887.7 1377.25L19808 278.133L20907 1377.25L19524.3 1390.67L18887.7 1377.25Z" fill="#B06707"/>
<path d="M20345.7 1385.8L19236.3 0L18948 1392.13L20345.7 1385.8Z" fill="#C27508"/>
</g>
<g opacity="0.4">
<path d="M25800 1383.37L26729.3 4.78114L26442.9 1400.2L25800 1383.37Z" fill="#B06707"/>
<path d="M26380.7 1382.03L27301 282.914L28400 1382.03L27017.3 1395.45L26380.7 1382.03Z" fill="#B06707"/>
<path d="M27838.7 1390.59L26729.3 4.78114L26441 1396.91L27838.7 1390.59Z" fill="#C27508"/>
</g>
</svg>
