<svg width="23553" height="1465" viewBox="0 0 23553 1465" fill="none" xmlns="http://www.w3.org/2000/svg">
<g opacity="0.44">
<path d="M0 1450.19L1367.56 358L946.046 1463.53L0 1450.19Z" fill="#B06707"/>
<path d="M3000 1455.91L1367.56 358L943.326 1460.92L3000 1455.91Z" fill="#C27508"/>
</g>
<g opacity="0.4">
<path d="M3945 1446.7L4916.9 5L4617.34 1464.3L3945 1446.7Z" fill="#B06707"/>
<path d="M4552.29 1445.29L5514.75 295.865L6664 1445.29L5218.1 1459.33L4552.29 1445.29Z" fill="#B06707"/>
<path d="M6077.05 1454.24L4916.9 5L4615.41 1460.86L6077.05 1454.24Z" fill="#C27508"/>
</g>
<g opacity="0.44">
<path d="M12426 1440.19L13793.6 348L13372 1453.53L12426 1440.19Z" fill="#B06707"/>
<path d="M15426 1445.91L13793.6 348L13369.3 1450.92L15426 1445.91Z" fill="#C27508"/>
</g>
<g opacity="0.44">
<path d="M20553 1450.19L21920.6 358L21499 1463.53L20553 1450.19Z" fill="#B06707"/>
<path d="M23553 1455.91L21920.6 358L21496.3 1460.92L23553 1455.91Z" fill="#C27508"/>
</g>
<g opacity="0.4">
<path d="M8430 1441.7L9401.9 0L9102.34 1459.3L8430 1441.7Z" fill="#B06707"/>
<path d="M9037.29 1440.29L9999.75 290.865L11149 1440.29L9703.1 1454.33L9037.29 1440.29Z" fill="#B06707"/>
<path d="M10562 1449.24L9401.9 0L9100.41 1455.86L10562 1449.24Z" fill="#C27508"/>
</g>
<g opacity="0.4">
<path d="M16266 1446.7L17237.9 5L16938.3 1464.3L16266 1446.7Z" fill="#B06707"/>
<path d="M16873.3 1445.29L17835.8 295.865L18985 1445.29L17539.1 1459.33L16873.3 1445.29Z" fill="#B06707"/>
<path d="M18398 1454.24L17237.9 5L16936.4 1460.86L18398 1454.24Z" fill="#C27508"/>
</g>
</svg>
