<svg width="22957" height="585" viewBox="0 0 22957 585" fill="none" xmlns="http://www.w3.org/2000/svg">
<path d="M424.401 457.177C421.855 457.177 419.349 457.36 416.922 457.603C406.219 442.267 385.092 431.83 360.743 431.83C351.95 431.83 343.595 433.199 335.956 435.664C313.915 413.604 279.141 399.394 240.071 399.394C201.08 399.394 166.466 413.543 144.385 435.482C138.337 433.199 131.574 431.861 124.372 431.861C106.23 431.861 90.6334 440.076 83.4719 451.882C77.9814 450.757 72.2521 450.118 66.3239 450.118C29.6806 450.118 0 472.817 0 500.842C0 528.866 29.6806 551.566 66.3239 551.566C72.4112 551.566 78.2996 550.896 83.8697 549.71C93.3389 562.855 111.641 571.801 132.648 571.801C144.663 571.801 155.764 568.849 164.875 563.889C185.484 576.456 211.624 584.002 240.031 584.002C271.065 584.002 299.353 575.026 320.718 560.329C329.829 565.015 340.77 567.784 352.587 567.784C375.902 567.784 395.914 557.073 404.747 541.768C410.874 543.472 417.439 544.476 424.362 544.476C455.873 544.476 481.376 524.941 481.376 500.872C481.415 476.682 455.912 457.177 424.401 457.177Z" fill="white"/>
<path d="M4288 115.415C4288 92.8674 4264.09 74.58 4234.61 74.58C4233.17 74.58 4231.78 74.6713 4230.35 74.7321C4230.35 74.6713 4230.35 74.6104 4230.35 74.58C4230.35 47.3466 4201.5 25.286 4165.9 25.286C4152.49 25.286 4140.03 28.4201 4129.73 33.7755C4115.13 13.6319 4087.04 0 4054.81 0C4023.38 0 3995.93 12.9625 3981.05 32.2541C3971.06 27.842 3959.48 25.286 3947.15 25.286C3910.07 25.286 3879.99 48.016 3879.35 76.2535C3848.16 82.3088 3825.05 103.913 3825.05 129.686C3825.05 160.114 3857.31 184.792 3897.1 184.792C3899.8 184.792 3902.47 184.67 3905.14 184.457C3915.36 193.372 3930.4 199.002 3947.11 199.002C3963.06 199.002 3977.47 193.859 3987.65 185.644C4003.57 200.462 4027.72 209.925 4054.77 209.925C4075.9 209.925 4095.27 204.144 4110.31 194.559C4123.76 200.158 4139.16 203.353 4155.55 203.353C4196.57 203.353 4231.46 183.392 4244.63 155.489C4269.34 151.898 4288 135.345 4288 115.415Z" fill="white"/>
<path d="M1289.62 201.593C1289.62 179.562 1266.3 161.731 1237.49 161.731C1231.09 161.731 1224.96 162.614 1219.27 164.226C1210.48 148.891 1190.47 138.18 1167.15 138.18C1164.09 138.18 1161.1 138.362 1158.2 138.728C1146.74 119.284 1121.16 105.743 1091.48 105.743C1059.49 105.743 1032.32 121.444 1022.37 143.322C1021.53 143.292 1020.7 143.261 1019.82 143.261C989.347 143.261 964.64 162.157 964.64 185.465C964.64 186.987 964.759 188.478 964.958 189.969C945.702 197.18 932.453 212.303 932.453 229.8C932.453 254.264 958.393 274.103 990.381 274.103C1000.41 274.103 1009.84 272.156 1018.07 268.718C1025.43 275.168 1036.26 279.246 1048.35 279.246C1057.7 279.246 1066.29 276.781 1073.1 272.704C1087.02 281.132 1105.76 286.275 1126.33 286.275C1146.78 286.275 1165.36 281.193 1179.25 272.886C1183.7 273.86 1188.36 274.408 1193.21 274.408C1218.68 274.408 1239.68 259.954 1243.1 241.21C1269.28 239.08 1289.62 222.162 1289.62 201.593Z" fill="white"/>
<path d="M2256.51 464.811C2256.51 452.67 2247.68 442.111 2234.67 436.725C2238.41 431.887 2240.6 426.228 2240.6 420.172C2240.6 402.189 2221.54 387.614 2198.03 387.614C2184.1 387.614 2171.81 392.726 2164.05 400.637C2162.1 400.82 2160.15 401.124 2158.32 401.55C2158.32 401.155 2158.4 400.789 2158.4 400.394C2158.4 379.672 2136.44 362.876 2109.34 362.876C2097.33 362.876 2086.31 366.192 2077.79 371.7C2065.82 350.4 2038.17 335.49 2005.9 335.49C1982.11 335.49 1960.82 343.645 1946.46 356.486C1940.65 354.751 1934.28 353.747 1927.68 353.747C1899.11 353.747 1875.96 371.457 1875.96 393.304C1875.96 394.065 1876.04 394.795 1876.12 395.525C1874.84 395.404 1873.57 395.343 1872.26 395.343C1855.07 395.343 1840.98 405.415 1839.51 418.255C1833.39 412.93 1824.43 409.522 1814.41 409.522C1806.29 409.522 1798.85 411.744 1793.08 415.395C1787.43 411.713 1780.11 409.522 1772.11 409.522C1758.15 409.522 1746.25 416.278 1741.68 425.741C1735.99 422.242 1728.79 420.172 1720.91 420.172C1706.43 420.172 1694.13 427.262 1689.56 437.182C1683.07 434.443 1675.67 432.861 1667.76 432.861C1642.85 432.861 1622.68 448.288 1622.68 467.336C1622.68 486.385 1642.85 501.812 1667.76 501.812C1680.13 501.812 1691.31 498.008 1699.46 491.831C1703.84 505.707 1720.15 516.022 1739.65 516.022C1742.47 516.022 1745.22 515.809 1747.89 515.383C1756 529.38 1774.3 539.117 1795.63 539.117C1811.03 539.117 1824.79 534.005 1834.38 525.911C1841.94 541.247 1861.28 552.171 1883.95 552.171C1896.09 552.171 1907.19 549.037 1916.14 543.803C1923.9 550.375 1935.12 554.544 1947.61 554.544C1952.39 554.544 1956.96 553.905 1961.22 552.81C1968.66 569.484 1989.31 581.504 2013.62 581.504C2041.27 581.504 2064.15 566.016 2068.28 545.75C2078.39 551.866 2091.16 555.548 2105.05 555.548C2127.96 555.548 2147.82 545.598 2157.72 531.023C2159.28 531.114 2160.83 531.205 2162.42 531.205C2190.79 531.205 2214.58 516.356 2221.38 496.274C2241.24 493.9 2256.51 480.725 2256.51 464.811Z" fill="white"/>
<path d="M3409.46 468.741C3409.46 468.71 3409.46 468.68 3409.46 468.619C3409.46 442.998 3382.28 422.216 3348.78 422.216C3320.06 422.216 3296.07 437.491 3289.78 458C3283.81 454.652 3276.49 452.644 3268.49 452.644C3265.31 452.644 3262.21 453.009 3259.26 453.587C3250.19 448.232 3238.85 445.037 3226.56 445.037C3196.88 445.037 3172.85 463.416 3172.85 486.115C3172.85 486.42 3172.89 486.693 3172.89 486.998C3165.53 492.018 3160.91 499.291 3160.91 507.415C3160.91 522.538 3176.95 534.801 3196.72 534.801C3205.23 534.801 3213.03 532.519 3219.2 528.715C3218.84 530.237 3218.6 531.788 3218.6 533.401C3218.6 547.611 3233.68 559.143 3252.26 559.143C3261.65 559.143 3270.13 556.192 3276.21 551.445C3279.12 552.997 3282.66 553.94 3286.52 553.94C3290.62 553.94 3294.36 552.845 3297.42 551.08C3303.55 556.04 3312.22 559.143 3321.85 559.143C3328.97 559.143 3335.61 557.439 3341.02 554.549C3347.43 557.47 3354.87 559.143 3362.83 559.143C3381.65 559.143 3397.56 549.863 3403.29 536.961C3404.4 537.022 3405.48 537.083 3406.59 537.083C3431.3 537.083 3451.35 521.747 3451.35 502.851C3451.35 484.716 3432.85 469.897 3409.46 468.741Z" fill="white"/>
<path d="M2722.2 160.423C2722.6 158.658 2722.84 156.863 2722.84 155.037C2722.84 137.054 2703.78 122.479 2680.27 122.479C2676.13 122.479 2672.11 122.966 2668.33 123.787C2656.48 112.772 2638.49 105.743 2618.4 105.743C2586.49 105.743 2560.07 123.422 2554.78 146.669C2544.68 151.477 2537.91 159.997 2537.91 169.764C2537.91 169.795 2537.91 169.825 2537.91 169.886C2521.16 170.982 2507.99 181.723 2507.99 194.807C2507.99 207.922 2521.2 218.693 2537.99 219.758C2543.96 230.226 2557.61 237.528 2573.48 237.528C2586.89 237.528 2598.67 232.325 2605.63 224.414C2613.63 231.838 2625.76 236.585 2639.37 236.585C2651.34 236.585 2662.21 232.873 2670.12 226.909C2677.88 230.621 2687.03 232.782 2696.9 232.782C2724.91 232.782 2747.63 215.407 2747.63 193.985C2747.59 179.654 2737.36 167.148 2722.2 160.423Z" fill="white"/>
<path d="M5137.4 457.177C5134.86 457.177 5132.35 457.36 5129.92 457.603C5119.22 442.267 5098.09 431.83 5073.74 431.83C5064.95 431.83 5056.6 433.199 5048.96 435.664C5026.91 413.604 4992.14 399.394 4953.07 399.394C4914.08 399.394 4879.47 413.543 4857.38 435.482C4851.34 433.199 4844.57 431.861 4837.37 431.861C4819.23 431.861 4803.63 440.076 4796.47 451.882C4790.98 450.757 4785.25 450.118 4779.32 450.118C4742.68 450.118 4713 472.817 4713 500.842C4713 528.866 4742.68 551.566 4779.32 551.566C4785.41 551.566 4791.3 550.896 4796.87 549.71C4806.34 562.855 4824.64 571.801 4845.65 571.801C4857.66 571.801 4868.76 568.849 4877.87 563.889C4898.48 576.456 4924.62 584.002 4953.03 584.002C4984.06 584.002 5012.35 575.026 5033.72 560.329C5042.83 565.015 5053.77 567.784 5065.59 567.784C5088.9 567.784 5108.91 557.073 5117.75 541.768C5123.87 543.472 5130.44 544.476 5137.36 544.476C5168.87 544.476 5194.38 524.941 5194.38 500.872C5194.42 476.682 5168.91 457.177 5137.4 457.177Z" fill="white"/>
<path d="M9001 115.415C9001 92.8674 8977.09 74.58 8947.61 74.58C8946.17 74.58 8944.78 74.6713 8943.35 74.7321C8943.35 74.6713 8943.35 74.6104 8943.35 74.58C8943.35 47.3466 8914.5 25.286 8878.9 25.286C8865.49 25.286 8853.03 28.4201 8842.73 33.7755C8828.13 13.6319 8800.04 0 8767.81 0C8736.38 0 8708.93 12.9625 8694.05 32.2541C8684.06 27.842 8672.48 25.286 8660.15 25.286C8623.07 25.286 8592.99 48.016 8592.35 76.2535C8561.16 82.3088 8538.05 103.913 8538.05 129.686C8538.05 160.114 8570.31 184.792 8610.1 184.792C8612.8 184.792 8615.47 184.67 8618.14 184.457C8628.36 193.372 8643.4 199.002 8660.11 199.002C8676.06 199.002 8690.47 193.859 8700.65 185.644C8716.57 200.462 8740.72 209.925 8767.77 209.925C8788.9 209.925 8808.27 204.144 8823.31 194.559C8836.76 200.158 8852.16 203.353 8868.55 203.353C8909.57 203.353 8944.46 183.392 8957.63 155.489C8982.34 151.898 9001 135.345 9001 115.415Z" fill="white"/>
<path d="M6002.61 201.593C6002.61 179.562 5979.3 161.731 5950.49 161.731C5944.09 161.731 5937.96 162.614 5932.27 164.226C5923.48 148.891 5903.47 138.18 5880.15 138.18C5877.09 138.18 5874.1 138.362 5871.2 138.728C5859.74 119.284 5834.16 105.743 5804.48 105.743C5772.49 105.743 5745.32 121.444 5735.37 143.322C5734.53 143.292 5733.7 143.261 5732.82 143.261C5702.35 143.261 5677.64 162.157 5677.64 185.465C5677.64 186.987 5677.76 188.478 5677.96 189.969C5658.7 197.18 5645.45 212.303 5645.45 229.8C5645.45 254.264 5671.39 274.103 5703.38 274.103C5713.41 274.103 5722.84 272.156 5731.07 268.718C5738.43 275.168 5749.26 279.246 5761.35 279.246C5770.7 279.246 5779.29 276.781 5786.1 272.704C5800.02 281.132 5818.76 286.275 5839.33 286.275C5859.78 286.275 5878.36 281.193 5892.25 272.886C5896.7 273.86 5901.36 274.408 5906.21 274.408C5931.68 274.408 5952.68 259.954 5956.1 241.21C5982.28 239.08 6002.61 222.162 6002.61 201.593Z" fill="white"/>
<path d="M6969.51 464.811C6969.51 452.67 6960.68 442.111 6947.67 436.725C6951.41 431.887 6953.6 426.228 6953.6 420.172C6953.6 402.189 6934.54 387.614 6911.03 387.614C6897.1 387.614 6884.81 392.726 6877.05 400.637C6875.1 400.82 6873.15 401.124 6871.32 401.55C6871.32 401.155 6871.4 400.789 6871.4 400.394C6871.4 379.672 6849.44 362.876 6822.34 362.876C6810.33 362.876 6799.31 366.192 6790.79 371.7C6778.82 350.4 6751.17 335.49 6718.9 335.49C6695.11 335.49 6673.82 343.645 6659.46 356.486C6653.65 354.751 6647.28 353.747 6640.68 353.747C6612.11 353.747 6588.96 371.457 6588.96 393.304C6588.96 394.065 6589.04 394.795 6589.12 395.525C6587.84 395.404 6586.57 395.343 6585.26 395.343C6568.07 395.343 6553.99 405.415 6552.51 418.255C6546.39 412.93 6537.43 409.522 6527.41 409.522C6519.29 409.522 6511.85 411.744 6506.08 415.395C6500.43 411.713 6493.11 409.522 6485.12 409.522C6471.15 409.522 6459.25 416.278 6454.68 425.741C6448.99 422.242 6441.79 420.172 6433.91 420.172C6419.43 420.172 6407.13 427.262 6402.56 437.182C6396.07 434.443 6388.67 432.861 6380.76 432.861C6355.85 432.861 6335.68 448.288 6335.68 467.336C6335.68 486.384 6355.85 501.812 6380.76 501.812C6393.13 501.812 6404.31 498.008 6412.47 491.831C6416.84 505.707 6433.15 516.022 6452.65 516.022C6455.47 516.022 6458.22 515.809 6460.89 515.383C6469 529.38 6487.3 539.117 6508.63 539.117C6524.03 539.117 6537.79 534.005 6547.38 525.911C6554.94 541.247 6574.28 552.171 6596.95 552.171C6609.09 552.171 6620.19 549.037 6629.14 543.803C6636.9 550.375 6648.12 554.544 6660.61 554.544C6665.39 554.544 6669.96 553.905 6674.22 552.81C6681.66 569.484 6702.31 581.504 6726.62 581.504C6754.27 581.504 6777.15 566.016 6781.28 545.75C6791.39 551.866 6804.16 555.548 6818.05 555.548C6840.96 555.548 6860.82 545.598 6870.72 531.023C6872.28 531.114 6873.83 531.205 6875.42 531.205C6903.79 531.205 6927.58 516.356 6934.38 496.274C6954.24 493.9 6969.51 480.725 6969.51 464.811Z" fill="white"/>
<path d="M8122.46 468.741C8122.46 468.71 8122.46 468.68 8122.46 468.619C8122.46 442.998 8095.28 422.216 8061.78 422.216C8033.06 422.216 8009.07 437.491 8002.78 458C7996.81 454.652 7989.49 452.644 7981.49 452.644C7978.31 452.644 7975.21 453.009 7972.26 453.587C7963.19 448.232 7951.85 445.037 7939.56 445.037C7909.88 445.037 7885.85 463.416 7885.85 486.115C7885.85 486.42 7885.89 486.693 7885.89 486.998C7878.53 492.018 7873.91 499.291 7873.91 507.415C7873.91 522.538 7889.95 534.801 7909.72 534.801C7918.23 534.801 7926.03 532.519 7932.2 528.715C7931.84 530.237 7931.6 531.788 7931.6 533.401C7931.6 547.611 7946.68 559.143 7965.26 559.143C7974.65 559.143 7983.13 556.192 7989.21 551.445C7992.12 552.997 7995.66 553.94 7999.52 553.94C8003.62 553.94 8007.36 552.845 8010.42 551.08C8016.55 556.04 8025.22 559.143 8034.85 559.143C8041.97 559.143 8048.61 557.439 8054.02 554.549C8060.43 557.47 8067.87 559.143 8075.83 559.143C8094.65 559.143 8110.56 549.863 8116.29 536.961C8117.4 537.022 8118.48 537.083 8119.59 537.083C8144.3 537.083 8164.35 521.747 8164.35 502.851C8164.35 484.716 8145.85 469.897 8122.46 468.741Z" fill="white"/>
<path d="M7435.2 160.423C7435.6 158.658 7435.84 156.863 7435.84 155.037C7435.84 137.054 7416.78 122.479 7393.27 122.479C7389.13 122.479 7385.11 122.966 7381.33 123.787C7369.48 112.772 7351.49 105.743 7331.4 105.743C7299.49 105.743 7273.07 123.422 7267.78 146.669C7257.68 151.477 7250.91 159.997 7250.91 169.764C7250.91 169.795 7250.91 169.825 7250.91 169.886C7234.16 170.982 7220.99 181.723 7220.99 194.807C7220.99 207.922 7234.2 218.693 7250.99 219.758C7256.96 230.226 7270.61 237.528 7286.48 237.528C7299.89 237.528 7311.67 232.325 7318.63 224.414C7326.63 231.838 7338.76 236.585 7352.37 236.585C7364.34 236.585 7375.21 232.873 7383.12 226.909C7390.88 230.621 7400.03 232.782 7409.9 232.782C7437.91 232.782 7460.63 215.407 7460.63 193.985C7460.59 179.654 7450.36 167.148 7435.2 160.423Z" fill="white"/>
<path d="M9966.4 457.177C9963.86 457.177 9961.35 457.36 9958.92 457.603C9948.22 442.267 9927.09 431.83 9902.74 431.83C9893.95 431.83 9885.6 433.199 9877.96 435.664C9855.91 413.604 9821.14 399.394 9782.07 399.394C9743.08 399.394 9708.47 413.543 9686.38 435.482C9680.34 433.199 9673.57 431.861 9666.37 431.861C9648.23 431.861 9632.63 440.076 9625.47 451.882C9619.98 450.757 9614.25 450.118 9608.32 450.118C9571.68 450.118 9542 472.817 9542 500.842C9542 528.866 9571.68 551.566 9608.32 551.566C9614.41 551.566 9620.3 550.896 9625.87 549.71C9635.34 562.855 9653.64 571.801 9674.65 571.801C9686.66 571.801 9697.76 568.849 9706.87 563.889C9727.48 576.456 9753.62 584.002 9782.03 584.002C9813.06 584.002 9841.35 575.026 9862.72 560.329C9871.83 565.015 9882.77 567.784 9894.59 567.784C9917.9 567.784 9937.91 557.073 9946.75 541.768C9952.87 543.472 9959.44 544.476 9966.36 544.476C9997.87 544.476 10023.4 524.941 10023.4 500.872C10023.4 476.682 9997.91 457.177 9966.4 457.177Z" fill="white"/>
<path d="M13830 115.415C13830 92.8674 13806.1 74.58 13776.6 74.58C13775.2 74.58 13773.8 74.6713 13772.3 74.7321C13772.3 74.6713 13772.3 74.6104 13772.3 74.58C13772.3 47.3466 13743.5 25.286 13707.9 25.286C13694.5 25.286 13682 28.4201 13671.7 33.7755C13657.1 13.6319 13629 0 13596.8 0C13565.4 0 13537.9 12.9625 13523 32.2541C13513.1 27.842 13501.5 25.286 13489.2 25.286C13452.1 25.286 13422 48.016 13421.4 76.2535C13390.2 82.3088 13367 103.913 13367 129.686C13367 160.114 13399.3 184.792 13439.1 184.792C13441.8 184.792 13444.5 184.67 13447.1 184.457C13457.4 193.372 13472.4 199.002 13489.1 199.002C13505.1 199.002 13519.5 193.859 13529.7 185.644C13545.6 200.462 13569.7 209.925 13596.8 209.925C13617.9 209.925 13637.3 204.144 13652.3 194.559C13665.8 200.158 13681.2 203.353 13697.6 203.353C13738.6 203.353 13773.5 183.392 13786.6 155.489C13811.3 151.898 13830 135.345 13830 115.415Z" fill="white"/>
<path d="M10831.6 201.593C10831.6 179.562 10808.3 161.731 10779.5 161.731C10773.1 161.731 10767 162.614 10761.3 164.226C10752.5 148.891 10732.5 138.18 10709.2 138.18C10706.1 138.18 10703.1 138.362 10700.2 138.728C10688.7 119.284 10663.2 105.743 10633.5 105.743C10601.5 105.743 10574.3 121.444 10564.4 143.322C10563.5 143.292 10562.7 143.261 10561.8 143.261C10531.3 143.261 10506.6 162.157 10506.6 185.465C10506.6 186.987 10506.8 188.478 10507 189.969C10487.7 197.18 10474.5 212.303 10474.5 229.8C10474.5 254.264 10500.4 274.103 10532.4 274.103C10542.4 274.103 10551.8 272.156 10560.1 268.718C10567.4 275.168 10578.3 279.246 10590.4 279.246C10599.7 279.246 10608.3 276.781 10615.1 272.704C10629 281.132 10647.8 286.275 10668.3 286.275C10688.8 286.275 10707.4 281.193 10721.2 272.886C10725.7 273.86 10730.4 274.408 10735.2 274.408C10760.7 274.408 10781.7 259.954 10785.1 241.21C10811.3 239.08 10831.6 222.162 10831.6 201.593Z" fill="white"/>
<path d="M11798.5 464.811C11798.5 452.67 11789.7 442.111 11776.7 436.725C11780.4 431.887 11782.6 426.228 11782.6 420.172C11782.6 402.189 11763.5 387.614 11740 387.614C11726.1 387.614 11713.8 392.726 11706.1 400.637C11704.1 400.82 11702.2 401.124 11700.3 401.55C11700.3 401.155 11700.4 400.789 11700.4 400.394C11700.4 379.672 11678.4 362.876 11651.3 362.876C11639.3 362.876 11628.3 366.192 11619.8 371.7C11607.8 350.4 11580.2 335.49 11547.9 335.49C11524.1 335.49 11502.8 343.645 11488.5 356.486C11482.6 354.751 11476.3 353.747 11469.7 353.747C11441.1 353.747 11418 371.457 11418 393.304C11418 394.065 11418 394.795 11418.1 395.525C11416.8 395.404 11415.6 395.343 11414.3 395.343C11397.1 395.343 11383 405.415 11381.5 418.255C11375.4 412.93 11366.4 409.522 11356.4 409.522C11348.3 409.522 11340.9 411.744 11335.1 415.395C11329.4 411.713 11322.1 409.522 11314.1 409.522C11300.1 409.522 11288.3 416.278 11283.7 425.741C11278 422.242 11270.8 420.172 11262.9 420.172C11248.4 420.172 11236.1 427.262 11231.6 437.182C11225.1 434.443 11217.7 432.861 11209.8 432.861C11184.8 432.861 11164.7 448.288 11164.7 467.336C11164.7 486.384 11184.8 501.812 11209.8 501.812C11222.1 501.812 11233.3 498.008 11241.5 491.831C11245.8 505.707 11262.2 516.022 11281.6 516.022C11284.5 516.022 11287.2 515.809 11289.9 515.383C11298 529.38 11316.3 539.117 11337.6 539.117C11353 539.117 11366.8 534.005 11376.4 525.911C11383.9 541.247 11403.3 552.171 11426 552.171C11438.1 552.171 11449.2 549.037 11458.1 543.803C11465.9 550.375 11477.1 554.544 11489.6 554.544C11494.4 554.544 11499 553.905 11503.2 552.81C11510.7 569.484 11531.3 581.504 11555.6 581.504C11583.3 581.504 11606.1 566.016 11610.3 545.75C11620.4 551.866 11633.2 555.548 11647 555.548C11670 555.548 11689.8 545.598 11699.7 531.023C11701.3 531.114 11702.8 531.205 11704.4 531.205C11732.8 531.205 11756.6 516.356 11763.4 496.274C11783.2 493.9 11798.5 480.725 11798.5 464.811Z" fill="white"/>
<path d="M12951.5 468.741C12951.5 468.71 12951.5 468.68 12951.5 468.619C12951.5 442.998 12924.3 422.216 12890.8 422.216C12862.1 422.216 12838.1 437.491 12831.8 458C12825.8 454.652 12818.5 452.644 12810.5 452.644C12807.3 452.644 12804.2 453.009 12801.3 453.587C12792.2 448.232 12780.9 445.037 12768.6 445.037C12738.9 445.037 12714.8 463.416 12714.8 486.115C12714.8 486.42 12714.9 486.693 12714.9 486.998C12707.5 492.018 12702.9 499.291 12702.9 507.415C12702.9 522.538 12718.9 534.801 12738.7 534.801C12747.2 534.801 12755 532.519 12761.2 528.715C12760.8 530.237 12760.6 531.788 12760.6 533.401C12760.6 547.611 12775.7 559.143 12794.3 559.143C12803.7 559.143 12812.1 556.192 12818.2 551.445C12821.1 552.997 12824.7 553.94 12828.5 553.94C12832.6 553.94 12836.4 552.845 12839.4 551.08C12845.5 556.04 12854.2 559.143 12863.8 559.143C12871 559.143 12877.6 557.439 12883 554.549C12889.4 557.47 12896.9 559.143 12904.8 559.143C12923.6 559.143 12939.6 549.863 12945.3 536.961C12946.4 537.022 12947.5 537.083 12948.6 537.083C12973.3 537.083 12993.4 521.747 12993.4 502.851C12993.4 484.716 12974.9 469.897 12951.5 468.741Z" fill="white"/>
<path d="M12264.2 160.423C12264.6 158.658 12264.8 156.863 12264.8 155.037C12264.8 137.054 12245.8 122.479 12222.3 122.479C12218.1 122.479 12214.1 122.966 12210.3 123.787C12198.5 112.772 12180.5 105.743 12160.4 105.743C12128.5 105.743 12102.1 123.422 12096.8 146.669C12086.7 151.477 12079.9 159.997 12079.9 169.764C12079.9 169.795 12079.9 169.825 12079.9 169.886C12063.2 170.982 12050 181.723 12050 194.807C12050 207.922 12063.2 218.693 12080 219.758C12086 230.226 12099.6 237.528 12115.5 237.528C12128.9 237.528 12140.7 232.325 12147.6 224.414C12155.6 231.838 12167.8 236.585 12181.4 236.585C12193.3 236.585 12204.2 232.873 12212.1 226.909C12219.9 230.621 12229 232.782 12238.9 232.782C12266.9 232.782 12289.6 215.407 12289.6 193.985C12289.6 179.654 12279.4 167.148 12264.2 160.423Z" fill="white"/>
<path d="M14679.4 457.177C14676.9 457.177 14674.3 457.36 14671.9 457.603C14661.2 442.267 14640.1 431.83 14615.7 431.83C14607 431.83 14598.6 433.199 14591 435.664C14568.9 413.604 14534.1 399.394 14495.1 399.394C14456.1 399.394 14421.5 413.543 14399.4 435.482C14393.3 433.199 14386.6 431.861 14379.4 431.861C14361.2 431.861 14345.6 440.076 14338.5 451.882C14333 450.757 14327.3 450.118 14321.3 450.118C14284.7 450.118 14255 472.817 14255 500.842C14255 528.866 14284.7 551.566 14321.3 551.566C14327.4 551.566 14333.3 550.896 14338.9 549.71C14348.3 562.855 14366.6 571.801 14387.6 571.801C14399.7 571.801 14410.8 568.849 14419.9 563.889C14440.5 576.456 14466.6 584.002 14495 584.002C14526.1 584.002 14554.4 575.026 14575.7 560.329C14584.8 565.015 14595.8 567.784 14607.6 567.784C14630.9 567.784 14650.9 557.073 14659.7 541.768C14665.9 543.472 14672.4 544.476 14679.4 544.476C14710.9 544.476 14736.4 524.941 14736.4 500.872C14736.4 476.682 14710.9 457.177 14679.4 457.177Z" fill="white"/>
<path d="M18543 115.415C18543 92.8674 18519.1 74.58 18489.6 74.58C18488.2 74.58 18486.8 74.6713 18485.3 74.7321C18485.3 74.6713 18485.3 74.6104 18485.3 74.58C18485.3 47.3466 18456.5 25.286 18420.9 25.286C18407.5 25.286 18395 28.4201 18384.7 33.7755C18370.1 13.6319 18342 0 18309.8 0C18278.4 0 18250.9 12.9625 18236 32.2541C18226.1 27.842 18214.5 25.286 18202.2 25.286C18165.1 25.286 18135 48.016 18134.4 76.2535C18103.2 82.3088 18080 103.913 18080 129.686C18080 160.114 18112.3 184.792 18152.1 184.792C18154.8 184.792 18157.5 184.67 18160.1 184.457C18170.4 193.372 18185.4 199.002 18202.1 199.002C18218.1 199.002 18232.5 193.859 18242.7 185.644C18258.6 200.462 18282.7 209.925 18309.8 209.925C18330.9 209.925 18350.3 204.144 18365.3 194.559C18378.8 200.158 18394.2 203.353 18410.6 203.353C18451.6 203.353 18486.5 183.392 18499.6 155.489C18524.3 151.898 18543 135.345 18543 115.415Z" fill="white"/>
<path d="M15544.6 201.593C15544.6 179.562 15521.3 161.731 15492.5 161.731C15486.1 161.731 15480 162.614 15474.3 164.226C15465.5 148.891 15445.5 138.18 15422.2 138.18C15419.1 138.18 15416.1 138.362 15413.2 138.728C15401.7 119.284 15376.2 105.743 15346.5 105.743C15314.5 105.743 15287.3 121.444 15277.4 143.322C15276.5 143.292 15275.7 143.261 15274.8 143.261C15244.3 143.261 15219.6 162.157 15219.6 185.465C15219.6 186.987 15219.8 188.478 15220 189.969C15200.7 197.18 15187.5 212.303 15187.5 229.8C15187.5 254.264 15213.4 274.103 15245.4 274.103C15255.4 274.103 15264.8 272.156 15273.1 268.718C15280.4 275.168 15291.3 279.246 15303.3 279.246C15312.7 279.246 15321.3 276.781 15328.1 272.704C15342 281.132 15360.8 286.275 15381.3 286.275C15401.8 286.275 15420.4 281.193 15434.2 272.886C15438.7 273.86 15443.4 274.408 15448.2 274.408C15473.7 274.408 15494.7 259.954 15498.1 241.21C15524.3 239.08 15544.6 222.162 15544.6 201.593Z" fill="white"/>
<path d="M16511.5 464.811C16511.5 452.67 16502.7 442.111 16489.7 436.725C16493.4 431.887 16495.6 426.228 16495.6 420.172C16495.6 402.189 16476.5 387.614 16453 387.614C16439.1 387.614 16426.8 392.726 16419.1 400.637C16417.1 400.82 16415.2 401.124 16413.3 401.55C16413.3 401.155 16413.4 400.789 16413.4 400.394C16413.4 379.672 16391.4 362.876 16364.3 362.876C16352.3 362.876 16341.3 366.192 16332.8 371.7C16320.8 350.4 16293.2 335.49 16260.9 335.49C16237.1 335.49 16215.8 343.645 16201.5 356.486C16195.7 354.751 16189.3 353.747 16182.7 353.747C16154.1 353.747 16131 371.457 16131 393.304C16131 394.065 16131 394.795 16131.1 395.525C16129.8 395.404 16128.6 395.343 16127.3 395.343C16110.1 395.343 16096 405.415 16094.5 418.255C16088.4 412.93 16079.4 409.522 16069.4 409.522C16061.3 409.522 16053.9 411.744 16048.1 415.395C16042.4 411.713 16035.1 409.522 16027.1 409.522C16013.2 409.522 16001.3 416.278 15996.7 425.741C15991 422.242 15983.8 420.172 15975.9 420.172C15961.4 420.172 15949.1 427.262 15944.6 437.182C15938.1 434.443 15930.7 432.861 15922.8 432.861C15897.8 432.861 15877.7 448.288 15877.7 467.336C15877.7 486.384 15897.8 501.812 15922.8 501.812C15935.1 501.812 15946.3 498.008 15954.5 491.831C15958.8 505.707 15975.2 516.022 15994.6 516.022C15997.5 516.022 16000.2 515.809 16002.9 515.383C16011 529.38 16029.3 539.117 16050.6 539.117C16066 539.117 16079.8 534.005 16089.4 525.911C16096.9 541.247 16116.3 552.171 16139 552.171C16151.1 552.171 16162.2 549.037 16171.1 543.803C16178.9 550.375 16190.1 554.544 16202.6 554.544C16207.4 554.544 16212 553.905 16216.2 552.81C16223.7 569.484 16244.3 581.504 16268.6 581.504C16296.3 581.504 16319.1 566.016 16323.3 545.75C16333.4 551.866 16346.2 555.548 16360 555.548C16383 555.548 16402.8 545.598 16412.7 531.023C16414.3 531.114 16415.8 531.205 16417.4 531.205C16445.8 531.205 16469.6 516.356 16476.4 496.274C16496.2 493.9 16511.5 480.725 16511.5 464.811Z" fill="white"/>
<path d="M17664.5 468.741C17664.5 468.71 17664.5 468.68 17664.5 468.619C17664.5 442.998 17637.3 422.216 17603.8 422.216C17575.1 422.216 17551.1 437.491 17544.8 458C17538.8 454.652 17531.5 452.644 17523.5 452.644C17520.3 452.644 17517.2 453.009 17514.3 453.587C17505.2 448.232 17493.9 445.037 17481.6 445.037C17451.9 445.037 17427.8 463.416 17427.8 486.115C17427.8 486.42 17427.9 486.693 17427.9 486.998C17420.5 492.018 17415.9 499.291 17415.9 507.415C17415.9 522.538 17431.9 534.801 17451.7 534.801C17460.2 534.801 17468 532.519 17474.2 528.715C17473.8 530.237 17473.6 531.788 17473.6 533.401C17473.6 547.611 17488.7 559.143 17507.3 559.143C17516.7 559.143 17525.1 556.192 17531.2 551.445C17534.1 552.997 17537.7 553.94 17541.5 553.94C17545.6 553.94 17549.4 552.845 17552.4 551.08C17558.5 556.04 17567.2 559.143 17576.8 559.143C17584 559.143 17590.6 557.439 17596 554.549C17602.4 557.47 17609.9 559.143 17617.8 559.143C17636.6 559.143 17652.6 549.863 17658.3 536.961C17659.4 537.022 17660.5 537.083 17661.6 537.083C17686.3 537.083 17706.4 521.747 17706.4 502.851C17706.4 484.716 17687.9 469.897 17664.5 468.741Z" fill="white"/>
<path d="M16977.2 160.423C16977.6 158.658 16977.8 156.863 16977.8 155.037C16977.8 137.054 16958.8 122.479 16935.3 122.479C16931.1 122.479 16927.1 122.966 16923.3 123.787C16911.5 112.772 16893.5 105.743 16873.4 105.743C16841.5 105.743 16815.1 123.422 16809.8 146.669C16799.7 151.477 16792.9 159.997 16792.9 169.764C16792.9 169.795 16792.9 169.825 16792.9 169.886C16776.2 170.982 16763 181.723 16763 194.807C16763 207.922 16776.2 218.693 16793 219.758C16799 230.226 16812.6 237.528 16828.5 237.528C16841.9 237.528 16853.7 232.325 16860.6 224.414C16868.6 231.838 16880.8 236.585 16894.4 236.585C16906.3 236.585 16917.2 232.873 16925.1 226.909C16932.9 230.621 16942 232.782 16951.9 232.782C16979.9 232.782 17002.6 215.407 17002.6 193.985C17002.6 179.654 16992.4 167.148 16977.2 160.423Z" fill="white"/>
<path d="M19093.4 457.177C19090.9 457.177 19088.3 457.36 19085.9 457.603C19075.2 442.267 19054.1 431.83 19029.7 431.83C19021 431.83 19012.6 433.199 19005 435.664C18982.9 413.604 18948.1 399.394 18909.1 399.394C18870.1 399.394 18835.5 413.543 18813.4 435.482C18807.3 433.199 18800.6 431.861 18793.4 431.861C18775.2 431.861 18759.6 440.076 18752.5 451.882C18747 450.757 18741.3 450.118 18735.3 450.118C18698.7 450.118 18669 472.817 18669 500.842C18669 528.866 18698.7 551.566 18735.3 551.566C18741.4 551.566 18747.3 550.896 18752.9 549.71C18762.3 562.855 18780.6 571.801 18801.6 571.801C18813.7 571.801 18824.8 568.849 18833.9 563.889C18854.5 576.456 18880.6 584.002 18909 584.002C18940.1 584.002 18968.4 575.026 18989.7 560.329C18998.8 565.015 19009.8 567.784 19021.6 567.784C19044.9 567.784 19064.9 557.073 19073.7 541.768C19079.9 543.472 19086.4 544.476 19093.4 544.476C19124.9 544.476 19150.4 524.941 19150.4 500.872C19150.4 476.682 19124.9 457.177 19093.4 457.177Z" fill="white"/>
<path d="M22957 115.415C22957 92.8674 22933.1 74.58 22903.6 74.58C22902.2 74.58 22900.8 74.6713 22899.3 74.7321C22899.3 74.6713 22899.3 74.6104 22899.3 74.58C22899.3 47.3466 22870.5 25.286 22834.9 25.286C22821.5 25.286 22809 28.4201 22798.7 33.7755C22784.1 13.6319 22756 0 22723.8 0C22692.4 0 22664.9 12.9625 22650 32.2541C22640.1 27.842 22628.5 25.286 22616.2 25.286C22579.1 25.286 22549 48.016 22548.4 76.2535C22517.2 82.3088 22494 103.913 22494 129.686C22494 160.114 22526.3 184.792 22566.1 184.792C22568.8 184.792 22571.5 184.67 22574.1 184.457C22584.4 193.372 22599.4 199.002 22616.1 199.002C22632.1 199.002 22646.5 193.859 22656.7 185.644C22672.6 200.462 22696.7 209.925 22723.8 209.925C22744.9 209.925 22764.3 204.144 22779.3 194.559C22792.8 200.158 22808.2 203.353 22824.6 203.353C22865.6 203.353 22900.5 183.392 22913.6 155.489C22938.3 151.898 22957 135.345 22957 115.415Z" fill="white"/>
<path d="M19958.6 201.593C19958.6 179.562 19935.3 161.731 19906.5 161.731C19900.1 161.731 19894 162.614 19888.3 164.226C19879.5 148.891 19859.5 138.18 19836.2 138.18C19833.1 138.18 19830.1 138.362 19827.2 138.728C19815.7 119.284 19790.2 105.743 19760.5 105.743C19728.5 105.743 19701.3 121.444 19691.4 143.322C19690.5 143.292 19689.7 143.261 19688.8 143.261C19658.3 143.261 19633.6 162.157 19633.6 185.465C19633.6 186.987 19633.8 188.478 19634 189.969C19614.7 197.18 19601.5 212.303 19601.5 229.8C19601.5 254.264 19627.4 274.103 19659.4 274.103C19669.4 274.103 19678.8 272.156 19687.1 268.718C19694.4 275.168 19705.3 279.246 19717.3 279.246C19726.7 279.246 19735.3 276.781 19742.1 272.704C19756 281.132 19774.8 286.275 19795.3 286.275C19815.8 286.275 19834.4 281.193 19848.2 272.886C19852.7 273.86 19857.4 274.408 19862.2 274.408C19887.7 274.408 19908.7 259.954 19912.1 241.21C19938.3 239.08 19958.6 222.162 19958.6 201.593Z" fill="white"/>
<path d="M20925.5 464.811C20925.5 452.67 20916.7 442.111 20903.7 436.725C20907.4 431.887 20909.6 426.228 20909.6 420.172C20909.6 402.189 20890.5 387.614 20867 387.614C20853.1 387.614 20840.8 392.726 20833.1 400.637C20831.1 400.82 20829.2 401.124 20827.3 401.55C20827.3 401.155 20827.4 400.789 20827.4 400.394C20827.4 379.672 20805.4 362.876 20778.3 362.876C20766.3 362.876 20755.3 366.192 20746.8 371.7C20734.8 350.4 20707.2 335.49 20674.9 335.49C20651.1 335.49 20629.8 343.645 20615.5 356.486C20609.7 354.751 20603.3 353.747 20596.7 353.747C20568.1 353.747 20545 371.457 20545 393.304C20545 394.065 20545 394.795 20545.1 395.525C20543.8 395.404 20542.6 395.343 20541.3 395.343C20524.1 395.343 20510 405.415 20508.5 418.255C20502.4 412.93 20493.4 409.522 20483.4 409.522C20475.3 409.522 20467.9 411.744 20462.1 415.395C20456.4 411.713 20449.1 409.522 20441.1 409.522C20427.2 409.522 20415.3 416.278 20410.7 425.741C20405 422.242 20397.8 420.172 20389.9 420.172C20375.4 420.172 20363.1 427.262 20358.6 437.182C20352.1 434.443 20344.7 432.861 20336.8 432.861C20311.8 432.861 20291.7 448.288 20291.7 467.336C20291.7 486.384 20311.8 501.812 20336.8 501.812C20349.1 501.812 20360.3 498.008 20368.5 491.831C20372.8 505.707 20389.2 516.022 20408.6 516.022C20411.5 516.022 20414.2 515.809 20416.9 515.383C20425 529.38 20443.3 539.117 20464.6 539.117C20480 539.117 20493.8 534.005 20503.4 525.911C20510.9 541.247 20530.3 552.171 20553 552.171C20565.1 552.171 20576.2 549.037 20585.1 543.803C20592.9 550.375 20604.1 554.544 20616.6 554.544C20621.4 554.544 20626 553.905 20630.2 552.81C20637.7 569.484 20658.3 581.504 20682.6 581.504C20710.3 581.504 20733.1 566.016 20737.3 545.75C20747.4 551.866 20760.2 555.548 20774 555.548C20797 555.548 20816.8 545.598 20826.7 531.023C20828.3 531.114 20829.8 531.205 20831.4 531.205C20859.8 531.205 20883.6 516.356 20890.4 496.274C20910.2 493.9 20925.5 480.725 20925.5 464.811Z" fill="white"/>
<path d="M22078.5 468.741C22078.5 468.71 22078.5 468.68 22078.5 468.619C22078.5 442.998 22051.3 422.216 22017.8 422.216C21989.1 422.216 21965.1 437.491 21958.8 458C21952.8 454.652 21945.5 452.644 21937.5 452.644C21934.3 452.644 21931.2 453.009 21928.3 453.587C21919.2 448.232 21907.9 445.037 21895.6 445.037C21865.9 445.037 21841.8 463.416 21841.8 486.115C21841.8 486.42 21841.9 486.693 21841.9 486.998C21834.5 492.018 21829.9 499.291 21829.9 507.415C21829.9 522.538 21845.9 534.801 21865.7 534.801C21874.2 534.801 21882 532.519 21888.2 528.715C21887.8 530.237 21887.6 531.788 21887.6 533.401C21887.6 547.611 21902.7 559.143 21921.3 559.143C21930.7 559.143 21939.1 556.192 21945.2 551.445C21948.1 552.997 21951.7 553.94 21955.5 553.94C21959.6 553.94 21963.4 552.845 21966.4 551.08C21972.5 556.04 21981.2 559.143 21990.8 559.143C21998 559.143 22004.6 557.439 22010 554.549C22016.4 557.47 22023.9 559.143 22031.8 559.143C22050.6 559.143 22066.6 549.863 22072.3 536.961C22073.4 537.022 22074.5 537.083 22075.6 537.083C22100.3 537.083 22120.4 521.747 22120.4 502.851C22120.4 484.716 22101.9 469.897 22078.5 468.741Z" fill="white"/>
<path d="M21391.2 160.423C21391.6 158.658 21391.8 156.863 21391.8 155.037C21391.8 137.054 21372.8 122.479 21349.3 122.479C21345.1 122.479 21341.1 122.966 21337.3 123.787C21325.5 112.772 21307.5 105.743 21287.4 105.743C21255.5 105.743 21229.1 123.422 21223.8 146.669C21213.7 151.477 21206.9 159.997 21206.9 169.764C21206.9 169.795 21206.9 169.825 21206.9 169.886C21190.2 170.982 21177 181.723 21177 194.807C21177 207.922 21190.2 218.693 21207 219.758C21213 230.226 21226.6 237.528 21242.5 237.528C21255.9 237.528 21267.7 232.325 21274.6 224.414C21282.6 231.838 21294.8 236.585 21308.4 236.585C21320.3 236.585 21331.2 232.873 21339.1 226.909C21346.9 230.621 21356 232.782 21365.9 232.782C21393.9 232.782 21416.6 215.407 21416.6 193.985C21416.6 179.654 21406.4 167.148 21391.2 160.423Z" fill="white"/>
</svg>
