<svg width="32768" height="517" viewBox="0 0 32768 517" fill="none" xmlns="http://www.w3.org/2000/svg">
<path d="M12891.6 403.284C12889.4 403.284 12887.2 403.445 12885 403.659C12875.6 390.131 12856.9 380.925 12835.5 380.925C12827.7 380.925 12820.3 382.133 12813.6 384.307C12794.1 364.847 12763.5 352.312 12729 352.312C12694.6 352.312 12664.1 364.793 12644.6 384.146C12639.3 382.133 12633.3 380.952 12627 380.952C12610.9 380.952 12597.2 388.199 12590.9 398.613C12586 397.62 12581 397.056 12575.7 397.056C12543.4 397.056 12517.2 417.08 12517.2 441.801C12517.2 466.522 12543.4 486.546 12575.7 486.546C12581.1 486.546 12586.3 485.955 12591.2 484.908C12599.6 496.504 12615.7 504.395 12634.3 504.395C12644.9 504.395 12654.6 501.792 12662.7 497.416C12680.9 508.502 12703.9 515.159 12729 515.159C12756.4 515.159 12781.3 507.24 12800.2 494.276C12808.2 498.409 12817.8 500.852 12828.3 500.852C12848.8 500.852 12866.5 491.404 12874.3 477.903C12879.7 479.406 12885.5 480.292 12891.6 480.292C12919.4 480.292 12941.9 463.059 12941.9 441.828C12941.9 420.489 12919.4 403.284 12891.6 403.284Z" fill="white"/>
<path d="M16299.8 101.809C16299.8 81.9199 16278.7 65.7883 16252.7 65.7883C16251.4 65.7883 16250.2 65.8688 16248.9 65.9225C16248.9 65.8688 16248.9 65.8151 16248.9 65.7883C16248.9 41.7652 16223.5 22.3052 16192 22.3052C16180.2 22.3052 16169.2 25.0699 16160.1 29.794C16147.3 12.025 16122.5 0 16094.1 0C16066.3 0 16042.1 11.4344 16029 28.4519C16020.2 24.5599 16010 22.3052 15999.1 22.3052C15966.4 22.3052 15939.8 42.3557 15939.3 67.2645C15911.8 72.606 15891.4 91.6633 15891.4 114.398C15891.4 141.239 15919.8 163.008 15954.9 163.008C15957.3 163.008 15959.7 162.9 15962 162.712C15971 170.577 15984.3 175.543 15999.1 175.543C16013.1 175.543 16025.8 171.006 16034.8 163.759C16048.9 176.831 16070.2 185.179 16094 185.179C16112.7 185.179 16129.8 180.079 16143 171.624C16154.9 176.563 16168.5 179.381 16182.9 179.381C16219.1 179.381 16249.9 161.773 16261.5 137.159C16283.3 133.992 16299.8 119.39 16299.8 101.809Z" fill="white"/>
<path d="M13654.8 177.828C13654.8 158.395 13634.3 142.666 13608.9 142.666C13603.2 142.666 13597.8 143.444 13592.8 144.867C13585 131.339 13567.4 121.891 13546.8 121.891C13544.1 121.891 13541.5 122.052 13538.9 122.374C13528.8 105.222 13506.2 93.2778 13480.1 93.2778C13451.8 93.2778 13427.9 107.128 13419.1 126.427C13418.4 126.4 13417.6 126.373 13416.8 126.373C13390 126.373 13368.2 143.042 13368.2 163.602C13368.2 164.944 13368.3 166.26 13368.4 167.575C13351.5 173.936 13339.8 187.276 13339.8 202.71C13339.8 224.291 13362.7 241.791 13390.9 241.791C13399.7 241.791 13408 240.073 13415.3 237.04C13421.8 242.731 13431.3 246.327 13442 246.327C13450.3 246.327 13457.8 244.153 13463.8 240.557C13476.1 247.992 13492.7 252.528 13510.8 252.528C13528.8 252.528 13545.2 248.045 13557.5 240.718C13561.4 241.576 13565.5 242.06 13569.8 242.06C13592.3 242.06 13610.8 229.31 13613.8 212.776C13636.9 210.897 13654.8 195.973 13654.8 177.828Z" fill="white"/>
<path d="M14507.7 410.018C14507.7 399.308 14500 389.994 14488.5 385.243C14491.8 380.975 14493.7 375.983 14493.7 370.641C14493.7 354.778 14476.9 341.921 14456.2 341.921C14443.9 341.921 14433 346.43 14426.2 353.409C14424.5 353.57 14422.7 353.838 14421.1 354.214C14421.1 353.865 14421.2 353.543 14421.2 353.194C14421.2 334.915 14401.8 320.099 14377.9 320.099C14367.3 320.099 14357.6 323.025 14350.1 327.883C14339.5 309.094 14315.1 295.942 14286.7 295.942C14265.7 295.942 14246.9 303.135 14234.2 314.462C14229.1 312.932 14223.5 312.046 14217.7 312.046C14192.5 312.046 14172.1 327.668 14172.1 346.94C14172.1 347.611 14172.1 348.255 14172.2 348.9C14171.1 348.792 14169.9 348.739 14168.8 348.739C14153.6 348.739 14141.2 357.623 14139.9 368.95C14134.5 364.253 14126.6 361.247 14117.8 361.247C14110.6 361.247 14104 363.206 14098.9 366.427C14094 363.179 14087.5 361.247 14080.5 361.247C14068.1 361.247 14057.6 367.206 14053.6 375.553C14048.6 372.466 14042.2 370.641 14035.3 370.641C14022.5 370.641 14011.7 376.895 14007.6 385.646C14001.9 383.23 13995.4 381.834 13988.4 381.834C13966.4 381.834 13948.6 395.443 13948.6 412.245C13948.6 429.048 13966.4 442.657 13988.4 442.657C13999.3 442.657 14009.2 439.301 14016.4 433.853C14020.2 446.092 14034.6 455.192 14051.8 455.192C14054.3 455.192 14056.7 455.004 14059.1 454.628C14066.2 466.975 14082.4 475.564 14101.2 475.564C14114.8 475.564 14126.9 471.055 14135.4 463.915C14142 477.443 14159.1 487.079 14179.1 487.079C14189.8 487.079 14199.6 484.314 14207.5 479.698C14214.3 485.495 14224.2 489.173 14235.3 489.173C14239.5 489.173 14243.5 488.609 14247.3 487.643C14253.8 502.352 14272 512.954 14293.5 512.954C14317.9 512.954 14338.1 499.292 14341.7 481.416C14350.6 486.811 14361.9 490.058 14374.1 490.058C14394.4 490.058 14411.9 481.281 14420.6 468.424C14422 468.505 14423.3 468.585 14424.7 468.585C14449.8 468.585 14470.8 455.487 14476.8 437.772C14494.3 435.678 14507.7 424.056 14507.7 410.018Z" fill="white"/>
<path d="M15524.8 413.484C15524.8 413.457 15524.8 413.431 15524.8 413.377C15524.8 390.776 15500.8 372.444 15471.3 372.444C15445.9 372.444 15424.8 385.918 15419.2 404.009C15413.9 401.057 15407.5 399.285 15400.4 399.285C15397.6 399.285 15394.9 399.607 15392.3 400.117C15384.3 395.393 15374.3 392.575 15363.4 392.575C15337.3 392.575 15316.1 408.787 15316.1 428.811C15316.1 429.079 15316.1 429.321 15316.1 429.589C15309.6 434.018 15305.5 440.433 15305.5 447.6C15305.5 460.94 15319.7 471.757 15337.1 471.757C15344.6 471.757 15351.5 469.744 15357 466.389C15356.6 467.731 15356.4 469.1 15356.4 470.522C15356.4 483.057 15369.7 493.23 15386.1 493.23C15394.4 493.23 15401.9 490.626 15407.2 486.439C15409.8 487.808 15412.9 488.64 15416.3 488.64C15419.9 488.64 15423.2 487.674 15425.9 486.117C15431.4 490.492 15439 493.23 15447.5 493.23C15453.8 493.23 15459.6 491.727 15464.4 489.177C15470.1 491.754 15476.6 493.23 15483.6 493.23C15500.2 493.23 15514.3 485.043 15519.3 473.663C15520.3 473.716 15521.3 473.77 15522.3 473.77C15544 473.77 15561.7 460.242 15561.7 443.573C15561.7 427.576 15545.4 414.504 15524.8 413.484Z" fill="white"/>
<path d="M14918.5 141.512C14918.9 139.955 14919.1 138.371 14919.1 136.761C14919.1 120.898 14902.3 108.041 14881.6 108.041C14877.9 108.041 14874.4 108.47 14871 109.195C14860.6 99.4782 14844.7 93.2778 14827 93.2778C14798.8 93.2778 14775.5 108.873 14770.9 129.379C14761.9 133.62 14756 141.136 14756 149.752C14756 149.779 14756 149.806 14756 149.859C14741.2 150.826 14729.6 160.301 14729.6 171.843C14729.6 183.411 14741.2 192.913 14756 193.852C14761.3 203.086 14773.3 209.528 14787.4 209.528C14799.2 209.528 14809.6 204.938 14815.7 197.959C14822.8 204.509 14833.5 208.696 14845.5 208.696C14856 208.696 14865.6 205.421 14872.6 200.16C14879.4 203.435 14887.5 205.341 14896.2 205.341C14920.9 205.341 14941 190.014 14941 171.118C14940.9 158.476 14931.9 147.444 14918.5 141.512Z" fill="white"/>
<path d="M8411.34 403.284C8409.09 403.284 8406.88 403.445 8404.74 403.659C8395.3 390.131 8376.66 380.925 8355.19 380.925C8347.43 380.925 8340.06 382.133 8333.32 384.307C8313.88 364.847 8283.2 352.312 8248.74 352.312C8214.34 352.312 8183.81 364.793 8164.33 384.146C8159 382.133 8153.03 380.952 8146.68 380.952C8130.67 380.952 8116.92 388.199 8110.6 398.613C8105.76 397.62 8100.7 397.056 8095.47 397.056C8063.15 397.056 8036.97 417.08 8036.97 441.801C8036.97 466.522 8063.15 486.546 8095.47 486.546C8100.84 486.546 8106.04 485.955 8110.95 484.908C8119.3 496.504 8135.45 504.395 8153.98 504.395C8164.58 504.395 8174.37 501.792 8182.41 497.416C8200.59 508.502 8223.64 515.159 8248.7 515.159C8276.08 515.159 8301.03 507.24 8319.88 494.276C8327.92 498.409 8337.57 500.852 8347.99 500.852C8368.56 500.852 8386.21 491.404 8394 477.903C8399.41 479.406 8405.2 480.292 8411.3 480.292C8439.1 480.292 8461.6 463.059 8461.6 441.828C8461.63 420.489 8439.14 403.284 8411.34 403.284Z" fill="white"/>
<path d="M11819.5 101.809C11819.5 81.9199 11798.4 65.7883 11772.4 65.7883C11771.1 65.7883 11769.9 65.8688 11768.6 65.9225C11768.6 65.8688 11768.6 65.8151 11768.6 65.7883C11768.6 41.7652 11743.2 22.3052 11711.8 22.3052C11699.9 22.3052 11689 25.0699 11679.9 29.794C11667 12.025 11642.2 0 11613.8 0C11586.1 0 11561.8 11.4344 11548.7 28.4519C11539.9 24.5599 11529.7 22.3052 11518.8 22.3052C11486.1 22.3052 11459.6 42.3557 11459 67.2645C11431.5 72.606 11411.1 91.6633 11411.1 114.398C11411.1 141.239 11439.6 163.008 11474.7 163.008C11477.1 163.008 11479.4 162.9 11481.8 162.712C11490.8 170.577 11504 175.543 11518.8 175.543C11532.9 175.543 11545.6 171.006 11554.5 163.759C11568.6 176.831 11589.9 185.179 11613.8 185.179C11632.4 185.179 11649.5 180.079 11662.7 171.624C11674.6 176.563 11688.2 179.381 11702.7 179.381C11738.8 179.381 11769.6 161.773 11781.2 137.159C11803 133.992 11819.5 119.39 11819.5 101.809Z" fill="white"/>
<path d="M9174.56 177.828C9174.56 158.395 9153.99 142.666 9128.58 142.666C9122.93 142.666 9117.53 143.444 9112.51 144.867C9104.75 131.339 9087.1 121.891 9066.53 121.891C9063.83 121.891 9061.2 122.052 9058.64 122.374C9048.53 105.222 9025.96 93.2778 8999.78 93.2778C8971.56 93.2778 8947.59 107.128 8938.82 126.427C8938.08 126.4 8937.34 126.373 8936.57 126.373C8909.69 126.373 8887.89 143.042 8887.89 163.602C8887.89 164.944 8888 166.26 8888.17 167.575C8871.19 173.936 8859.5 187.276 8859.5 202.71C8859.5 224.291 8882.38 241.791 8910.6 241.791C8919.44 241.791 8927.76 240.073 8935.03 237.04C8941.52 242.731 8951.07 246.327 8961.74 246.327C8969.98 246.327 8977.56 244.153 8983.57 240.557C8995.85 247.992 9012.38 252.528 9030.52 252.528C9048.56 252.528 9064.95 248.045 9077.2 240.718C9081.13 241.576 9085.24 242.06 9089.52 242.06C9111.98 242.06 9130.51 229.31 9133.53 212.776C9156.62 210.897 9174.56 195.973 9174.56 177.828Z" fill="white"/>
<path d="M10027.5 410.018C10027.5 399.308 10019.7 389.994 10008.2 385.243C10011.5 380.975 10013.4 375.983 10013.4 370.641C10013.4 354.778 9996.63 341.921 9975.89 341.921C9963.6 341.921 9952.76 346.43 9945.91 353.409C9944.19 353.57 9942.47 353.838 9940.86 354.214C9940.86 353.865 9940.93 353.543 9940.93 353.194C9940.93 334.915 9921.56 320.099 9897.66 320.099C9887.06 320.099 9877.34 323.025 9869.83 327.883C9859.26 309.094 9834.87 295.942 9806.41 295.942C9785.42 295.942 9766.64 303.135 9753.97 314.462C9748.85 312.932 9743.23 312.046 9737.41 312.046C9712.21 312.046 9691.78 327.668 9691.78 346.94C9691.78 347.611 9691.85 348.255 9691.92 348.9C9690.8 348.792 9689.68 348.739 9688.52 348.739C9673.36 348.739 9660.93 357.623 9659.63 368.95C9654.23 364.253 9646.33 361.247 9637.49 361.247C9630.33 361.247 9623.77 363.206 9618.68 366.427C9613.69 363.179 9607.24 361.247 9600.18 361.247C9587.86 361.247 9577.37 367.206 9573.33 375.553C9568.31 372.466 9561.96 370.641 9555.01 370.641C9542.24 370.641 9531.39 376.895 9527.36 385.646C9521.64 383.23 9515.11 381.834 9508.12 381.834C9486.15 381.834 9468.36 395.443 9468.36 412.245C9468.36 429.048 9486.15 442.657 9508.12 442.657C9519.04 442.657 9528.9 439.301 9536.1 433.853C9539.96 446.092 9554.35 455.192 9571.54 455.192C9574.03 455.192 9576.46 455.004 9578.81 454.628C9585.97 466.975 9602.11 475.564 9620.92 475.564C9634.51 475.564 9646.65 471.055 9655.11 463.915C9661.78 477.443 9678.83 487.079 9698.84 487.079C9709.54 487.079 9719.33 484.314 9727.23 479.698C9734.07 485.495 9743.97 489.173 9754.99 489.173C9759.2 489.173 9763.24 488.609 9766.99 487.643C9773.56 502.352 9791.77 512.954 9813.22 512.954C9837.61 512.954 9857.79 499.292 9861.44 481.416C9870.35 486.811 9881.62 490.058 9893.87 490.058C9914.08 490.058 9931.59 481.281 9940.33 468.424C9941.7 468.505 9943.07 468.585 9944.48 468.585C9969.5 468.585 9990.49 455.487 9996.49 437.772C10014 435.678 10027.5 424.056 10027.5 410.018Z" fill="white"/>
<path d="M11044.5 413.484C11044.5 413.457 11044.5 413.431 11044.5 413.377C11044.5 390.776 11020.5 372.444 10991 372.444C10965.6 372.444 10944.5 385.918 10938.9 404.009C10933.7 401.057 10927.2 399.285 10920.2 399.285C10917.4 399.285 10914.6 399.607 10912 400.117C10904 395.393 10894 392.575 10883.2 392.575C10857 392.575 10835.8 408.787 10835.8 428.811C10835.8 429.079 10835.8 429.321 10835.8 429.589C10829.3 434.018 10825.3 440.433 10825.3 447.6C10825.3 460.94 10839.4 471.757 10856.8 471.757C10864.4 471.757 10871.2 469.744 10876.7 466.389C10876.4 467.731 10876.2 469.1 10876.2 470.522C10876.2 483.057 10889.5 493.23 10905.8 493.23C10914.1 493.23 10921.6 490.626 10927 486.439C10929.5 487.808 10932.7 488.64 10936.1 488.64C10939.7 488.64 10943 487.674 10945.7 486.117C10951.1 490.492 10958.7 493.23 10967.2 493.23C10973.5 493.23 10979.4 491.727 10984.1 489.177C10989.8 491.754 10996.4 493.23 11003.4 493.23C11020 493.23 11034 485.043 11039.1 473.663C11040.1 473.716 11041 473.77 11042 473.77C11063.8 473.77 11081.5 460.242 11081.5 443.573C11081.5 427.576 11065.1 414.504 11044.5 413.484Z" fill="white"/>
<path d="M10438.3 141.512C10438.6 139.955 10438.8 138.371 10438.8 136.761C10438.8 120.898 10422 108.041 10401.3 108.041C10397.6 108.041 10394.1 108.47 10390.8 109.195C10380.3 99.4782 10364.4 93.2778 10346.7 93.2778C10318.6 93.2778 10295.3 108.873 10290.6 129.379C10281.7 133.62 10275.7 141.136 10275.7 149.752C10275.7 149.779 10275.7 149.806 10275.7 149.859C10260.9 150.826 10249.3 160.301 10249.3 171.843C10249.3 183.411 10261 192.913 10275.8 193.852C10281 203.086 10293.1 209.528 10307.1 209.528C10318.9 209.528 10329.3 204.938 10335.4 197.959C10342.5 204.509 10353.2 208.696 10365.2 208.696C10375.8 208.696 10385.3 205.421 10392.3 200.16C10399.2 203.435 10407.2 205.341 10415.9 205.341C10440.7 205.341 10460.7 190.014 10460.7 171.118C10460.7 158.476 10451.6 147.444 10438.3 141.512Z" fill="white"/>
<path d="M4392.41 403.284C4390.17 403.284 4387.96 403.445 4385.82 403.659C4376.38 390.131 4357.74 380.925 4336.26 380.925C4328.5 380.925 4321.13 382.133 4314.4 384.307C4294.95 364.847 4264.28 352.312 4229.81 352.312C4195.42 352.312 4164.89 364.793 4145.41 384.146C4140.07 382.133 4134.11 380.952 4127.75 380.952C4111.75 380.952 4097.99 388.199 4091.67 398.613C4086.83 397.62 4081.78 397.056 4076.55 397.056C4044.22 397.056 4018.04 417.08 4018.04 441.801C4018.04 466.522 4044.22 486.546 4076.55 486.546C4081.92 486.546 4087.11 485.955 4092.03 484.908C4100.38 496.504 4116.52 504.395 4135.05 504.395C4145.65 504.395 4155.44 501.792 4163.48 497.416C4181.66 508.502 4204.72 515.159 4229.78 515.159C4257.15 515.159 4282.11 507.24 4300.95 494.276C4308.99 498.409 4318.64 500.852 4329.07 500.852C4349.63 500.852 4367.29 491.404 4375.08 477.903C4380.48 479.406 4386.27 480.292 4392.38 480.292C4420.18 480.292 4442.67 463.059 4442.67 441.828C4442.71 420.489 4420.21 403.284 4392.41 403.284Z" fill="white"/>
<path d="M7800.56 101.809C7800.56 81.9199 7779.47 65.7883 7753.46 65.7883C7752.2 65.7883 7750.97 65.8688 7749.71 65.9225C7749.71 65.8688 7749.71 65.8151 7749.71 65.7883C7749.71 41.7652 7724.26 22.3052 7692.85 22.3052C7681.02 22.3052 7670.04 25.0699 7660.95 29.794C7648.07 12.025 7623.29 0 7594.86 0C7567.14 0 7542.92 11.4344 7529.79 28.4519C7520.98 24.5599 7510.77 22.3052 7499.89 22.3052C7467.18 22.3052 7440.65 42.3557 7440.09 67.2645C7412.57 72.606 7392.18 91.6633 7392.18 114.398C7392.18 141.239 7420.64 163.008 7455.74 163.008C7458.13 163.008 7460.48 162.9 7462.83 162.712C7471.85 170.577 7485.12 175.543 7499.86 175.543C7513.93 175.543 7526.63 171.006 7535.62 163.759C7549.66 176.831 7570.96 185.179 7594.83 185.179C7613.46 185.179 7630.55 180.079 7643.82 171.624C7655.68 176.563 7669.27 179.381 7683.73 179.381C7719.91 179.381 7750.69 161.773 7762.31 137.159C7784.1 133.992 7800.56 119.39 7800.56 101.809Z" fill="white"/>
<path d="M5155.63 177.828C5155.63 158.395 5135.07 142.666 5109.66 142.666C5104.01 142.666 5098.6 143.444 5093.58 144.867C5085.83 131.339 5068.17 121.891 5047.61 121.891C5044.91 121.891 5042.27 122.052 5039.71 122.374C5029.6 105.222 5007.04 93.2778 4980.85 93.2778C4952.64 93.2778 4928.67 107.128 4919.89 126.427C4919.16 126.4 4918.42 126.373 4917.65 126.373C4890.76 126.373 4868.97 143.042 4868.97 163.602C4868.97 164.944 4869.07 166.26 4869.25 167.575C4852.26 173.936 4840.57 187.276 4840.57 202.71C4840.57 224.291 4863.46 241.791 4891.67 241.791C4900.52 241.791 4908.84 240.073 4916.1 237.04C4922.59 242.731 4932.14 246.327 4942.81 246.327C4951.06 246.327 4958.64 244.153 4964.64 240.557C4976.92 247.992 4993.45 252.528 5011.6 252.528C5029.64 252.528 5046.03 248.045 5058.28 240.718C5062.21 241.576 5066.31 242.06 5070.6 242.06C5093.06 242.06 5111.59 229.31 5114.61 212.776C5137.7 210.897 5155.63 195.973 5155.63 177.828Z" fill="white"/>
<path d="M6008.55 410.018C6008.55 399.308 6000.76 389.994 5989.29 385.243C5992.58 380.975 5994.51 375.983 5994.51 370.641C5994.51 354.778 5977.7 341.921 5956.96 341.921C5944.68 341.921 5933.83 346.43 5926.99 353.409C5925.27 353.57 5923.55 353.838 5921.94 354.214C5921.94 353.865 5922.01 353.543 5922.01 353.194C5922.01 334.915 5902.63 320.099 5878.73 320.099C5868.13 320.099 5858.41 323.025 5850.9 327.883C5840.34 309.094 5815.94 295.942 5787.48 295.942C5766.49 295.942 5747.72 303.135 5735.05 314.462C5729.92 312.932 5724.31 312.046 5718.48 312.046C5693.28 312.046 5672.86 327.668 5672.86 346.94C5672.86 347.611 5672.93 348.255 5673 348.9C5671.87 348.792 5670.75 348.739 5669.59 348.739C5654.43 348.739 5642.01 357.623 5640.71 368.95C5635.3 364.253 5627.41 361.247 5618.56 361.247C5611.4 361.247 5604.84 363.206 5599.75 366.427C5594.77 363.179 5588.31 361.247 5581.26 361.247C5568.94 361.247 5558.44 367.206 5554.41 375.553C5549.39 372.466 5543.04 370.641 5536.09 370.641C5523.31 370.641 5512.47 376.895 5508.43 385.646C5502.71 383.23 5496.18 381.834 5489.2 381.834C5467.23 381.834 5449.43 395.443 5449.43 412.245C5449.43 429.048 5467.23 442.657 5489.2 442.657C5500.11 442.657 5509.98 439.301 5517.17 433.853C5521.03 446.092 5535.42 455.192 5552.62 455.192C5555.11 455.192 5557.53 455.004 5559.88 454.628C5567.04 466.975 5583.19 475.564 5602 475.564C5615.58 475.564 5627.72 471.055 5636.18 463.915C5642.85 477.443 5659.91 487.079 5679.91 487.079C5690.62 487.079 5700.41 484.314 5708.3 479.698C5715.15 485.495 5725.05 489.173 5736.07 489.173C5740.28 489.173 5744.31 488.609 5748.07 487.643C5754.63 502.352 5772.85 512.954 5794.29 512.954C5818.68 512.954 5838.86 499.292 5842.51 481.416C5851.43 486.811 5862.69 490.058 5874.94 490.058C5895.16 490.058 5912.67 481.281 5921.41 468.424C5922.78 468.505 5924.15 468.585 5925.55 468.585C5950.57 468.585 5971.56 455.487 5977.56 437.772C5995.08 435.678 6008.55 424.056 6008.55 410.018Z" fill="white"/>
<path d="M7025.58 413.484C7025.58 413.457 7025.58 413.431 7025.58 413.377C7025.58 390.776 7001.61 372.444 6972.06 372.444C6946.72 372.444 6925.56 385.918 6920.01 404.009C6914.75 401.057 6908.29 399.285 6901.24 399.285C6898.43 399.285 6895.69 399.607 6893.1 400.117C6885.09 395.393 6875.09 392.575 6864.25 392.575C6838.06 392.575 6816.87 408.787 6816.87 428.811C6816.87 429.079 6816.9 429.321 6816.9 429.589C6810.41 434.018 6806.34 440.433 6806.34 447.6C6806.34 460.94 6820.48 471.757 6837.92 471.757C6845.43 471.757 6852.31 469.744 6857.75 466.389C6857.44 467.731 6857.23 469.1 6857.23 470.522C6857.23 483.057 6870.53 493.23 6886.92 493.23C6895.2 493.23 6902.68 490.626 6908.05 486.439C6910.61 487.808 6913.73 488.64 6917.14 488.64C6920.75 488.64 6924.05 487.674 6926.75 486.117C6932.16 490.492 6939.81 493.23 6948.3 493.23C6954.58 493.23 6960.44 491.727 6965.22 489.177C6970.87 491.754 6977.43 493.23 6984.45 493.23C7001.05 493.23 7015.09 485.043 7020.14 473.663C7021.13 473.716 7022.07 473.77 7023.06 473.77C7044.85 473.77 7062.54 460.242 7062.54 443.573C7062.54 427.576 7046.22 414.504 7025.58 413.484Z" fill="white"/>
<path d="M6419.35 141.512C6419.7 139.955 6419.91 138.371 6419.91 136.761C6419.91 120.898 6403.1 108.041 6382.35 108.041C6378.7 108.041 6375.16 108.47 6371.83 109.195C6361.37 99.4782 6345.5 93.2778 6327.78 93.2778C6299.63 93.2778 6276.33 108.873 6271.66 129.379C6262.75 133.62 6256.78 141.136 6256.78 149.752C6256.78 149.779 6256.78 149.806 6256.78 149.859C6242 150.826 6230.39 160.301 6230.39 171.843C6230.39 183.411 6242.04 192.913 6256.85 193.852C6262.11 203.086 6274.15 209.528 6288.16 209.528C6299.98 209.528 6310.37 204.938 6316.51 197.959C6323.57 204.509 6334.27 208.696 6346.28 208.696C6356.84 208.696 6366.42 205.421 6373.4 200.16C6380.25 203.435 6388.32 205.341 6397.02 205.341C6421.73 205.341 6441.77 190.014 6441.77 171.118C6441.74 158.476 6432.72 147.444 6419.35 141.512Z" fill="white"/>
<path d="M374.372 403.284C372.126 403.284 369.914 403.445 367.774 403.659C358.333 390.131 339.697 380.925 318.218 380.925C310.461 380.925 303.091 382.133 296.353 384.307C276.909 364.847 246.235 352.312 211.771 352.312C177.376 352.312 146.843 364.793 127.364 384.146C122.03 382.133 116.063 380.952 109.711 380.952C93.707 380.952 79.9493 388.199 73.632 398.613C68.7887 397.62 63.7348 397.056 58.5054 397.056C26.1818 397.056 0 417.08 0 441.801C0 466.522 26.1818 486.546 58.5054 486.546C63.8752 486.546 69.0694 485.955 73.9829 484.908C82.3358 496.504 98.4801 504.395 117.011 504.395C127.61 504.395 137.402 501.792 145.439 497.416C163.619 508.502 186.677 515.159 211.736 515.159C239.111 515.159 264.064 507.24 282.911 494.276C290.948 498.409 300.599 500.852 311.023 500.852C331.589 500.852 349.243 491.404 357.034 477.903C362.439 479.406 368.23 480.292 374.337 480.292C402.133 480.292 424.63 463.059 424.63 441.828C424.665 420.489 402.168 403.284 374.372 403.284Z" fill="white"/>
<path d="M3782.52 101.809C3782.52 81.9199 3761.42 65.7883 3735.42 65.7883C3734.15 65.7883 3732.93 65.8688 3731.66 65.9225C3731.66 65.8688 3731.66 65.8151 3731.66 65.7883C3731.66 41.7652 3706.22 22.3052 3674.81 22.3052C3662.98 22.3052 3651.99 25.0699 3642.9 29.794C3630.02 12.025 3605.25 0 3576.82 0C3549.09 0 3524.88 11.4344 3511.75 28.4519C3502.94 24.5599 3492.73 22.3052 3481.85 22.3052C3449.14 22.3052 3422.61 42.3557 3422.04 67.2645C3394.53 72.606 3374.14 91.6633 3374.14 114.398C3374.14 141.239 3402.6 163.008 3437.7 163.008C3440.08 163.008 3442.43 162.9 3444.79 162.712C3453.81 170.577 3467.07 175.543 3481.81 175.543C3495.89 175.543 3508.59 171.006 3517.58 163.759C3531.61 176.831 3552.92 185.179 3576.78 185.179C3595.42 185.179 3612.51 180.079 3625.78 171.624C3637.64 176.563 3651.22 179.381 3665.68 179.381C3701.87 179.381 3732.65 161.773 3744.26 137.159C3766.06 133.992 3782.52 119.39 3782.52 101.809Z" fill="white"/>
<path d="M1137.59 177.828C1137.59 158.395 1117.03 142.666 1091.62 142.666C1085.97 142.666 1080.56 143.444 1075.54 144.867C1067.79 131.339 1050.13 121.891 1029.57 121.891C1026.86 121.891 1024.23 122.052 1021.67 122.374C1011.56 105.222 988.994 93.2778 962.812 93.2778C934.595 93.2778 910.624 107.128 901.85 126.427C901.113 126.4 900.376 126.373 899.604 126.373C872.72 126.373 850.926 143.042 850.926 163.602C850.926 164.944 851.031 166.26 851.206 167.575C834.22 173.936 822.533 187.276 822.533 202.71C822.533 224.291 845.415 241.791 873.633 241.791C882.477 241.791 890.795 240.073 898.06 237.04C904.553 242.731 914.099 246.327 924.768 246.327C933.016 246.327 940.597 244.153 946.598 240.557C958.882 247.992 975.412 252.528 993.557 252.528C1011.6 252.528 1027.99 248.045 1040.23 240.718C1044.17 241.576 1048.27 242.06 1052.55 242.06C1075.02 242.06 1093.55 229.31 1096.56 212.776C1119.66 210.897 1137.59 195.973 1137.59 177.828Z" fill="white"/>
<path d="M1990.51 410.018C1990.51 399.308 1982.72 389.994 1971.24 385.243C1974.54 380.975 1976.47 375.983 1976.47 370.641C1976.47 354.778 1959.66 341.921 1938.92 341.921C1926.63 341.921 1915.79 346.43 1908.95 353.409C1907.23 353.57 1905.51 353.838 1903.89 354.214C1903.89 353.865 1903.96 353.543 1903.96 353.194C1903.96 334.915 1884.59 320.099 1860.69 320.099C1850.09 320.099 1840.37 323.025 1832.86 327.883C1822.29 309.094 1797.9 295.942 1769.44 295.942C1748.45 295.942 1729.67 303.135 1717 314.462C1711.88 312.932 1706.27 312.046 1700.44 312.046C1675.24 312.046 1654.81 327.668 1654.81 346.94C1654.81 347.611 1654.88 348.255 1654.95 348.9C1653.83 348.792 1652.71 348.739 1651.55 348.739C1636.39 348.739 1623.96 357.623 1622.67 368.95C1617.26 364.253 1609.36 361.247 1600.52 361.247C1593.36 361.247 1586.8 363.206 1581.71 366.427C1576.73 363.179 1570.27 361.247 1563.21 361.247C1550.89 361.247 1540.4 367.206 1536.36 375.553C1531.35 372.466 1524.99 370.641 1518.04 370.641C1505.27 370.641 1494.42 376.895 1490.39 385.646C1484.67 383.23 1478.14 381.834 1471.16 381.834C1449.19 381.834 1431.39 395.443 1431.39 412.245C1431.39 429.048 1449.19 442.657 1471.16 442.657C1482.07 442.657 1491.93 439.301 1499.13 433.853C1502.99 446.092 1517.38 455.192 1534.57 455.192C1537.07 455.192 1539.49 455.004 1541.84 454.628C1549 466.975 1565.14 475.564 1583.96 475.564C1597.54 475.564 1609.68 471.055 1618.14 463.915C1624.81 477.443 1641.86 487.079 1661.87 487.079C1672.57 487.079 1682.36 484.314 1690.26 479.698C1697.11 485.495 1707 489.173 1718.02 489.173C1722.23 489.173 1726.27 488.609 1730.03 487.643C1736.59 502.352 1754.8 512.954 1776.25 512.954C1800.64 512.954 1820.82 499.292 1824.47 481.416C1833.38 486.811 1844.65 490.058 1856.9 490.058C1877.11 490.058 1894.63 481.281 1903.37 468.424C1904.73 468.505 1906.1 468.585 1907.51 468.585C1932.53 468.585 1953.52 455.487 1959.52 437.772C1977.03 435.678 1990.51 424.056 1990.51 410.018Z" fill="white"/>
<path d="M3007.54 413.484C3007.54 413.457 3007.54 413.431 3007.54 413.377C3007.54 390.776 2983.57 372.444 2954.02 372.444C2928.68 372.444 2907.52 385.918 2901.97 404.009C2896.71 401.057 2890.25 399.285 2883.19 399.285C2880.39 399.285 2877.65 399.607 2875.05 400.117C2867.05 395.393 2857.05 392.575 2846.2 392.575C2820.02 392.575 2798.82 408.787 2798.82 428.811C2798.82 429.079 2798.86 429.321 2798.86 429.589C2792.37 434.018 2788.29 440.433 2788.29 447.6C2788.29 460.94 2802.44 471.757 2819.88 471.757C2827.39 471.757 2834.27 469.744 2839.71 466.389C2839.39 467.731 2839.18 469.1 2839.18 470.522C2839.18 483.057 2852.49 493.23 2868.88 493.23C2877.16 493.23 2884.63 490.626 2890 486.439C2892.57 487.808 2895.69 488.64 2899.09 488.64C2902.71 488.64 2906.01 487.674 2908.71 486.117C2914.11 490.492 2921.77 493.23 2930.26 493.23C2936.54 493.23 2942.4 491.727 2947.18 489.177C2952.83 491.754 2959.39 493.23 2966.41 493.23C2983.01 493.23 2997.05 485.043 3002.1 473.663C3003.08 473.716 3004.03 473.77 3005.01 473.77C3026.81 473.77 3044.5 460.242 3044.5 443.573C3044.5 427.576 3028.18 414.504 3007.54 413.484Z" fill="white"/>
<path d="M2401.3 141.512C2401.65 139.955 2401.86 138.371 2401.86 136.761C2401.86 120.898 2385.05 108.041 2364.31 108.041C2360.66 108.041 2357.12 108.47 2353.78 109.195C2343.32 99.4782 2327.46 93.2778 2309.74 93.2778C2281.59 93.2778 2258.29 108.873 2253.62 129.379C2244.7 133.62 2238.74 141.136 2238.74 149.752C2238.74 149.779 2238.74 149.806 2238.74 149.859C2223.96 150.826 2212.34 160.301 2212.34 171.843C2212.34 183.411 2224 192.913 2238.81 193.852C2244.07 203.086 2256.11 209.528 2270.11 209.528C2281.94 209.528 2292.33 204.938 2298.47 197.959C2305.52 204.509 2316.23 208.696 2328.23 208.696C2338.8 208.696 2348.38 205.421 2355.36 200.16C2362.21 203.435 2370.28 205.341 2378.98 205.341C2403.69 205.341 2423.73 190.014 2423.73 171.118C2423.69 158.476 2414.67 147.444 2401.3 141.512Z" fill="white"/>
<path d="M17049 403.284C17046.8 403.284 17044.6 403.445 17042.4 403.659C17033 390.131 17014.4 380.925 16992.9 380.925C16985.1 380.925 16977.7 382.133 16971 384.307C16951.6 364.847 16920.9 352.312 16886.4 352.312C16852 352.312 16821.5 364.793 16802 384.146C16796.7 382.133 16790.7 380.952 16784.4 380.952C16768.4 380.952 16754.6 388.199 16748.3 398.613C16743.4 397.62 16738.4 397.056 16733.2 397.056C16700.8 397.056 16674.7 417.08 16674.7 441.801C16674.7 466.522 16700.8 486.546 16733.2 486.546C16738.5 486.546 16743.7 485.955 16748.6 484.908C16757 496.504 16773.1 504.395 16791.7 504.395C16802.3 504.395 16812.1 501.792 16820.1 497.416C16838.3 508.502 16861.3 515.159 16886.4 515.159C16913.8 515.159 16938.7 507.24 16957.6 494.276C16965.6 498.409 16975.3 500.852 16985.7 500.852C17006.2 500.852 17023.9 491.404 17031.7 477.903C17037.1 479.406 17042.9 480.292 17049 480.292C17076.8 480.292 17099.3 463.059 17099.3 441.828C17099.3 420.489 17076.8 403.284 17049 403.284Z" fill="white"/>
<path d="M20457.2 101.809C20457.2 81.9199 20436.1 65.7883 20410.1 65.7883C20408.8 65.7883 20407.6 65.8688 20406.3 65.9225C20406.3 65.8688 20406.3 65.8151 20406.3 65.7883C20406.3 41.7652 20380.9 22.3052 20349.5 22.3052C20337.6 22.3052 20326.7 25.0699 20317.6 29.794C20304.7 12.025 20279.9 0 20251.5 0C20223.8 0 20199.5 11.4344 20186.4 28.4519C20177.6 24.5599 20167.4 22.3052 20156.5 22.3052C20123.8 22.3052 20097.3 42.3557 20096.7 67.2645C20069.2 72.606 20048.8 91.6633 20048.8 114.398C20048.8 141.239 20077.3 163.008 20112.4 163.008C20114.7 163.008 20117.1 162.9 20119.4 162.712C20128.5 170.577 20141.7 175.543 20156.5 175.543C20170.5 175.543 20183.2 171.006 20192.2 163.759C20206.3 176.831 20227.6 185.179 20251.4 185.179C20270.1 185.179 20287.2 180.079 20300.4 171.624C20312.3 176.563 20325.9 179.381 20340.3 179.381C20376.5 179.381 20407.3 161.773 20418.9 137.159C20440.7 133.992 20457.2 119.39 20457.2 101.809Z" fill="white"/>
<path d="M17812.2 177.828C17812.2 158.395 17791.7 142.666 17766.3 142.666C17760.6 142.666 17755.2 143.444 17750.2 144.867C17742.4 131.339 17724.8 121.891 17704.2 121.891C17701.5 121.891 17698.9 122.052 17696.3 122.374C17686.2 105.222 17663.7 93.2778 17637.5 93.2778C17609.3 93.2778 17585.3 107.128 17576.5 126.427C17575.8 126.4 17575 126.373 17574.3 126.373C17547.4 126.373 17525.6 143.042 17525.6 163.602C17525.6 164.944 17525.7 166.26 17525.9 167.575C17508.9 173.936 17497.2 187.276 17497.2 202.71C17497.2 224.291 17520.1 241.791 17548.3 241.791C17557.1 241.791 17565.5 240.073 17572.7 237.04C17579.2 242.731 17588.8 246.327 17599.4 246.327C17607.7 246.327 17615.3 244.153 17621.3 240.557C17633.5 247.992 17650.1 252.528 17668.2 252.528C17686.3 252.528 17702.6 248.045 17714.9 240.718C17718.8 241.576 17722.9 242.06 17727.2 242.06C17749.7 242.06 17768.2 229.31 17771.2 212.776C17794.3 210.897 17812.2 195.973 17812.2 177.828Z" fill="white"/>
<path d="M18665.2 410.018C18665.2 399.308 18657.4 389.994 18645.9 385.243C18649.2 380.975 18651.1 375.983 18651.1 370.641C18651.1 354.778 18634.3 341.921 18613.6 341.921C18601.3 341.921 18590.4 346.43 18583.6 353.409C18581.9 353.57 18580.2 353.838 18578.5 354.214C18578.5 353.865 18578.6 353.543 18578.6 353.194C18578.6 334.915 18559.2 320.099 18535.3 320.099C18524.7 320.099 18515 323.025 18507.5 327.883C18497 309.094 18472.6 295.942 18444.1 295.942C18423.1 295.942 18404.3 303.135 18391.7 314.462C18386.5 312.932 18380.9 312.046 18375.1 312.046C18349.9 312.046 18329.5 327.668 18329.5 346.94C18329.5 347.611 18329.5 348.255 18329.6 348.9C18328.5 348.792 18327.4 348.739 18326.2 348.739C18311 348.739 18298.6 357.623 18297.3 368.95C18291.9 364.253 18284 361.247 18275.2 361.247C18268 361.247 18261.5 363.206 18256.4 366.427C18251.4 363.179 18244.9 361.247 18237.9 361.247C18225.6 361.247 18215.1 367.206 18211 375.553C18206 372.466 18199.7 370.641 18192.7 370.641C18179.9 370.641 18169.1 376.895 18165 385.646C18159.3 383.23 18152.8 381.834 18145.8 381.834C18123.8 381.834 18106 395.443 18106 412.245C18106 429.048 18123.8 442.657 18145.8 442.657C18156.7 442.657 18166.6 439.301 18173.8 433.853C18177.6 446.092 18192 455.192 18209.2 455.192C18211.7 455.192 18214.1 455.004 18216.5 454.628C18223.7 466.975 18239.8 475.564 18258.6 475.564C18272.2 475.564 18284.3 471.055 18292.8 463.915C18299.5 477.443 18316.5 487.079 18336.5 487.079C18347.2 487.079 18357 484.314 18364.9 479.698C18371.8 485.495 18381.7 489.173 18392.7 489.173C18396.9 489.173 18400.9 488.609 18404.7 487.643C18411.2 502.352 18429.5 512.954 18450.9 512.954C18475.3 512.954 18495.5 499.292 18499.1 481.416C18508 486.811 18519.3 490.058 18531.6 490.058C18551.8 490.058 18569.3 481.281 18578 468.424C18579.4 468.505 18580.8 468.585 18582.2 468.585C18607.2 468.585 18628.2 455.487 18634.2 437.772C18651.7 435.678 18665.2 424.056 18665.2 410.018Z" fill="white"/>
<path d="M19682.2 413.484C19682.2 413.457 19682.2 413.431 19682.2 413.377C19682.2 390.776 19658.2 372.444 19628.7 372.444C19603.3 372.444 19582.2 385.918 19576.6 404.009C19571.4 401.057 19564.9 399.285 19557.9 399.285C19555 399.285 19552.3 399.607 19549.7 400.117C19541.7 395.393 19531.7 392.575 19520.9 392.575C19494.7 392.575 19473.5 408.787 19473.5 428.811C19473.5 429.079 19473.5 429.321 19473.5 429.589C19467 434.018 19463 440.433 19463 447.6C19463 460.94 19477.1 471.757 19494.5 471.757C19502 471.757 19508.9 469.744 19514.4 466.389C19514.1 467.731 19513.8 469.1 19513.8 470.522C19513.8 483.057 19527.1 493.23 19543.5 493.23C19551.8 493.23 19559.3 490.626 19564.7 486.439C19567.2 487.808 19570.3 488.64 19573.8 488.64C19577.4 488.64 19580.7 487.674 19583.4 486.117C19588.8 490.492 19596.4 493.23 19604.9 493.23C19611.2 493.23 19617.1 491.727 19621.8 489.177C19627.5 491.754 19634 493.23 19641.1 493.23C19657.7 493.23 19671.7 485.043 19676.8 473.663C19677.7 473.716 19678.7 473.77 19679.7 473.77C19701.5 473.77 19719.2 460.242 19719.2 443.573C19719.2 427.576 19702.8 414.504 19682.2 413.484Z" fill="white"/>
<path d="M19076 141.512C19076.3 139.955 19076.5 138.371 19076.5 136.761C19076.5 120.898 19059.7 108.041 19039 108.041C19035.3 108.041 19031.8 108.47 19028.4 109.195C19018 99.4782 19002.1 93.2778 18984.4 93.2778C18956.2 93.2778 18932.9 108.873 18928.3 129.379C18919.4 133.62 18913.4 141.136 18913.4 149.752C18913.4 149.779 18913.4 149.806 18913.4 149.859C18898.6 150.826 18887 160.301 18887 171.843C18887 183.411 18898.7 192.913 18913.5 193.852C18918.7 203.086 18930.8 209.528 18944.8 209.528C18956.6 209.528 18967 204.938 18973.1 197.959C18980.2 204.509 18990.9 208.696 19002.9 208.696C19013.5 208.696 19023 205.421 19030 200.16C19036.9 203.435 19044.9 205.341 19053.6 205.341C19078.3 205.341 19098.4 190.014 19098.4 171.118C19098.4 158.476 19089.3 147.444 19076 141.512Z" fill="white"/>
<path d="M21308.8 403.284C21306.5 403.284 21304.3 403.445 21302.2 403.659C21292.7 390.131 21274.1 380.925 21252.6 380.925C21244.9 380.925 21237.5 382.133 21230.8 384.307C21211.3 364.847 21180.6 352.312 21146.2 352.312C21111.8 352.312 21081.2 364.793 21061.8 384.146C21056.4 382.133 21050.5 380.952 21044.1 380.952C21028.1 380.952 21014.3 388.199 21008 398.613C21003.2 397.62 20998.1 397.056 20992.9 397.056C20960.6 397.056 20934.4 417.08 20934.4 441.801C20934.4 466.522 20960.6 486.546 20992.9 486.546C20998.3 486.546 21003.5 485.955 21008.4 484.908C21016.7 496.504 21032.9 504.395 21051.4 504.395C21062 504.395 21071.8 501.792 21079.8 497.416C21098 508.502 21121.1 515.159 21146.1 515.159C21173.5 515.159 21198.5 507.24 21217.3 494.276C21225.3 498.409 21235 500.852 21245.4 500.852C21266 500.852 21283.6 491.404 21291.4 477.903C21296.8 479.406 21302.6 480.292 21308.7 480.292C21336.5 480.292 21359 463.059 21359 441.828C21359.1 420.489 21336.6 403.284 21308.8 403.284Z" fill="white"/>
<path d="M24716.9 101.809C24716.9 81.9199 24695.8 65.7883 24669.8 65.7883C24668.6 65.7883 24667.3 65.8688 24666.1 65.9225C24666.1 65.8688 24666.1 65.8151 24666.1 65.7883C24666.1 41.7652 24640.6 22.3052 24609.2 22.3052C24597.4 22.3052 24586.4 25.0699 24577.3 29.794C24564.4 12.025 24539.6 0 24511.2 0C24483.5 0 24459.3 11.4344 24446.2 28.4519C24437.3 24.5599 24427.1 22.3052 24416.2 22.3052C24383.5 22.3052 24357 42.3557 24356.4 67.2645C24328.9 72.606 24308.5 91.6633 24308.5 114.398C24308.5 141.239 24337 163.008 24372.1 163.008C24374.5 163.008 24376.8 162.9 24379.2 162.712C24388.2 170.577 24401.5 175.543 24416.2 175.543C24430.3 175.543 24443 171.006 24452 163.759C24466 176.831 24487.3 185.179 24511.2 185.179C24529.8 185.179 24546.9 180.079 24560.2 171.624C24572 176.563 24585.6 179.381 24600.1 179.381C24636.3 179.381 24667 161.773 24678.7 137.159C24700.5 133.992 24716.9 119.39 24716.9 101.809Z" fill="white"/>
<path d="M22072 177.828C22072 158.395 22051.4 142.666 22026 142.666C22020.4 142.666 22015 143.444 22009.9 144.867C22002.2 131.339 21984.5 121.891 21964 121.891C21961.3 121.891 21958.6 122.052 21956.1 122.374C21946 105.222 21923.4 93.2778 21897.2 93.2778C21869 93.2778 21845 107.128 21836.3 126.427C21835.5 126.4 21834.8 126.373 21834 126.373C21807.1 126.373 21785.3 143.042 21785.3 163.602C21785.3 164.944 21785.4 166.26 21785.6 167.575C21768.6 173.936 21756.9 187.276 21756.9 202.71C21756.9 224.291 21779.8 241.791 21808 241.791C21816.9 241.791 21825.2 240.073 21832.5 237.04C21839 242.731 21848.5 246.327 21859.2 246.327C21867.4 246.327 21875 244.153 21881 240.557C21893.3 247.992 21909.8 252.528 21928 252.528C21946 252.528 21962.4 248.045 21974.6 240.718C21978.6 241.576 21982.7 242.06 21987 242.06C22009.4 242.06 22027.9 229.31 22031 212.776C22054.1 210.897 22072 195.973 22072 177.828Z" fill="white"/>
<path d="M22924.9 410.018C22924.9 399.308 22917.1 389.994 22905.6 385.243C22908.9 380.975 22910.9 375.983 22910.9 370.641C22910.9 354.778 22894.1 341.921 22873.3 341.921C22861 341.921 22850.2 346.43 22843.3 353.409C22841.6 353.57 22839.9 353.838 22838.3 354.214C22838.3 353.865 22838.4 353.543 22838.4 353.194C22838.4 334.915 22819 320.099 22795.1 320.099C22784.5 320.099 22774.8 323.025 22767.3 327.883C22756.7 309.094 22732.3 295.942 22703.8 295.942C22682.9 295.942 22664.1 303.135 22651.4 314.462C22646.3 312.932 22640.7 312.046 22634.8 312.046C22609.6 312.046 22589.2 327.668 22589.2 346.94C22589.2 347.611 22589.3 348.255 22589.4 348.9C22588.2 348.792 22587.1 348.739 22586 348.739C22570.8 348.739 22558.4 357.623 22557.1 368.95C22551.7 364.253 22543.8 361.247 22534.9 361.247C22527.8 361.247 22521.2 363.206 22516.1 366.427C22511.1 363.179 22504.7 361.247 22497.6 361.247C22485.3 361.247 22474.8 367.206 22470.8 375.553C22465.7 372.466 22459.4 370.641 22452.4 370.641C22439.7 370.641 22428.8 376.895 22424.8 385.646C22419.1 383.23 22412.5 381.834 22405.6 381.834C22383.6 381.834 22365.8 395.443 22365.8 412.245C22365.8 429.048 22383.6 442.657 22405.6 442.657C22416.5 442.657 22426.3 439.301 22433.5 433.853C22437.4 446.092 22451.8 455.192 22469 455.192C22471.5 455.192 22473.9 455.004 22476.2 454.628C22483.4 466.975 22499.5 475.564 22518.4 475.564C22531.9 475.564 22544.1 471.055 22552.5 463.915C22559.2 477.443 22576.3 487.079 22596.3 487.079C22607 487.079 22616.8 484.314 22624.7 479.698C22631.5 485.495 22641.4 489.173 22652.4 489.173C22656.6 489.173 22660.7 488.609 22664.4 487.643C22671 502.352 22689.2 512.954 22710.6 512.954C22735 512.954 22755.2 499.292 22758.9 481.416C22767.8 486.811 22779 490.058 22791.3 490.058C22811.5 490.058 22829 481.281 22837.8 468.424C22839.1 468.505 22840.5 468.585 22841.9 468.585C22866.9 468.585 22887.9 455.487 22893.9 437.772C22911.4 435.678 22924.9 424.056 22924.9 410.018Z" fill="white"/>
<path d="M23941.9 413.484C23941.9 413.457 23941.9 413.431 23941.9 413.377C23941.9 390.776 23918 372.444 23888.4 372.444C23863.1 372.444 23841.9 385.918 23836.4 404.009C23831.1 401.057 23824.6 399.285 23817.6 399.285C23814.8 399.285 23812 399.607 23809.5 400.117C23801.5 395.393 23791.4 392.575 23780.6 392.575C23754.4 392.575 23733.2 408.787 23733.2 428.811C23733.2 429.079 23733.3 429.321 23733.3 429.589C23726.8 434.018 23722.7 440.433 23722.7 447.6C23722.7 460.94 23736.8 471.757 23754.3 471.757C23761.8 471.757 23768.7 469.744 23774.1 466.389C23773.8 467.731 23773.6 469.1 23773.6 470.522C23773.6 483.057 23786.9 493.23 23803.3 493.23C23811.6 493.23 23819 490.626 23824.4 486.439C23827 487.808 23830.1 488.64 23833.5 488.64C23837.1 488.64 23840.4 487.674 23843.1 486.117C23848.5 490.492 23856.2 493.23 23864.7 493.23C23870.9 493.23 23876.8 491.727 23881.6 489.177C23887.2 491.754 23893.8 493.23 23900.8 493.23C23917.4 493.23 23931.4 485.043 23936.5 473.663C23937.5 473.716 23938.4 473.77 23939.4 473.77C23961.2 473.77 23978.9 460.242 23978.9 443.573C23978.9 427.576 23962.6 414.504 23941.9 413.484Z" fill="white"/>
<path d="M23335.7 141.512C23336.1 139.955 23336.3 138.371 23336.3 136.761C23336.3 120.898 23319.5 108.041 23298.7 108.041C23295.1 108.041 23291.5 108.47 23288.2 109.195C23277.7 99.4782 23261.9 93.2778 23244.1 93.2778C23216 93.2778 23192.7 108.873 23188 129.379C23179.1 133.62 23173.1 141.136 23173.1 149.752C23173.1 149.779 23173.1 149.806 23173.1 149.859C23158.4 150.826 23146.7 160.301 23146.7 171.843C23146.7 183.411 23158.4 192.913 23173.2 193.852C23178.5 203.086 23190.5 209.528 23204.5 209.528C23216.3 209.528 23226.7 204.938 23232.9 197.959C23239.9 204.509 23250.6 208.696 23262.6 208.696C23273.2 208.696 23282.8 205.421 23289.8 200.16C23296.6 203.435 23304.7 205.341 23313.4 205.341C23338.1 205.341 23358.1 190.014 23358.1 171.118C23358.1 158.476 23349.1 147.444 23335.7 141.512Z" fill="white"/>
<path d="M25466.2 403.284C25463.9 403.284 25461.7 403.445 25459.6 403.659C25450.2 390.131 25431.5 380.925 25410 380.925C25402.3 380.925 25394.9 382.133 25388.2 384.307C25368.7 364.847 25338.1 352.312 25303.6 352.312C25269.2 352.312 25238.7 364.793 25219.2 384.146C25213.8 382.133 25207.9 380.952 25201.5 380.952C25185.5 380.952 25171.8 388.199 25165.4 398.613C25160.6 397.62 25155.6 397.056 25150.3 397.056C25118 397.056 25091.8 417.08 25091.8 441.801C25091.8 466.522 25118 486.546 25150.3 486.546C25155.7 486.546 25160.9 485.955 25165.8 484.908C25174.2 496.504 25190.3 504.395 25208.8 504.395C25219.4 504.395 25229.2 501.792 25237.3 497.416C25255.4 508.502 25278.5 515.159 25303.6 515.159C25330.9 515.159 25355.9 507.24 25374.7 494.276C25382.8 498.409 25392.4 500.852 25402.8 500.852C25423.4 500.852 25441.1 491.404 25448.9 477.903C25454.3 479.406 25460 480.292 25466.2 480.292C25494 480.292 25516.4 463.059 25516.4 441.828C25516.5 420.489 25494 403.284 25466.2 403.284Z" fill="white"/>
<path d="M28874.3 101.809C28874.3 81.9199 28853.2 65.7883 28827.2 65.7883C28826 65.7883 28824.7 65.8688 28823.5 65.9225C28823.5 65.8688 28823.5 65.8151 28823.5 65.7883C28823.5 41.7652 28798 22.3052 28766.6 22.3052C28754.8 22.3052 28743.8 25.0699 28734.7 29.794C28721.8 12.025 28697.1 0 28668.6 0C28640.9 0 28616.7 11.4344 28603.6 28.4519C28594.8 24.5599 28584.5 22.3052 28573.7 22.3052C28541 22.3052 28514.4 42.3557 28513.9 67.2645C28486.3 72.606 28466 91.6633 28466 114.398C28466 141.239 28494.4 163.008 28529.5 163.008C28531.9 163.008 28534.3 162.9 28536.6 162.712C28545.6 170.577 28558.9 175.543 28573.6 175.543C28587.7 175.543 28600.4 171.006 28609.4 163.759C28623.4 176.831 28644.7 185.179 28668.6 185.179C28687.2 185.179 28704.3 180.079 28717.6 171.624C28729.5 176.563 28743 179.381 28757.5 179.381C28793.7 179.381 28824.5 161.773 28836.1 137.159C28857.9 133.992 28874.3 119.39 28874.3 101.809Z" fill="white"/>
<path d="M26229.4 177.828C26229.4 158.395 26208.8 142.666 26183.4 142.666C26177.8 142.666 26172.4 143.444 26167.4 144.867C26159.6 131.339 26141.9 121.891 26121.4 121.891C26118.7 121.891 26116 122.052 26113.5 122.374C26103.4 105.222 26080.8 93.2778 26054.6 93.2778C26026.4 93.2778 26002.4 107.128 25993.7 126.427C25992.9 126.4 25992.2 126.373 25991.4 126.373C25964.5 126.373 25942.7 143.042 25942.7 163.602C25942.7 164.944 25942.8 166.26 25943 167.575C25926 173.936 25914.3 187.276 25914.3 202.71C25914.3 224.291 25937.2 241.791 25965.4 241.791C25974.3 241.791 25982.6 240.073 25989.9 237.04C25996.4 242.731 26005.9 246.327 26016.6 246.327C26024.8 246.327 26032.4 244.153 26038.4 240.557C26050.7 247.992 26067.2 252.528 26085.4 252.528C26103.4 252.528 26119.8 248.045 26132.1 240.718C26136 241.576 26140.1 242.06 26144.4 242.06C26166.8 242.06 26185.4 229.31 26188.4 212.776C26211.5 210.897 26229.4 195.973 26229.4 177.828Z" fill="white"/>
<path d="M27082.3 410.018C27082.3 399.308 27074.5 389.994 27063.1 385.243C27066.4 380.975 27068.3 375.983 27068.3 370.641C27068.3 354.778 27051.5 341.921 27030.7 341.921C27018.5 341.921 27007.6 346.43 27000.8 353.409C26999 353.57 26997.3 353.838 26995.7 354.214C26995.7 353.865 26995.8 353.543 26995.8 353.194C26995.8 334.915 26976.4 320.099 26952.5 320.099C26941.9 320.099 26932.2 323.025 26924.7 327.883C26914.1 309.094 26889.7 295.942 26861.3 295.942C26840.3 295.942 26821.5 303.135 26808.8 314.462C26803.7 312.932 26798.1 312.046 26792.3 312.046C26767.1 312.046 26746.6 327.668 26746.6 346.94C26746.6 347.611 26746.7 348.255 26746.8 348.9C26745.6 348.792 26744.5 348.739 26743.4 348.739C26728.2 348.739 26715.8 357.623 26714.5 368.95C26709.1 364.253 26701.2 361.247 26692.3 361.247C26685.2 361.247 26678.6 363.206 26673.5 366.427C26668.5 363.179 26662.1 361.247 26655 361.247C26642.7 361.247 26632.2 367.206 26628.2 375.553C26623.2 372.466 26616.8 370.641 26609.9 370.641C26597.1 370.641 26586.2 376.895 26582.2 385.646C26576.5 383.23 26570 381.834 26563 381.834C26541 381.834 26523.2 395.443 26523.2 412.245C26523.2 429.048 26541 442.657 26563 442.657C26573.9 442.657 26583.8 439.301 26590.9 433.853C26594.8 446.092 26609.2 455.192 26626.4 455.192C26628.9 455.192 26631.3 455.004 26633.7 454.628C26640.8 466.975 26657 475.564 26675.8 475.564C26689.4 475.564 26701.5 471.055 26710 463.915C26716.6 477.443 26733.7 487.079 26753.7 487.079C26764.4 487.079 26774.2 484.314 26782.1 479.698C26788.9 485.495 26798.8 489.173 26809.8 489.173C26814.1 489.173 26818.1 488.609 26821.8 487.643C26828.4 502.352 26846.6 512.954 26868.1 512.954C26892.5 512.954 26912.6 499.292 26916.3 481.416C26925.2 486.811 26936.5 490.058 26948.7 490.058C26968.9 490.058 26986.4 481.281 26995.2 468.424C26996.6 468.505 26997.9 468.585 26999.3 468.585C27024.3 468.585 27045.3 455.487 27051.3 437.772C27068.9 435.678 27082.3 424.056 27082.3 410.018Z" fill="white"/>
<path d="M28099.4 413.484C28099.4 413.457 28099.4 413.431 28099.4 413.377C28099.4 390.776 28075.4 372.444 28045.8 372.444C28020.5 372.444 27999.3 385.918 27993.8 404.009C27988.5 401.057 27982.1 399.285 27975 399.285C27972.2 399.285 27969.5 399.607 27966.9 400.117C27958.9 395.393 27948.9 392.575 27938 392.575C27911.8 392.575 27890.6 408.787 27890.6 428.811C27890.6 429.079 27890.7 429.321 27890.7 429.589C27884.2 434.018 27880.1 440.433 27880.1 447.6C27880.1 460.94 27894.3 471.757 27911.7 471.757C27919.2 471.757 27926.1 469.744 27931.5 466.389C27931.2 467.731 27931 469.1 27931 470.522C27931 483.057 27944.3 493.23 27960.7 493.23C27969 493.23 27976.5 490.626 27981.8 486.439C27984.4 487.808 27987.5 488.64 27990.9 488.64C27994.5 488.64 27997.8 487.674 28000.5 486.117C28005.9 490.492 28013.6 493.23 28022.1 493.23C28028.4 493.23 28034.2 491.727 28039 489.177C28044.6 491.754 28051.2 493.23 28058.2 493.23C28074.8 493.23 28088.9 485.043 28093.9 473.663C28094.9 473.716 28095.8 473.77 28096.8 473.77C28118.6 473.77 28136.3 460.242 28136.3 443.573C28136.3 427.576 28120 414.504 28099.4 413.484Z" fill="white"/>
<path d="M27493.1 141.512C27493.5 139.955 27493.7 138.371 27493.7 136.761C27493.7 120.898 27476.9 108.041 27456.1 108.041C27452.5 108.041 27448.9 108.47 27445.6 109.195C27435.1 99.4782 27419.3 93.2778 27401.6 93.2778C27373.4 93.2778 27350.1 108.873 27345.4 129.379C27336.5 133.62 27330.6 141.136 27330.6 149.752C27330.6 149.779 27330.6 149.806 27330.6 149.859C27315.8 150.826 27304.2 160.301 27304.2 171.843C27304.2 183.411 27315.8 192.913 27330.6 193.852C27335.9 203.086 27347.9 209.528 27361.9 209.528C27373.8 209.528 27384.1 204.938 27390.3 197.959C27397.3 204.509 27408 208.696 27420.1 208.696C27430.6 208.696 27440.2 205.421 27447.2 200.16C27454 203.435 27462.1 205.341 27470.8 205.341C27495.5 205.341 27515.5 190.014 27515.5 171.118C27515.5 158.476 27506.5 147.444 27493.1 141.512Z" fill="white"/>
<path d="M29359.9 403.284C29357.6 403.284 29355.4 403.445 29353.3 403.659C29343.8 390.131 29325.2 380.925 29303.7 380.925C29295.9 380.925 29288.6 382.133 29281.8 384.307C29262.4 364.847 29231.7 352.312 29197.3 352.312C29162.9 352.312 29132.3 364.793 29112.8 384.146C29107.5 382.133 29101.5 380.952 29095.2 380.952C29079.2 380.952 29065.4 388.199 29059.1 398.613C29054.3 397.62 29049.2 397.056 29044 397.056C29011.7 397.056 28985.5 417.08 28985.5 441.801C28985.5 466.522 29011.7 486.546 29044 486.546C29049.4 486.546 29054.6 485.955 29059.5 484.908C29067.8 496.504 29084 504.395 29102.5 504.395C29113.1 504.395 29122.9 501.792 29130.9 497.416C29149.1 508.502 29172.2 515.159 29197.2 515.159C29224.6 515.159 29249.5 507.24 29268.4 494.276C29276.4 498.409 29286.1 500.852 29296.5 500.852C29317.1 500.852 29334.7 491.404 29342.5 477.903C29347.9 479.406 29353.7 480.292 29359.8 480.292C29387.6 480.292 29410.1 463.059 29410.1 441.828C29410.1 420.489 29387.7 403.284 29359.9 403.284Z" fill="white"/>
<path d="M32768 101.809C32768 81.9199 32746.9 65.7883 32720.9 65.7883C32719.6 65.7883 32718.4 65.8688 32717.1 65.9225C32717.1 65.8688 32717.1 65.8151 32717.1 65.7883C32717.1 41.7652 32691.7 22.3052 32660.3 22.3052C32648.5 22.3052 32637.5 25.0699 32628.4 29.794C32615.5 12.025 32590.7 0 32562.3 0C32534.6 0 32510.4 11.4344 32497.2 28.4519C32488.4 24.5599 32478.2 22.3052 32467.3 22.3052C32434.6 22.3052 32408.1 42.3557 32407.5 67.2645C32380 72.606 32359.6 91.6633 32359.6 114.398C32359.6 141.239 32388.1 163.008 32423.2 163.008C32425.6 163.008 32427.9 162.9 32430.3 162.712C32439.3 170.577 32452.6 175.543 32467.3 175.543C32481.4 175.543 32494.1 171.006 32503.1 163.759C32517.1 176.831 32538.4 185.179 32562.3 185.179C32580.9 185.179 32598 180.079 32611.3 171.624C32623.1 176.563 32636.7 179.381 32651.2 179.381C32687.3 179.381 32718.1 161.773 32729.7 137.159C32751.5 133.992 32768 119.39 32768 101.809Z" fill="white"/>
<path d="M30123.1 177.828C30123.1 158.395 30102.5 142.666 30077.1 142.666C30071.4 142.666 30066 143.444 30061 144.867C30053.3 131.339 30035.6 121.891 30015 121.891C30012.3 121.891 30009.7 122.052 30007.2 122.374C29997 105.222 29974.5 93.2778 29948.3 93.2778C29920.1 93.2778 29896.1 107.128 29887.3 126.427C29886.6 126.4 29885.9 126.373 29885.1 126.373C29858.2 126.373 29836.4 143.042 29836.4 163.602C29836.4 164.944 29836.5 166.26 29836.7 167.575C29819.7 173.936 29808 187.276 29808 202.71C29808 224.291 29830.9 241.791 29859.1 241.791C29868 241.791 29876.3 240.073 29883.5 237.04C29890 242.731 29899.6 246.327 29910.2 246.327C29918.5 246.327 29926.1 244.153 29932.1 240.557C29944.4 247.992 29960.9 252.528 29979 252.528C29997.1 252.528 30013.5 248.045 30025.7 240.718C30029.6 241.576 30033.8 242.06 30038 242.06C30060.5 242.06 30079 229.31 30082 212.776C30105.1 210.897 30123.1 195.973 30123.1 177.828Z" fill="white"/>
<path d="M30976 410.018C30976 399.308 30968.2 389.994 30956.7 385.243C30960 380.975 30962 375.983 30962 370.641C30962 354.778 30945.1 341.921 30924.4 341.921C30912.1 341.921 30901.3 346.43 30894.4 353.409C30892.7 353.57 30891 353.838 30889.4 354.214C30889.4 353.865 30889.4 353.543 30889.4 353.194C30889.4 334.915 30870.1 320.099 30846.2 320.099C30835.6 320.099 30825.9 323.025 30818.3 327.883C30807.8 309.094 30783.4 295.942 30754.9 295.942C30733.9 295.942 30715.2 303.135 30702.5 314.462C30697.4 312.932 30691.7 312.046 30685.9 312.046C30660.7 312.046 30640.3 327.668 30640.3 346.94C30640.3 347.611 30640.4 348.255 30640.4 348.9C30639.3 348.792 30638.2 348.739 30637 348.739C30621.9 348.739 30609.4 357.623 30608.1 368.95C30602.7 364.253 30594.8 361.247 30586 361.247C30578.8 361.247 30572.3 363.206 30567.2 366.427C30562.2 363.179 30555.7 361.247 30548.7 361.247C30536.4 361.247 30525.9 367.206 30521.8 375.553C30516.8 372.466 30510.5 370.641 30503.5 370.641C30490.8 370.641 30479.9 376.895 30475.9 385.646C30470.2 383.23 30463.6 381.834 30456.6 381.834C30434.7 381.834 30416.9 395.443 30416.9 412.245C30416.9 429.048 30434.7 442.657 30456.6 442.657C30467.6 442.657 30477.4 439.301 30484.6 433.853C30488.5 446.092 30502.9 455.192 30520.1 455.192C30522.5 455.192 30525 455.004 30527.3 454.628C30534.5 466.975 30550.6 475.564 30569.4 475.564C30583 475.564 30595.2 471.055 30603.6 463.915C30610.3 477.443 30627.3 487.079 30647.4 487.079C30658.1 487.079 30667.8 484.314 30675.7 479.698C30682.6 485.495 30692.5 489.173 30703.5 489.173C30707.7 489.173 30711.8 488.609 30715.5 487.643C30722.1 502.352 30740.3 512.954 30761.7 512.954C30786.1 512.954 30806.3 499.292 30810 481.416C30818.9 486.811 30830.1 490.058 30842.4 490.058C30862.6 490.058 30880.1 481.281 30888.8 468.424C30890.2 468.505 30891.6 468.585 30893 468.585C30918 468.585 30939 455.487 30945 437.772C30962.5 435.678 30976 424.056 30976 410.018Z" fill="white"/>
<path d="M31993 413.484C31993 413.457 31993 413.431 31993 413.377C31993 390.776 31969.1 372.444 31939.5 372.444C31914.2 372.444 31893 385.918 31887.5 404.009C31882.2 401.057 31875.7 399.285 31868.7 399.285C31865.9 399.285 31863.1 399.607 31860.5 400.117C31852.5 395.393 31842.5 392.575 31831.7 392.575C31805.5 392.575 31784.3 408.787 31784.3 428.811C31784.3 429.079 31784.3 429.321 31784.3 429.589C31777.8 434.018 31773.8 440.433 31773.8 447.6C31773.8 460.94 31787.9 471.757 31805.4 471.757C31812.9 471.757 31819.8 469.744 31825.2 466.389C31824.9 467.731 31824.7 469.1 31824.7 470.522C31824.7 483.057 31838 493.23 31854.4 493.23C31862.6 493.23 31870.1 490.626 31875.5 486.439C31878 487.808 31881.2 488.64 31884.6 488.64C31888.2 488.64 31891.5 487.674 31894.2 486.117C31899.6 490.492 31907.2 493.23 31915.7 493.23C31922 493.23 31927.9 491.727 31932.7 489.177C31938.3 491.754 31944.9 493.23 31951.9 493.23C31968.5 493.23 31982.5 485.043 31987.6 473.663C31988.6 473.716 31989.5 473.77 31990.5 473.77C32012.3 473.77 32030 460.242 32030 443.573C32030 427.576 32013.7 414.504 31993 413.484Z" fill="white"/>
<path d="M31386.8 141.512C31387.1 139.955 31387.3 138.371 31387.3 136.761C31387.3 120.898 31370.5 108.041 31349.8 108.041C31346.1 108.041 31342.6 108.47 31339.3 109.195C31328.8 99.4782 31312.9 93.2778 31295.2 93.2778C31267.1 93.2778 31243.8 108.873 31239.1 129.379C31230.2 133.62 31224.2 141.136 31224.2 149.752C31224.2 149.779 31224.2 149.806 31224.2 149.859C31209.4 150.826 31197.8 160.301 31197.8 171.843C31197.8 183.411 31209.5 192.913 31224.3 193.852C31229.6 203.086 31241.6 209.528 31255.6 209.528C31267.4 209.528 31277.8 204.938 31284 197.959C31291 204.509 31301.7 208.696 31313.7 208.696C31324.3 208.696 31333.9 205.421 31340.8 200.16C31347.7 203.435 31355.8 205.341 31364.5 205.341C31389.2 205.341 31409.2 190.014 31409.2 171.118C31409.2 158.476 31400.2 147.444 31386.8 141.512Z" fill="white"/>
</svg>
