<svg width="853" height="9058" viewBox="0 0 853 9058" fill="none" xmlns="http://www.w3.org/2000/svg">
<path d="M0 8697.36V0H853V8697.36C853 9178.21 0 9178.21 0 8697.36Z" fill="black"/>
<path d="M108.317 7693.87L136.28 7663.56H723.49L751.452 7693.87V8001.27L723.49 8035.91H136.28L108.317 8001.27V7693.87Z" fill="#333333"/>
<path d="M183 0H149V7656H183V0Z" fill="#2E3032"/>
<path d="M724 0H691V7656H724V0Z" fill="#2E3032"/>
<path d="M94.7773 8096.83H764.992V8620.87L738.879 8747.9L692.051 8800.9H181.383L120.89 8732.76L94.7773 8616.89V8096.83Z" fill="#717173"/>
<path d="M676.984 8096.83H182.785V8800.9H676.984V8096.83Z" fill="#535255"/>
<path d="M588.976 8096.83H277.563V8800.9H588.976V8096.83Z" fill="#3A3A3C"/>
<path d="M304.857 8097H183V8801.06H304.857V8097Z" fill="#9E9E9E"/>
<path d="M724.373 8035.9H135.396V8103.6H724.373V8035.9Z" fill="#535255"/>
<path d="M326.553 6992.3L336.853 6982H377.353L384.353 6989V6981H388.853V7006H384.353V6995.2L375.153 6986H349.553V7058H362.053L369.553 7050.5V7025H361.553V7021H399.053V7025H392.053V7062H379.353L371.853 7054.4L364.253 7062H336.853L326.553 7051.7V6992.3ZM416.349 7062L407.049 7052.7V7011.3L416.349 7002H454.749L464.049 7011.3V7027.7L454.749 7037H430.049V7058H453.049L461.449 7049.6L464.549 7052.7L455.249 7062H416.349ZM430.049 7006V7033H441.049V7006H430.049ZM530.464 7012.3V7051.7L520.164 7062H483.364L473.064 7051.7V7012.3L483.364 7002H520.164L530.464 7012.3ZM497.064 7006V7058H506.464V7006H497.064ZM319.275 7186H312.575L290.275 7262H266.375L244.075 7186H237.375V7182H278.775V7186H267.975L287.875 7253.8L307.775 7186H296.975V7182H319.275V7186ZM340.462 7194L325.262 7178.7L340.562 7163.5L355.762 7178.8L340.462 7194ZM361.262 7258V7262H339.562L330.262 7252.7V7206H322.262V7202H343.962L353.262 7211.3V7258H361.262ZM373.73 7263H369.23V7241.5H373.73V7249L382.73 7258H403.83L370.23 7222.4V7210.3L378.53 7202H408.03L414.83 7208.8V7201H419.33V7222.5H414.83V7215L405.83 7206H386.73L420.33 7241.6V7253.7L412.03 7262H380.53L373.73 7255.2V7263ZM447.493 7194L432.293 7178.7L447.593 7163.5L462.793 7178.8L447.493 7194ZM468.293 7258V7262H446.593L437.293 7252.7V7206H429.293V7202H450.993L460.293 7211.3V7258H468.293ZM532.662 7212.3V7251.7L522.362 7262H485.562L475.262 7251.7V7212.3L485.562 7202H522.362L532.662 7212.3ZM499.262 7206V7258H508.662V7206H499.262ZM615.645 7258V7262H592.945L584.645 7253.7V7206H577.645L570.645 7213V7258H575.645V7262H539.645V7258H547.645V7206H539.645V7202H561.345L568.445 7209L575.445 7202H598.345L607.645 7211.3V7258H615.645Z" fill="white"/>
</svg>
