<svg width="11036" height="353" viewBox="0 0 11036 353" fill="none" xmlns="http://www.w3.org/2000/svg">
<g opacity="0.44">
<path d="M0 348.179L435.964 0L301.589 352.431L0 348.179Z" fill="#B06707"/>
<path d="M956.366 350.001L435.963 0L300.722 351.599L956.366 350.001Z" fill="#C27508"/>
</g>
<g opacity="0.4">
<path d="M2243 348.496L2473.63 6.37598L2402.55 352.673L2243 348.496Z" fill="#B06707"/>
<path d="M2387.11 348.162L2615.51 75.3989L2888.23 348.162L2545.11 351.493L2387.11 348.162Z" fill="#B06707"/>
<path d="M2748.94 350.286L2473.63 6.37598L2402.09 351.857L2748.94 350.286Z" fill="#C27508"/>
</g>
<g opacity="0.44">
<path d="M4167.53 348.046L4514.41 60.5698L4407.49 351.556L4167.53 348.046Z" fill="#B06707"/>
<path d="M4928.47 349.55L4514.41 60.5698L4406.8 350.869L4928.47 349.55Z" fill="#C27508"/>
</g>
<g opacity="0.44">
<path d="M6107.04 348.179L6543 0L6408.63 352.431L6107.04 348.179Z" fill="#B06707"/>
<path d="M7063.4 350.001L6543 0L6407.76 351.599L7063.4 350.001Z" fill="#C27508"/>
</g>
<g opacity="0.4">
<path d="M8350.04 348.496L8580.67 6.37598L8509.58 352.673L8350.04 348.496Z" fill="#B06707"/>
<path d="M8494.15 348.163L8722.54 75.3994L8995.26 348.163L8652.15 351.493L8494.15 348.163Z" fill="#B06707"/>
<path d="M8855.98 350.286L8580.67 6.37598L8509.12 351.857L8855.98 350.286Z" fill="#C27508"/>
</g>
<g opacity="0.44">
<path d="M10274.6 348.046L10621.4 60.5698L10514.5 351.556L10274.6 348.046Z" fill="#B06707"/>
<path d="M11035.5 349.55L10621.4 60.5698L10513.8 350.869L11035.5 349.55Z" fill="#C27508"/>
</g>
</svg>
