<svg width="83" height="439" viewBox="0 0 83 439" fill="none" xmlns="http://www.w3.org/2000/svg">
<g clip-path="url(#clip0_386_11)">
<path d="M0 0V240.005L8.99507 256.768V375.34L25.3498 433.808C25.3498 433.808 41.7044 442.394 55.6059 433.808L72.7783 374.113V255.951L83 237.961V0H0Z" fill="#D8AB39"/>
<path d="M22.8968 282.936L14.3105 293.158V358.985C14.3105 358.985 22.4879 371.251 22.8968 370.842C23.3056 370.434 22.8968 282.936 22.8968 282.936Z" fill="#776C68"/>
<path d="M45.3845 282.936H39.2515V370.842H45.3845V282.936Z" fill="#776C68"/>
<path d="M62.0699 283.026L69.0983 293.248V359.075C69.0983 359.075 62.4052 371.341 62.0699 370.932C61.7346 370.523 62.0699 283.026 62.0699 283.026Z" fill="#776C68"/>
<path d="M8.99512 375.34C8.99512 375.34 38.4335 389.241 72.7784 375.34L55.606 433.808C55.606 433.808 40.4779 443.621 25.3498 433.808L8.99512 375.34Z" fill="#D00005"/>
<rect width="83" height="138.606" fill="#767676"/>
</g>
<defs>
<clipPath id="clip0_386_11">
<rect width="83" height="438.171" fill="white"/>
</clipPath>
</defs>
</svg>
