<svg width="4668" height="1406" viewBox="0 0 4668 1406" fill="none" xmlns="http://www.w3.org/2000/svg">
<path d="M3885.32 1248.18C3887.64 1248.18 3889.93 1248.36 3892.15 1248.6C3901.93 1233.27 3921.23 1222.83 3943.47 1222.83C3951.5 1222.83 3959.13 1224.2 3966.11 1226.66C3986.25 1204.6 4018.01 1190.39 4053.7 1190.39C4089.32 1190.39 4120.94 1204.54 4141.11 1226.48C4146.63 1224.2 4152.81 1222.86 4159.39 1222.86C4175.96 1222.86 4190.21 1231.08 4196.75 1242.88C4201.77 1241.76 4207 1241.12 4212.41 1241.12C4245.89 1241.12 4273 1263.82 4273 1291.84C4273 1319.87 4245.89 1342.57 4212.41 1342.57C4206.85 1342.57 4201.47 1341.9 4196.39 1340.71C4187.74 1353.85 4171.02 1362.8 4151.83 1362.8C4140.85 1362.8 4130.71 1359.85 4122.39 1354.89C4103.56 1367.46 4079.69 1375 4053.74 1375C4025.39 1375 3999.55 1366.03 3980.03 1351.33C3971.71 1356.02 3961.71 1358.78 3950.92 1358.78C3929.62 1358.78 3911.34 1348.07 3903.27 1332.77C3897.68 1334.47 3891.68 1335.48 3885.35 1335.48C3856.57 1335.48 3833.27 1315.94 3833.27 1291.87C3833.24 1267.68 3856.53 1248.18 3885.32 1248.18Z" fill="white"/>
<path d="M308 741.415C308 718.867 329.843 700.58 356.774 700.58C358.082 700.58 359.354 700.671 360.663 700.732C360.663 700.671 360.663 700.61 360.663 700.58C360.663 673.347 387.012 651.286 419.54 651.286C431.788 651.286 443.163 654.42 452.577 659.776C465.915 639.632 491.574 626 521.013 626C549.724 626 574.802 638.963 588.394 658.254C597.517 653.842 608.093 651.286 619.36 651.286C653.232 651.286 680.708 674.016 681.29 702.254C709.784 708.309 730.899 729.913 730.899 755.686C730.899 786.114 701.424 810.792 665.08 810.792C662.609 810.792 660.174 810.67 657.739 810.457C648.398 819.372 634.66 825.002 619.396 825.002C604.822 825.002 591.665 819.859 582.361 811.644C567.824 826.462 545.763 835.925 521.049 835.925C501.75 835.925 484.051 830.144 470.313 820.559C458.028 826.158 443.963 829.353 428.989 829.353C391.519 829.353 359.645 809.392 347.615 781.489C325.045 777.898 308 761.345 308 741.415Z" fill="white"/>
<path d="M3094.96 992.593C3094.96 970.562 3116.26 952.731 3142.57 952.731C3148.43 952.731 3154.02 953.614 3159.22 955.226C3167.25 939.891 3185.53 929.18 3206.83 929.18C3209.63 929.18 3212.36 929.362 3215.01 929.728C3225.48 910.284 3248.84 896.743 3275.96 896.743C3305.18 896.743 3330 912.444 3339.09 934.322C3339.85 934.292 3340.61 934.261 3341.41 934.261C3369.25 934.261 3391.82 953.157 3391.82 976.465C3391.82 977.987 3391.71 979.478 3391.53 980.969C3409.12 988.18 3421.22 1003.3 3421.22 1020.8C3421.22 1045.26 3397.53 1065.1 3368.31 1065.1C3359.15 1065.1 3350.54 1063.16 3343.01 1059.72C3336.29 1066.17 3326.4 1070.25 3315.35 1070.25C3306.81 1070.25 3298.96 1067.78 3292.75 1063.7C3280.03 1072.13 3262.91 1077.27 3244.12 1077.27C3225.44 1077.27 3208.47 1072.19 3195.78 1063.89C3191.71 1064.86 3187.46 1065.41 3183.03 1065.41C3159.77 1065.41 3140.58 1050.95 3137.45 1032.21C3113.54 1030.08 3094.96 1013.16 3094.96 992.593Z" fill="white"/>
<path d="M356 124.849C356 102.819 377.298 84.9882 403.611 84.9882C409.462 84.9882 415.059 85.8706 420.257 87.4833C428.289 72.1474 446.57 61.4367 467.867 61.4367C470.666 61.4367 473.392 61.6192 476.045 61.9843C486.512 42.5406 509.881 29 536.994 29C566.214 29 591.037 44.7011 600.123 66.5791C600.886 66.5486 601.65 66.5182 602.449 66.5182C630.289 66.5182 652.858 85.4142 652.858 108.722C652.858 110.244 652.749 111.735 652.568 113.226C670.158 120.437 682.261 135.56 682.261 153.056C682.261 177.521 658.565 197.36 629.344 197.36C620.185 197.36 611.572 195.413 604.048 191.974C597.325 198.425 587.439 202.503 576.391 202.503C567.85 202.503 559.999 200.038 553.785 195.96C541.064 204.389 523.946 209.532 505.156 209.532C486.475 209.532 469.503 204.45 456.819 196.143C452.748 197.117 448.496 197.664 444.062 197.664C420.802 197.664 401.612 183.211 398.486 164.467C374.572 162.337 356 145.419 356 124.849Z" fill="white"/>
<path d="M2211.72 1255.81C2211.72 1243.67 2219.79 1233.11 2231.67 1227.73C2228.26 1222.89 2226.26 1217.23 2226.26 1211.17C2226.26 1193.19 2243.67 1178.61 2265.15 1178.61C2277.87 1178.61 2289.1 1183.73 2296.18 1191.64C2297.96 1191.82 2299.75 1192.12 2301.42 1192.55C2301.42 1192.15 2301.34 1191.79 2301.34 1191.39C2301.34 1170.67 2321.41 1153.88 2346.16 1153.88C2357.13 1153.88 2367.2 1157.19 2374.98 1162.7C2385.92 1141.4 2411.18 1126.49 2440.65 1126.49C2462.38 1126.49 2481.83 1134.65 2494.95 1147.49C2500.26 1145.75 2506.07 1144.75 2512.1 1144.75C2538.2 1144.75 2559.35 1162.46 2559.35 1184.3C2559.35 1185.06 2559.28 1185.8 2559.21 1186.53C2560.37 1186.4 2561.53 1186.34 2562.73 1186.34C2578.43 1186.34 2591.3 1196.41 2592.64 1209.26C2598.24 1203.93 2606.42 1200.52 2615.57 1200.52C2622.99 1200.52 2629.79 1202.74 2635.06 1206.4C2640.22 1202.71 2646.9 1200.52 2654.21 1200.52C2666.97 1200.52 2677.83 1207.28 2682.01 1216.74C2687.21 1213.24 2693.79 1211.17 2700.98 1211.17C2714.21 1211.17 2725.44 1218.26 2729.62 1228.18C2735.55 1225.44 2742.31 1223.86 2749.54 1223.86C2772.29 1223.86 2790.72 1239.29 2790.72 1258.34C2790.72 1277.38 2772.29 1292.81 2749.54 1292.81C2738.24 1292.81 2728.02 1289.01 2720.57 1282.83C2716.57 1296.71 2701.67 1307.02 2683.87 1307.02C2681.28 1307.02 2678.78 1306.81 2676.34 1306.38C2668.93 1320.38 2652.21 1330.12 2632.73 1330.12C2618.66 1330.12 2606.09 1325 2597.33 1316.91C2590.42 1332.25 2572.76 1343.17 2552.05 1343.17C2540.96 1343.17 2530.82 1340.04 2522.64 1334.8C2515.56 1341.38 2505.31 1345.54 2493.89 1345.54C2489.53 1345.54 2485.35 1344.91 2481.47 1343.81C2474.67 1360.48 2455.81 1372.5 2433.6 1372.5C2408.34 1372.5 2387.44 1357.02 2383.66 1336.75C2374.43 1342.87 2362.77 1346.55 2350.08 1346.55C2329.15 1346.55 2311.01 1336.6 2301.96 1322.02C2300.54 1322.11 2299.13 1322.21 2297.67 1322.21C2271.76 1322.21 2250.03 1307.36 2243.81 1287.27C2225.68 1284.9 2211.72 1271.72 2211.72 1255.81Z" fill="white"/>
<path d="M1158.53 1259.74C1158.53 1259.71 1158.53 1259.68 1158.53 1259.62C1158.53 1234 1183.35 1213.22 1213.96 1213.22C1240.2 1213.22 1262.11 1228.49 1267.85 1249C1273.31 1245.65 1279.99 1243.64 1287.3 1243.64C1290.21 1243.64 1293.04 1244.01 1295.73 1244.59C1304.02 1239.23 1314.37 1236.04 1325.6 1236.04C1352.72 1236.04 1374.67 1254.42 1374.67 1277.12C1374.67 1277.42 1374.63 1277.69 1374.63 1278C1381.36 1283.02 1385.57 1290.29 1385.57 1298.42C1385.57 1313.54 1370.93 1325.8 1352.86 1325.8C1345.08 1325.8 1337.96 1323.52 1332.33 1319.72C1332.66 1321.24 1332.87 1322.79 1332.87 1324.4C1332.87 1338.61 1319.1 1350.14 1302.13 1350.14C1293.55 1350.14 1285.81 1347.19 1280.25 1342.45C1277.59 1344 1274.36 1344.94 1270.83 1344.94C1267.09 1344.94 1263.67 1343.84 1260.88 1342.08C1255.28 1347.04 1247.36 1350.14 1238.56 1350.14C1232.05 1350.14 1225.99 1348.44 1221.04 1345.55C1215.19 1348.47 1208.4 1350.14 1201.13 1350.14C1183.94 1350.14 1169.4 1340.86 1164.16 1327.96C1163.15 1328.02 1162.17 1328.08 1161.15 1328.08C1138.58 1328.08 1120.26 1312.75 1120.26 1293.85C1120.26 1275.72 1137.16 1260.9 1158.53 1259.74Z" fill="white"/>
<path d="M1786.32 951.423C1785.96 949.658 1785.74 947.863 1785.74 946.037C1785.74 928.054 1803.15 913.479 1824.63 913.479C1828.41 913.479 1832.08 913.966 1835.53 914.787C1846.36 903.772 1862.79 896.743 1881.14 896.743C1910.29 896.743 1934.42 914.422 1939.26 937.669C1948.49 942.477 1954.67 950.997 1954.67 960.764C1954.67 960.795 1954.67 960.825 1954.67 960.886C1969.97 961.982 1982 972.723 1982 985.807C1982 998.922 1969.93 1009.69 1954.6 1010.76C1949.14 1021.23 1936.68 1028.53 1922.18 1028.53C1909.93 1028.53 1899.17 1023.33 1892.81 1015.41C1885.51 1022.84 1874.42 1027.59 1861.99 1027.59C1851.05 1027.59 1841.13 1023.87 1833.9 1017.91C1826.81 1021.62 1818.45 1023.78 1809.44 1023.78C1783.85 1023.78 1763.1 1006.41 1763.1 984.985C1763.14 970.654 1772.48 958.148 1786.32 951.423Z" fill="white"/>
<path d="M1536.4 498.783C1534.32 498.783 1532.26 498.966 1530.28 499.209C1521.52 483.874 1504.22 473.437 1484.29 473.437C1477.09 473.437 1470.25 474.806 1464 477.271C1445.96 455.21 1417.49 441 1385.51 441C1353.6 441 1325.26 455.149 1307.19 477.088C1302.24 474.806 1296.7 473.467 1290.81 473.467C1275.96 473.467 1263.19 481.683 1257.33 493.489C1252.83 492.363 1248.14 491.724 1243.29 491.724C1213.3 491.724 1189 514.424 1189 542.448C1189 570.473 1213.3 593.172 1243.29 593.172C1248.27 593.172 1253.09 592.503 1257.65 591.316C1265.4 604.461 1280.38 613.407 1297.58 613.407C1307.42 613.407 1316.5 610.456 1323.96 605.496C1340.83 618.063 1362.23 625.609 1385.48 625.609C1410.88 625.609 1434.04 616.633 1451.53 601.936C1458.99 606.622 1467.94 609.391 1477.61 609.391C1496.7 609.391 1513.08 598.68 1520.31 583.374C1525.33 585.078 1530.7 586.083 1536.37 586.083C1562.16 586.083 1583.04 566.547 1583.04 542.479C1583.07 518.288 1562.19 498.783 1536.4 498.783Z" fill="white"/>
<path d="M4620.4 801.783C4618.32 801.783 4616.26 801.966 4614.28 802.209C4605.52 786.874 4588.22 776.437 4568.29 776.437C4561.09 776.437 4554.25 777.806 4548 780.271C4529.96 758.21 4501.49 744 4469.51 744C4437.6 744 4409.26 758.149 4391.19 780.088C4386.24 777.806 4380.7 776.467 4374.81 776.467C4359.96 776.467 4347.19 784.683 4341.33 796.489C4336.83 795.363 4332.14 794.724 4327.29 794.724C4297.3 794.724 4273 817.424 4273 845.448C4273 873.473 4297.3 896.172 4327.29 896.172C4332.27 896.172 4337.09 895.503 4341.65 894.316C4349.4 907.461 4364.38 916.407 4381.58 916.407C4391.42 916.407 4400.5 913.456 4407.96 908.496C4424.83 921.063 4446.23 928.609 4469.48 928.609C4494.88 928.609 4518.04 919.633 4535.53 904.936C4542.99 909.622 4551.94 912.391 4561.61 912.391C4580.7 912.391 4597.08 901.68 4604.31 886.374C4609.33 888.078 4614.7 889.083 4620.37 889.083C4646.16 889.083 4667.04 869.547 4667.04 845.479C4667.07 821.288 4646.19 801.783 4620.4 801.783Z" fill="white"/>
<path d="M4546 115.415C4546 92.8674 4526.43 74.58 4502.29 74.58C4501.12 74.58 4499.98 74.6713 4498.81 74.7321C4498.81 74.6713 4498.81 74.6104 4498.81 74.58C4498.81 47.3466 4475.2 25.286 4446.05 25.286C4435.07 25.286 4424.88 28.4201 4416.45 33.7755C4404.49 13.6319 4381.5 0 4355.12 0C4329.39 0 4306.92 12.9625 4294.74 32.2541C4286.57 27.842 4277.09 25.286 4266.99 25.286C4236.64 25.286 4212.02 48.016 4211.5 76.2535C4185.96 82.3088 4167.04 103.913 4167.04 129.686C4167.04 160.114 4193.45 184.792 4226.02 184.792C4228.24 184.792 4230.42 184.67 4232.6 184.457C4240.97 193.372 4253.28 199.002 4266.96 199.002C4280.02 199.002 4291.81 193.859 4300.15 185.644C4313.17 200.462 4332.94 209.925 4355.09 209.925C4372.38 209.925 4388.24 204.144 4400.55 194.559C4411.56 200.158 4424.16 203.353 4437.58 203.353C4471.16 203.353 4499.72 183.392 4510.5 155.489C4530.73 151.898 4546 135.345 4546 115.415Z" fill="white"/>
<path d="M2091.63 201.593C2091.63 179.562 2072.55 161.731 2048.97 161.731C2043.72 161.731 2038.71 162.614 2034.05 164.226C2026.85 148.891 2010.47 138.18 1991.39 138.18C1988.88 138.18 1986.44 138.362 1984.06 138.728C1974.68 119.284 1953.74 105.743 1929.44 105.743C1903.26 105.743 1881.02 121.444 1872.87 143.322C1872.19 143.292 1871.51 143.261 1870.79 143.261C1845.84 143.261 1825.62 162.157 1825.62 185.465C1825.62 186.987 1825.72 188.478 1825.88 189.969C1810.12 197.18 1799.27 212.303 1799.27 229.8C1799.27 254.264 1820.5 274.103 1846.69 274.103C1854.9 274.103 1862.61 272.156 1869.36 268.718C1875.38 275.168 1884.24 279.246 1894.14 279.246C1901.79 279.246 1908.83 276.781 1914.4 272.704C1925.8 281.132 1941.14 286.275 1957.97 286.275C1974.71 286.275 1989.92 281.193 2001.29 272.886C2004.94 273.86 2008.75 274.408 2012.72 274.408C2033.56 274.408 2050.76 259.954 2053.56 241.21C2074.99 239.08 2091.63 222.162 2091.63 201.593Z" fill="white"/>
<path d="M2883.1 464.811C2883.1 452.67 2875.87 442.111 2865.22 436.725C2868.28 431.887 2870.07 426.228 2870.07 420.172C2870.07 402.189 2854.47 387.614 2835.23 387.614C2823.83 387.614 2813.76 392.726 2807.41 400.637C2805.82 400.82 2804.22 401.124 2802.72 401.55C2802.72 401.155 2802.79 400.789 2802.79 400.394C2802.79 379.672 2784.81 362.876 2762.63 362.876C2752.8 362.876 2743.78 366.192 2736.81 371.7C2727 350.4 2704.37 335.49 2677.96 335.49C2658.48 335.49 2641.06 343.645 2629.3 356.486C2624.55 354.751 2619.33 353.747 2613.93 353.747C2590.54 353.747 2571.59 371.457 2571.59 393.304C2571.59 394.065 2571.66 394.795 2571.72 395.525C2570.68 395.404 2569.64 395.343 2568.56 395.343C2554.49 395.343 2542.96 405.415 2541.76 418.255C2536.74 412.93 2529.42 409.522 2521.21 409.522C2514.56 409.522 2508.47 411.744 2503.75 415.395C2499.13 411.713 2493.13 409.522 2486.59 409.522C2475.16 409.522 2465.42 416.278 2461.67 425.741C2457.02 422.242 2451.12 420.172 2444.67 420.172C2432.82 420.172 2422.76 427.262 2419.01 437.182C2413.7 434.443 2407.64 432.861 2401.16 432.861C2380.78 432.861 2364.26 448.288 2364.26 467.336C2364.26 486.384 2380.78 501.812 2401.16 501.812C2411.29 501.812 2420.44 498.008 2427.12 491.831C2430.7 505.707 2444.06 516.022 2460.01 516.022C2462.33 516.022 2464.57 515.809 2466.76 515.383C2473.4 529.38 2488.38 539.117 2505.84 539.117C2518.44 539.117 2529.71 534.005 2537.56 525.911C2543.75 541.247 2559.57 552.171 2578.14 552.171C2588.07 552.171 2597.16 549.037 2604.48 543.803C2610.83 550.375 2620.02 554.544 2630.24 554.544C2634.15 554.544 2637.9 553.905 2641.38 552.81C2647.47 569.484 2664.38 581.504 2684.27 581.504C2706.91 581.504 2725.64 566.016 2729.02 545.75C2737.29 551.866 2747.75 555.548 2759.12 555.548C2777.87 555.548 2794.13 545.598 2802.23 531.023C2803.5 531.114 2804.78 531.205 2806.08 531.205C2829.3 531.205 2848.77 516.356 2854.34 496.274C2870.59 493.9 2883.1 480.725 2883.1 464.811Z" fill="white"/>
<path d="M518.836 1288.32C518.836 1276.18 511.606 1265.62 500.956 1260.24C504.018 1255.4 505.809 1249.74 505.809 1243.68C505.809 1225.7 490.209 1211.12 470.961 1211.12C459.562 1211.12 449.499 1216.24 443.149 1224.15C441.553 1224.33 439.957 1224.63 438.459 1225.06C438.459 1224.66 438.524 1224.3 438.524 1223.9C438.524 1203.18 420.547 1186.39 398.368 1186.39C388.533 1186.39 379.511 1189.7 372.542 1195.21C362.739 1173.91 340.104 1159 313.692 1159C294.217 1159 276.793 1167.15 265.036 1180C260.281 1178.26 255.07 1177.26 249.664 1177.26C226.28 1177.26 207.326 1194.97 207.326 1216.81C207.326 1217.57 207.391 1218.3 207.456 1219.04C206.414 1218.91 205.372 1218.85 204.297 1218.85C190.228 1218.85 178.699 1228.92 177.494 1241.77C172.478 1236.44 165.151 1233.03 156.944 1233.03C150.3 1233.03 144.21 1235.25 139.487 1238.9C134.863 1235.22 128.87 1233.03 122.324 1233.03C110.893 1233.03 101.155 1239.79 97.4099 1249.25C92.7527 1245.75 86.858 1243.68 80.4096 1243.68C68.555 1243.68 58.4916 1250.77 54.7463 1260.69C49.4377 1257.95 43.38 1256.37 36.899 1256.37C16.5117 1256.37 0 1271.8 0 1290.85C0 1309.89 16.5117 1325.32 36.899 1325.32C47.0276 1325.32 56.1792 1321.52 62.8556 1315.34C66.438 1329.22 79.7907 1339.53 95.7489 1339.53C98.0612 1339.53 100.309 1339.32 102.491 1338.89C109.134 1352.89 124.116 1362.63 141.572 1362.63C154.176 1362.63 165.444 1357.51 173.293 1349.42C179.481 1364.76 195.308 1375.68 213.872 1375.68C223.805 1375.68 232.891 1372.55 240.219 1367.31C246.57 1373.89 255.754 1378.05 265.98 1378.05C269.888 1378.05 273.634 1377.41 277.119 1376.32C283.209 1392.99 300.111 1405.01 320.01 1405.01C342.644 1405.01 361.371 1389.53 364.758 1369.26C373.03 1375.38 383.484 1379.06 394.85 1379.06C413.609 1379.06 429.861 1369.11 437.97 1354.53C439.24 1354.62 440.51 1354.72 441.813 1354.72C465.034 1354.72 484.509 1339.87 490.078 1319.78C506.33 1317.41 518.836 1304.23 518.836 1288.32Z" fill="white"/>
<path d="M3826.86 468.741C3826.86 468.71 3826.86 468.68 3826.86 468.619C3826.86 442.998 3804.61 422.216 3777.19 422.216C3753.68 422.216 3734.04 437.491 3728.89 458C3724.01 454.652 3718.02 452.644 3711.47 452.644C3708.86 452.644 3706.32 453.009 3703.91 453.587C3696.49 448.232 3687.21 445.037 3677.14 445.037C3652.85 445.037 3633.18 463.416 3633.18 486.115C3633.18 486.42 3633.21 486.693 3633.21 486.998C3627.18 492.018 3623.41 499.291 3623.41 507.415C3623.41 522.538 3636.53 534.801 3652.72 534.801C3659.69 534.801 3666.07 532.519 3671.12 528.715C3670.82 530.237 3670.63 531.788 3670.63 533.401C3670.63 547.611 3682.97 559.143 3698.18 559.143C3705.87 559.143 3712.8 556.192 3717.79 551.445C3720.16 552.997 3723.06 553.94 3726.22 553.94C3729.58 553.94 3732.64 552.845 3735.15 551.08C3740.16 556.04 3747.26 559.143 3755.14 559.143C3760.97 559.143 3766.41 557.439 3770.84 554.549C3776.08 557.47 3782.17 559.143 3788.69 559.143C3804.09 559.143 3817.12 549.863 3821.81 536.961C3822.72 537.022 3823.6 537.083 3824.51 537.083C3844.74 537.083 3861.15 521.747 3861.15 502.851C3861.15 484.716 3846.01 469.897 3826.86 468.741Z" fill="white"/>
<path d="M3264.3 160.423C3264.62 158.658 3264.82 156.863 3264.82 155.037C3264.82 137.054 3249.22 122.479 3229.97 122.479C3226.58 122.479 3223.29 122.966 3220.2 123.787C3210.49 112.772 3195.77 105.743 3179.33 105.743C3153.21 105.743 3131.58 123.422 3127.25 146.669C3118.98 151.477 3113.44 159.997 3113.44 169.764C3113.44 169.795 3113.44 169.825 3113.44 169.886C3099.73 170.982 3088.95 181.723 3088.95 194.807C3088.95 207.922 3099.76 218.693 3113.51 219.758C3118.39 230.226 3129.56 237.528 3142.56 237.528C3153.53 237.528 3163.17 232.325 3168.87 224.414C3175.42 231.838 3185.35 236.585 3196.49 236.585C3206.29 236.585 3215.18 232.873 3221.67 226.909C3228.02 230.621 3235.51 232.782 3243.58 232.782C3266.51 232.782 3285.11 215.407 3285.11 193.985C3285.07 179.654 3276.7 167.148 3264.3 160.423Z" fill="white"/>
</svg>
