<svg width="31" height="58" viewBox="0 0 31 58" fill="none" xmlns="http://www.w3.org/2000/svg">
<path d="M5.63867 50.1902L3.67407 48.7549C2.42151 50.0791 1.41229 51.3977 0.648389 52.1848L1.12109 53.2163L2.39958 52.9774C2.40357 52.9793 3.75984 51.6273 5.63867 50.1902Z" fill="#B97964"/>
<path d="M3.7586 52.0934L2.99469 51.6415C2.21284 52.0082 2.05727 51.7156 1.96154 51.0637C1.7561 50.9081 1.53471 51.11 1.47288 51.1618L0.0946713 52.3193C-0.0210107 52.4156 -0.0329768 52.5805 0.070738 52.6879C0.0886887 52.7064 0.110618 52.7231 0.134552 52.7379C0.808698 53.1361 1.12782 53.325 1.96751 53.8231L4.53445 55.3418C5.23453 55.7566 5.82889 55.1862 5.58157 54.9547C4.46664 53.9213 3.7925 53.0249 3.63294 52.4379C3.60103 52.3323 3.70873 52.3304 3.7586 52.0934Z" fill="white"/>
<path d="M3.87305 52.7198C3.66562 52.6309 3.4143 52.6328 3.20687 52.7235" stroke="#263238" stroke-width="0.5" stroke-miterlimit="10" stroke-linecap="round" stroke-linejoin="round"/>
<path d="M4.05273 53.1642C3.8453 53.0753 3.594 53.0771 3.38657 53.1679" stroke="#263238" stroke-width="0.5" stroke-miterlimit="10" stroke-linecap="round" stroke-linejoin="round"/>
<path d="M4.34082 53.6212C4.13339 53.5323 3.88208 53.5341 3.67465 53.6249" stroke="#263238" stroke-width="0.5" stroke-miterlimit="10" stroke-linecap="round" stroke-linejoin="round"/>
<path opacity="0.7" d="M0.0698101 52.6873C0.0877608 52.7058 0.10969 52.7225 0.133624 52.7373C0.80777 53.1354 1.12689 53.3244 1.96658 53.8225L4.53353 55.3412C4.91248 55.5653 5.25953 55.5004 5.45898 55.3578C5.35128 55.2949 0.225372 52.315 0.17152 52.2539L0.0717944 52.3409C-0.0219478 52.4373 -0.0259266 52.5873 0.0698101 52.6873Z" fill="white"/>
<path d="M17.2197 50.1377L14.1761 51.8804C14.4015 54.0009 14.9639 55.927 14.7525 56.9678L15.7338 57.6216L17.0721 56.327C17.0721 56.327 16.9565 52.5342 17.2197 50.1377Z" fill="#B97964"/>
<path d="M17.1928 55.3896L16.2873 55.3711C15.8246 56.0619 15.5274 55.8859 15.0806 55.3748C14.8193 55.3415 14.7415 55.6193 14.7176 55.6952L14.187 57.3472C14.1412 57.4861 14.2249 57.6324 14.3725 57.675C14.3985 57.6824 14.4264 57.6861 14.4543 57.6861C15.2541 57.7027 15.6331 57.7102 16.6283 57.7287L19.672 57.7879C20.5017 57.8046 20.6912 57.0305 20.3521 56.9527C18.8223 56.6064 17.7433 56.1656 17.2785 55.7415C17.1928 55.6693 17.2845 55.6174 17.1928 55.3896Z" fill="white"/>
<path d="M17.6396 55.8711C17.4123 55.8952 17.1989 56.0174 17.0732 56.1952" stroke="#263238" stroke-width="0.5" stroke-miterlimit="10" stroke-linecap="round" stroke-linejoin="round"/>
<path d="M18.043 56.166C17.8156 56.1901 17.6022 56.3123 17.4765 56.4901" stroke="#263238" stroke-width="0.5" stroke-miterlimit="10" stroke-linecap="round" stroke-linejoin="round"/>
<path d="M18.5469 56.416C18.3195 56.4401 18.1061 56.5623 17.9804 56.7401" stroke="#263238" stroke-width="0.5" stroke-miterlimit="10" stroke-linecap="round" stroke-linejoin="round"/>
<path opacity="0.7" d="M14.3744 57.6771C14.4003 57.6845 14.4282 57.6882 14.4562 57.6882C15.256 57.7049 15.6349 57.7123 16.6302 57.7308L19.6738 57.7901C20.1226 57.7994 20.3819 57.5771 20.4736 57.3586C20.348 57.3567 14.2986 57.2808 14.2188 57.2549L14.1829 57.379C14.157 57.5067 14.2368 57.6364 14.3744 57.6771Z" fill="white"/>
<path d="M13.1064 9.65177C13.1064 9.65177 13.4474 8.60725 13.0884 6.65896C13.0884 6.65711 13.2021 6.62377 13.2021 6.62192C13.1523 6.34968 13.0964 6.09596 13.0406 5.87742C13.0386 5.87187 13.0406 5.86816 13.0406 5.86816L15.6255 7.75533C15.4858 8.35167 15.5776 9.5425 15.6574 10.0499C15.6574 10.0499 15.9007 10.9778 14.6182 10.8833C13.6788 10.813 13.1064 9.65177 13.1064 9.65177Z" fill="#B97964"/>
<path opacity="0.2" d="M15.5691 8.60921L14.0094 8.10547C14.0992 8.58328 14.4721 9.17592 15.5791 9.33889C15.5791 9.33889 15.5312 8.80922 15.5691 8.60921Z" fill="black"/>
<path d="M13.1703 4.61233C13.1584 6.268 13.1165 7.2014 13.9522 8.09776C15.2107 9.44415 17.4107 8.84411 17.9572 7.21992C18.4478 5.7587 18.386 3.29557 16.6907 2.54366C15.0213 1.80472 13.1823 2.95665 13.1703 4.61233Z" fill="#B97964"/>
<path d="M13.058 1.8549C13.4067 0.958371 16.1559 1.10345 16.8845 1.61309C16.9941 1.68935 15.3088 2.27712 15.4116 2.25294L14.627 2.42964C14.5108 2.40174 14.2694 2.50218 14.1241 2.80164C14.1241 2.80164 14.0034 5.34613 13.0781 6.03247C12.4053 5.71069 12.4478 4.70257 12.2779 4.09063C12.0253 3.17922 11.7392 1.84932 13.058 1.8549Z" fill="#263238"/>
<path d="M12.3687 5.94243C12.4804 6.37579 12.7975 6.72026 13.1366 6.90546C13.6492 7.18326 13.8865 6.65729 13.8746 6.13503C13.8646 5.66463 13.7589 5.08496 13.1825 5.02014C12.612 4.95717 12.2411 5.4461 12.3687 5.94243Z" fill="#B97964"/>
<path d="M15.6784 5.24886C15.6664 5.41739 15.7522 5.55999 15.8719 5.56555C15.9916 5.57111 16.0973 5.43962 16.1092 5.27109C16.1212 5.10256 16.0354 4.95995 15.9158 4.9544C15.7981 4.94699 15.6904 5.08033 15.6784 5.24886Z" fill="#263238"/>
<path d="M17.4597 5.39424C17.4477 5.56277 17.5335 5.70538 17.6531 5.71093C17.7728 5.71649 17.8785 5.585 17.8905 5.41647C17.9025 5.24794 17.8167 5.10534 17.697 5.09978C17.5773 5.09422 17.4716 5.22571 17.4597 5.39424Z" fill="#263238"/>
<path d="M16.8845 5.26367C16.8845 5.26367 17.399 6.13781 17.5586 6.49154C17.2893 6.68785 16.8605 6.56191 16.8605 6.56191L16.8845 5.26367Z" fill="#A24E3F"/>
<path d="M15.2921 4.42532C15.318 4.43828 15.3519 4.43643 15.3779 4.41976C15.695 4.2216 15.9862 4.32902 15.9882 4.33087C16.0321 4.34754 16.0819 4.32902 16.0999 4.28827C16.1178 4.24753 16.0979 4.20123 16.054 4.18456C16.038 4.17901 15.673 4.04381 15.2801 4.29013C15.2402 4.3142 15.2303 4.3642 15.2562 4.39939C15.2682 4.4105 15.2781 4.41976 15.2921 4.42532Z" fill="#263238"/>
<path d="M16.2266 7.06197C15.9314 7.0453 15.712 6.89529 15.4986 6.67676" stroke="#263238" stroke-width="0.75" stroke-miterlimit="10" stroke-linecap="round" stroke-linejoin="round"/>
<path opacity="0.2" d="M12.8072 5.51232C12.887 5.41787 13.0346 5.39194 13.1562 5.42713C13.2779 5.46232 13.3756 5.55307 13.4434 5.65307C13.5252 5.77345 13.5731 5.9142 13.5811 6.0568" stroke="black" stroke-width="0.5" stroke-miterlimit="10" stroke-linecap="round" stroke-linejoin="round"/>
<path d="M18.2964 4.73249C18.3124 4.73064 18.3284 4.72323 18.3403 4.71212C18.3762 4.68249 18.3782 4.63248 18.3483 4.601C18.0372 4.2732 17.6482 4.32876 17.6303 4.32876C17.5844 4.33616 17.5525 4.37691 17.5585 4.4195C17.5645 4.4621 17.6083 4.49173 17.6542 4.48618C17.6702 4.48247 17.9693 4.44543 18.2207 4.70656C18.2406 4.72693 18.2705 4.73619 18.2964 4.73249Z" fill="#263238"/>
<path d="M12.1425 1.61038C12.329 1.15558 12.9178 1.10401 13.3515 1.23998C13.3763 0.667973 14.1156 0.400725 14.5628 0.456988C15.028 0.513251 15.1809 0.724237 15.1809 0.724237C15.1449 0.728925 15.3449 0.454644 15.464 0.349151C15.9045 -0.0400001 16.5562 -0.112672 17.0484 0.175675C17.5405 0.464022 17.8462 1.09229 17.79 1.70415C18.1046 1.42284 18.6237 1.4791 18.871 1.82605C19.1182 2.17066 19.0485 2.74032 18.7249 3.00992C19.0665 3.06149 19.3204 3.46471 19.2485 3.83745C19.1766 4.20785 18.7923 4.47275 18.4597 4.38132C18.4035 4.80095 18.3181 5.32373 18.2619 5.7457L17.8507 4.14455C17.581 4.01561 17.5383 3.87965 17.5091 3.55613C17.2709 3.93591 16.954 3.87496 16.5405 3.82104C16.127 3.76712 15.7562 3.44361 15.6191 3.01461C15.3696 3.41079 14.9359 3.68976 14.5022 3.64053C14.0684 3.5913 13.6841 3.15526 13.7246 2.67703C13.4347 3.06149 12.8796 3.16698 12.4976 2.90911C12.1155 2.6489 11.956 2.06282 12.1425 1.61038Z" fill="#263238"/>
<path d="M10.0795 9.5459C10.0795 9.5459 8.49383 9.58664 7.85559 11.2294C7.2692 12.7424 5.77531 16.0778 5.77531 16.0778L9.34549 17.0483L10.7676 13.098L10.0795 9.5459Z" fill="white"/>
<path d="M15.9095 25.3026L13.7574 29.5677C13.7574 29.5677 17.176 39.1221 17.3815 40.1184C17.5869 41.1148 17.6826 53.6601 17.6826 53.6601L13.8791 53.6657L12.3872 41.4278C12.3872 41.4278 7.76789 31.0345 7.43081 30.1881C6.79656 28.6065 7.46272 26.4804 7.46272 26.4804L8.63949 24.9062L15.9095 25.3026Z" fill="#263238"/>
<path d="M18.0003 27.4418C18.0003 27.8307 16.5164 41.0632 16.2731 41.1113C16.0297 41.1595 5.28127 52.0751 5.28127 52.0751L2.22967 49.586L10.116 39.6575L10.9896 30.7347L11.2947 25.125L18.1738 25.5973L18.0003 27.4418Z" fill="#263238"/>
<path opacity="0.4" d="M12.7832 44.5633L12.5937 41.4538L10.3838 36.9072L12.0432 41.715L12.2008 45.0059L12.7832 44.5633Z" fill="black"/>
<path opacity="0.4" d="M16.7678 38.0923L13.7581 29.5677L14.8072 28.6787L14.4741 29.901L16.8994 37.0812L16.7678 38.0923Z" fill="black"/>
<path d="M27.1731 13.6904L22.516 17.6592L20.3459 13.9071C20.3459 13.9071 17.9784 16.0776 18.0582 16.111C18.138 16.1425 20.8465 21.6465 22.7992 20.6594C24.7518 19.6723 28.0527 14.7053 28.0527 14.7053L27.1731 13.6904Z" fill="#B97964"/>
<path opacity="0.2" d="M22.5156 17.659C22.5156 17.659 22.1127 18.259 22.1626 18.8239C22.1626 18.8239 21.9811 18.5461 22.0369 18.096C22.0908 17.646 22.3281 17.333 22.3281 17.333L22.5156 17.659Z" fill="black"/>
<path d="M18.2289 10.5308C16.9584 11.1364 16.4478 13.2884 19.1803 18.4758L22.4434 16.1386C21.9208 14.8441 21.3883 14.17 20.5525 12.5995C19.2242 10.1604 18.2289 10.5308 18.2289 10.5308Z" fill="white"/>
<path d="M18.2688 10.4529C17.3713 10.2677 13.8051 9.40102 9.99155 9.54918L7.97708 22.7427C7.97708 22.7427 7.58616 24.4706 7.04964 26.1855C10.6817 28.1394 15.7238 28.4542 18.4303 27.3875C18.3944 27.4393 18.4802 25.9781 18.5959 23.8372C18.8013 20.0629 19.1025 14.1791 19.0088 10.7437C19.0028 10.6622 18.3585 10.4715 18.2688 10.4529Z" fill="white"/>
<path opacity="0.2" d="M18.8828 17.9037L19.0104 13.6367L19.5908 18.1815L19.178 18.4778L18.8828 17.9037Z" fill="black"/>
<path opacity="0.2" d="M9.1466 16.9962L9.34606 17.0499L10.6465 13.8145L9.67116 17.5166L9.007 17.5203L9.1466 16.9962Z" fill="black"/>
<path d="M26.7206 14.3759C26.7206 14.3759 26.3636 13.8518 26.4912 13.3536C26.6189 12.8554 26.577 12.4239 26.7006 12.059C26.8223 11.6942 27.0457 12.1664 27.1075 12.4405C27.1713 12.7146 27.2451 13.0239 27.4586 12.9461C27.672 12.8684 28.9106 11.4423 29.2197 11.3664C29.5289 11.2905 29.4072 11.5794 29.4072 11.5794C29.4072 11.5794 29.7184 11.2405 29.8959 11.3182C29.9417 11.3386 30.0135 11.4553 29.8979 11.6294C29.6386 12.0238 29.0462 12.8239 29.0462 12.8239C29.0801 12.7776 29.8859 11.8386 30.0255 11.7127C30.209 11.5479 30.3865 11.5571 30.4862 11.659C30.6278 11.8035 29.6705 12.9998 29.6685 13.0776C29.6685 13.0776 30.195 12.372 30.4643 12.3979C30.7356 12.4239 30.4304 12.885 30.0774 13.2443C29.7543 13.574 29.2137 14.2981 28.8507 14.6037C28.404 14.9796 28.011 15.1389 27.4925 14.9296C26.9739 14.7222 26.7206 14.3759 26.7206 14.3759Z" fill="#B97964"/>
<path opacity="0.3" d="M29.3594 11.6201C29.118 11.8979 28.8887 12.185 28.6753 12.4813" stroke="black" stroke-width="0.25" stroke-miterlimit="10" stroke-linecap="round" stroke-linejoin="round"/>
<path opacity="0.3" d="M29.4775 13.361C29.1863 12.9869 28.7755 12.6943 28.3108 12.5332" stroke="black" stroke-width="0.25" stroke-miterlimit="10" stroke-linecap="round" stroke-linejoin="round"/>
<path opacity="0.3" d="M27.5225 13.1719C27.6581 13.3108 27.7419 13.4941 27.7519 13.6812C27.7619 13.8682 27.7 14.059 27.5784 14.209" stroke="black" stroke-width="0.25" stroke-miterlimit="10" stroke-linecap="round" stroke-linejoin="round"/>
<path d="M6.04406 16.1523C6.04406 16.1523 4.96902 18.5155 4.51427 20.636C4.30684 21.599 5.13656 22.2176 5.98423 22.4083C8.65688 23.0084 14.6803 23.0102 14.6803 23.0102L14.8379 21.3046L7.90096 19.91L9.14753 16.9968L6.04406 16.1523Z" fill="#B97964"/>
<path d="M14.6937 23.3731L16.9675 23.612C17.0452 23.6194 17.123 23.5953 17.1789 23.5435L20.6394 20.3673C20.783 20.2359 20.7172 20.0099 20.5217 19.9636L18.5212 19.4839C18.4334 19.4636 18.3397 19.4858 18.2759 19.5451L14.5401 22.962C14.3866 23.1046 14.4783 23.349 14.6937 23.3731Z" fill="#263238"/>
<path d="M14.4822 21.3114C14.4822 21.3114 14.546 21.0632 15.5533 20.778C16.3172 20.5613 17.0771 19.8965 17.2007 19.9206C17.3244 19.9428 17.46 20.3058 17.1409 20.6243C16.8238 20.9447 16.4947 21.1243 16.5785 21.2466C16.7799 21.541 19.2671 21.3021 19.3109 21.554C19.3528 21.8059 18.8801 22.5282 17.5478 23.0097C16.2154 23.4912 14.3905 23.0078 14.3905 23.0078L14.4822 21.3114Z" fill="#B97964"/>
</svg>
