<svg width="23577" height="647" viewBox="0 0 23577 647" fill="none" xmlns="http://www.w3.org/2000/svg">
<path d="M0 642.109C3.18369 639.589 899.393 235.005 899.393 235.005C1133.31 313.716 1244.61 386.691 1387.89 423.406C1579.23 472.435 1781.21 539.38 1773.13 570.965C1554.85 570.965 1962.06 584.258 1940.46 589.186C1917.22 594.492 1900.46 591.593 1899.07 595.488C1897.86 598.891 1908.8 606.403 1962.75 624.477C1308.5 630.35 654.248 636.223 0 642.109Z" fill="#C27508"/>
<path d="M899.462 235.005C899.462 235.005 278.069 642.109 272.752 642.109C267.451 642.109 0 642.109 0 642.109L899.462 235.005Z" fill="#CC8116"/>
<path d="M899.46 235.005L1391.13 642.109C1645.73 641.265 1890.07 640.467 2144.67 639.623C2145.89 664.83 2143.44 614.415 2144.67 639.623C1727.39 529.969 1316.74 344.658 899.46 235.005Z" fill="url(#paint0_linear_353_2)"/>
<path d="M4869.56 636.419C4872.54 633.337 5711.89 138.71 5711.89 138.71C5930.97 234.939 6035.21 324.155 6169.4 369.041C6348.6 428.982 6537.77 510.826 6530.2 549.44C6325.77 549.44 6707.14 565.692 6686.91 571.717C6665.15 578.204 6649.45 574.66 6648.15 579.421C6647.02 583.581 6657.26 592.765 6707.79 614.862C6095.04 622.042 5482.3 629.223 4869.56 636.419Z" fill="#C27508"/>
<path d="M5711.96 138.71C5711.96 138.71 5129.99 636.419 5125.01 636.419C5120.04 636.419 4869.56 636.419 4869.56 636.419L5711.96 138.71Z" fill="#CC8116"/>
<path d="M5711.96 138.71L6172.44 636.419C6410.88 635.386 6639.72 634.411 6878.17 633.378C6879.31 664.196 6877.02 602.56 6878.17 633.378C6487.36 499.321 6102.76 272.768 5711.96 138.71Z" fill="url(#paint1_linear_353_2)"/>
<path d="M5289.95 629.018C5293.09 625.124 6176.19 0.1875 6176.19 0.1875C6406.69 121.768 6516.35 234.488 6657.54 291.2C6846.08 366.932 7045.11 470.337 7037.14 519.125C6822.06 519.125 7223.31 539.658 7202.02 547.27C7179.12 555.466 7162.6 550.989 7161.24 557.004C7160.05 562.261 7170.82 573.864 7223.98 601.782C6579.31 610.854 5934.63 619.926 5289.95 629.018Z" fill="#C27508"/>
<path d="M6176.26 0.1875C6176.26 0.1875 5563.95 629.018 5558.72 629.018C5553.49 629.018 5289.95 629.018 5289.95 629.018L6176.26 0.1875Z" fill="#CC8116"/>
<path d="M6176.26 0.1875L6660.74 629.018C6911.61 627.714 7152.37 626.481 7403.24 625.177C7404.45 664.114 7402.04 586.24 7403.24 625.177C6992.07 455.801 6587.43 169.563 6176.26 0.1875Z" fill="url(#paint2_linear_353_2)"/>
<path d="M10249.3 642.11C10252.5 639.59 11148.7 235.006 11148.7 235.006C11382.6 313.717 11493.9 386.692 11637.2 423.407C11828.5 472.436 12030.5 539.381 12022.4 570.966C11804.2 570.966 12211.4 584.259 12189.8 589.187C12166.5 594.493 12149.8 591.594 12148.4 595.489C12147.2 598.892 12158.1 606.404 12212 624.478C11557.8 630.351 10903.6 636.224 10249.3 642.11Z" fill="#C27508"/>
<path d="M11148.8 235.006C11148.8 235.006 10527.4 642.11 10522.1 642.11C10516.8 642.11 10249.3 642.11 10249.3 642.11L11148.8 235.006Z" fill="#CC8116"/>
<path d="M11148.8 235.006L11640.4 642.11C11895 641.266 12139.4 640.468 12394 639.624C12395.2 664.831 12392.7 614.416 12394 639.624C11976.7 529.97 11566 344.659 11148.8 235.006Z" fill="url(#paint3_linear_353_2)"/>
<path d="M21432 642.111C21435.2 639.59 22331.4 235.006 22331.4 235.006C22565.3 313.717 22676.6 386.692 22819.9 423.407C23011.2 472.436 23213.2 539.381 23205.1 570.966C22986.8 570.966 23394 584.259 23372.4 589.187C23349.2 594.493 23332.4 591.595 23331.1 595.489C23329.8 598.892 23340.8 606.404 23394.7 624.478C22740.5 630.351 22086.2 636.225 21432 642.111Z" fill="#C27508"/>
<path d="M22331.4 235.006C22331.4 235.006 21710 642.111 21704.7 642.111C21699.4 642.111 21432 642.111 21432 642.111L22331.4 235.006Z" fill="#CC8116"/>
<path d="M22331.4 235.006L22823.1 642.111C23077.7 641.266 23322 640.469 23576.6 639.624C23577.9 664.832 23575.4 614.416 23576.6 639.624C23159.4 529.971 22748.7 344.66 22331.4 235.006Z" fill="url(#paint4_linear_353_2)"/>
<path d="M14708.4 636.418C14711.3 633.336 15550.7 138.709 15550.7 138.709C15769.8 234.938 15874 324.154 16008.2 369.04C16187.4 428.981 16376.6 510.825 16369 549.439C16164.6 549.439 16545.9 565.691 16525.7 571.716C16503.9 578.203 16488.2 574.659 16486.9 579.42C16485.8 583.58 16496.1 592.764 16546.6 614.861C15933.8 622.041 15321.1 629.222 14708.4 636.418Z" fill="#C27508"/>
<path d="M15550.8 138.709C15550.8 138.709 14968.8 636.418 14963.8 636.418C14958.8 636.418 14708.4 636.418 14708.4 636.418L15550.8 138.709Z" fill="#CC8116"/>
<path d="M15550.8 138.709L16011.2 636.418C16249.7 635.385 16478.5 634.41 16717 633.377C16718.1 664.195 16715.8 602.56 16717 633.377C16326.2 499.32 15941.6 272.767 15550.8 138.709Z" fill="url(#paint5_linear_353_2)"/>
<path d="M15128.7 629.018C15131.9 625.124 16015 0.1875 16015 0.1875C16245.5 121.768 16355.1 234.488 16496.3 291.2C16684.9 366.932 16883.9 470.337 16875.9 519.125C16660.9 519.125 17062.1 539.658 17040.8 547.27C17017.9 555.466 17001.4 550.989 17000 557.004C16998.8 562.261 17009.6 573.864 17062.8 601.782C16418.1 610.854 15773.4 619.926 15128.7 629.018Z" fill="#C27508"/>
<path d="M16015 0.1875C16015 0.1875 15402.7 629.018 15397.5 629.018C15392.3 629.018 15128.7 629.018 15128.7 629.018L16015 0.1875Z" fill="#CC8116"/>
<path d="M16015 0.1875L16499.5 629.018C16750.4 627.714 16991.2 626.481 17242 625.177C17243.2 664.114 17240.8 586.24 17242 625.177C16830.9 455.801 16426.2 169.563 16015 0.1875Z" fill="url(#paint6_linear_353_2)"/>
<defs>
<linearGradient id="paint0_linear_353_2" x1="899.46" y1="438.557" x2="2154.92" y2="438.557" gradientUnits="userSpaceOnUse">
<stop offset="0.11" stop-color="#915421"/>
<stop offset="1" stop-color="#5D3909"/>
</linearGradient>
<linearGradient id="paint1_linear_353_2" x1="5711.96" y1="387.564" x2="6887.77" y2="387.564" gradientUnits="userSpaceOnUse">
<stop offset="0.11" stop-color="#915421"/>
<stop offset="1" stop-color="#5D3909"/>
</linearGradient>
<linearGradient id="paint2_linear_353_2" x1="6176.26" y1="314.603" x2="7413.35" y2="314.603" gradientUnits="userSpaceOnUse">
<stop offset="0.11" stop-color="#915421"/>
<stop offset="1" stop-color="#5D3909"/>
</linearGradient>
<linearGradient id="paint3_linear_353_2" x1="11148.8" y1="438.558" x2="12404.2" y2="438.558" gradientUnits="userSpaceOnUse">
<stop offset="0.11" stop-color="#915421"/>
<stop offset="1" stop-color="#5D3909"/>
</linearGradient>
<linearGradient id="paint4_linear_353_2" x1="22331.4" y1="438.559" x2="23586.9" y2="438.559" gradientUnits="userSpaceOnUse">
<stop offset="0.11" stop-color="#915421"/>
<stop offset="1" stop-color="#5D3909"/>
</linearGradient>
<linearGradient id="paint5_linear_353_2" x1="15550.8" y1="387.563" x2="16726.6" y2="387.563" gradientUnits="userSpaceOnUse">
<stop offset="0.11" stop-color="#915421"/>
<stop offset="1" stop-color="#5D3909"/>
</linearGradient>
<linearGradient id="paint6_linear_353_2" x1="16015" y1="314.603" x2="17252.1" y2="314.603" gradientUnits="userSpaceOnUse">
<stop offset="0.11" stop-color="#915421"/>
<stop offset="1" stop-color="#5D3909"/>
</linearGradient>
</defs>
</svg>
